SplineFontDB: 3.2
FontName: CoyotrisComic
FullName: Coyotris Comic
FamilyName: Coyotris Comic
Weight: Book
Copyright: Copyright (c) 2009, 2010 NipCen Hacks Inc. All Rights Reserved.
Version: 1
ItalicAngle: 0
UnderlinePosition: -100
UnderlineWidth: 50
Ascent: 800
Descent: 200
InvalidEm: 0
sfntRevision: 0x00010000
LayerCount: 2
Layer: 0 1 "Back" 1
Layer: 1 1 "Fore" 0
XUID: [1021 959 -1208881592 15779]
StyleMap: 0x0040
FSType: 8
OS2Version: 3
OS2_WeightWidthSlopeOnly: 0
OS2_UseTypoMetrics: 0
CreationTime: 1280040086
ModificationTime: 1750589618
PfmFamily: 65
TTFWeight: 400
TTFWidth: 5
LineGap: 96
VLineGap: 0
Panose: 3 5 7 2 3 3 2 2 2 4
OS2TypoAscent: 636
OS2TypoAOffset: 0
OS2TypoDescent: -246
OS2TypoDOffset: 0
OS2TypoLinegap: 100
OS2WinAscent: 907
OS2WinAOffset: 0
OS2WinDescent: 269
OS2WinDOffset: 0
HheadAscent: 907
HheadAOffset: 0
HheadDescent: -269
HheadDOffset: 0
OS2SubXSize: 700
OS2SubYSize: 650
OS2SubXOff: 0
OS2SubYOff: 140
OS2SupXSize: 700
OS2SupYSize: 650
OS2SupXOff: 0
OS2SupYOff: 477
OS2StrikeYSize: 50
OS2StrikeYPos: 250
OS2CapHeight: 645
OS2XHeight: 503
OS2Vendor: 'PYRS'
OS2CodePages: 20000111.41000000
OS2UnicodeRanges: 800000af.5000204a.00000000.00000000
Lookup: 258 0 0 "'kern' Horizontal Kerning in Latin lookup 0" { "'kern' Horizontal Kerning in Latin lookup 0 subtable"  } ['kern' ('DFLT' <'dflt' > 'latn' <'dflt' > ) ]
DEI: 91125
TtTable: prep
PUSHW_1
 0
CALL
SVTCA[y-axis]
PUSHW_3
 1
 1
 2
CALL
SVTCA[x-axis]
PUSHW_3
 2
 2
 2
CALL
SVTCA[x-axis]
PUSHW_8
 2
 70
 56
 44
 31
 19
 0
 8
CALL
PUSHW_8
 3
 64
 56
 44
 31
 19
 0
 8
CALL
SVTCA[y-axis]
PUSHW_8
 1
 70
 56
 44
 31
 19
 0
 8
CALL
SVTCA[y-axis]
PUSHW_3
 4
 4
 7
CALL
PUSHW_1
 0
DUP
RCVT
RDTG
ROUND[Black]
RTG
WCVTP
EndTTInstrs
TtTable: fpgm
PUSHW_1
 0
FDEF
MPPEM
PUSHW_1
 9
LT
IF
PUSHB_2
 1
 1
INSTCTRL
EIF
PUSHW_1
 511
SCANCTRL
PUSHW_1
 68
SCVTCI
PUSHW_2
 9
 3
SDS
SDB
ENDF
PUSHW_1
 1
FDEF
DUP
DUP
RCVT
ROUND[Black]
WCVTP
PUSHB_1
 1
ADD
ENDF
PUSHW_1
 2
FDEF
PUSHW_1
 1
LOOPCALL
POP
ENDF
PUSHW_1
 3
FDEF
DUP

StartChar: .notdef
Encoding: 65536 -1 0
Width: 495
GlyphClass: 1
Flags: W
LayerCount: 2
Fore
SplineSet
60 0 m 1,0,-1
 60 800 l 1,1,-1
 435 800 l 1,2,-1
 435 0 l 1,3,-1
 60 0 l 1,0,-1
123 62 m 1,4,-1
 373 62 l 1,5,-1
 373 737 l 1,6,-1
 123 737 l 1,7,-1
 123 62 l 1,4,-1
EndSplineSet
Validated: 1
EndChar

StartChar: exclam
Encoding: 33 33 4
Width: 228
GlyphClass: 1
Flags: W
LayerCount: 2
Fore
SplineSet
85 577 m 0,0,1
 88 595 88 595 99 604.5 c 128,-1,2
 110 614 110 614 123 615 c 2,3,-1
 125 615 l 2,4,5
 137 615 137 615 148 607 c 256,6,7
 159 599 159 599 164 581 c 1,8,9
 163 514 163 514 160.5 447 c 128,-1,10
 158 380 158 380 153 313 c 1,11,-1
 153 340 l 1,12,13
 152 313 152 313 152 294 c 256,14,15
 152 275 152 275 151 249 c 0,16,17
 150 228 150 228 138.5 217 c 128,-1,18
 127 206 127 206 113 206 c 1,19,-1
 112 205 l 1,20,21
 98 205 98 205 87 215 c 0,22,23
 74 224 74 224 72 245 c 0,24,25
 73 329 73 329 78.5 411.5 c 128,-1,26
 84 494 84 494 85 577 c 0,0,1
107 100 m 0,27,28
 113 100 113 100 116 99 c 0,29,30
 122 102 122 102 129 102 c 0,31,32
 140 102 140 102 151 95 c 0,33,34
 168 84 168 84 168 59 c 2,35,-1
 168 56 l 2,36,37
 165 16 165 16 150 1 c 0,38,39
 137 -12 137 -12 122 -12 c 2,40,-1
 118 -12 l 2,41,42
 100 -10 100 -10 84 4 c 128,-1,43
 68 18 68 18 63 36 c 0,44,45
 60 43 60 43 60 50 c 0,46,47
 60 61 60 61 66 72 c 0,48,49
 75 90 75 90 107 100 c 0,27,28
EndSplineSet
Validated: 1
EndChar

StartChar: quotedbl
Encoding: 34 34 5
Width: 328
GlyphClass: 1
Flags: W
LayerCount: 2
Fore
SplineSet
69 545 m 0,0,1
 70 554 70 554 70.5 570 c 128,-1,2
 71 586 71 586 71 594 c 2,3,-1
 71 602 l 2,4,5
 68 609 68 609 68 616 c 0,6,7
 68 626 68 626 75 636 c 0,8,9
 86 652 86 652 112 653 c 1,10,11
 145 647 145 647 151 614 c 0,12,13
 152 611 152 611 152 607 c 2,14,-1
 152 604 l 2,15,16
 151 599 151 599 151 594 c 0,17,18
 151 593 151 593 150.5 592 c 128,-1,19
 150 591 150 591 150 589 c 2,20,-1
 150 573 l 2,21,22
 150 564 150 564 149.5 554.5 c 128,-1,23
 149 545 149 545 148 536 c 0,24,25
 146 503 146 503 142.5 470.5 c 128,-1,26
 139 438 139 438 139 405 c 0,27,28
 138 384 138 384 126.5 373 c 128,-1,29
 115 362 115 362 101 362 c 1,30,-1
 100 361 l 1,31,32
 86 361 86 361 75 371 c 0,33,34
 62 380 62 380 60 401 c 0,35,36
 61 438 61 438 64 473 c 128,-1,37
 67 508 67 508 69 545 c 0,0,1
189 608 m 2,38,39
 192 626 192 626 203 635.5 c 128,-1,40
 214 645 214 645 227 646 c 2,41,-1
 229 646 l 2,42,43
 241 646 241 646 252 638 c 256,44,45
 263 630 263 630 268 612 c 1,46,-1
 268 402 l 2,47,48
 267 381 267 381 255.5 370 c 128,-1,49
 244 359 244 359 230 359 c 1,50,-1
 229 358 l 1,51,52
 215 358 215 358 204 368 c 0,53,54
 191 377 191 377 189 398 c 2,55,-1
 189 608 l 2,38,39
79 585 m 1,56,57
 78 586 78 586 78 588 c 1,58,-1
 78 586 l 2,59,60
 78 585 78 585 79 585 c 1,56,57
EndSplineSet
Validated: 1
EndChar

StartChar: numbersign
Encoding: 35 35 6
Width: 652
GlyphClass: 1
Flags: W
LayerCount: 2
Fore
SplineSet
80 317 m 0,0,1
 79 321 79 321 79 325 c 0,2,3
 79 335 79 335 84 344 c 0,4,5
 89 355 89 355 98 361 c 128,-1,6
 107 367 107 367 118 368 c 2,7,-1
 120 368 l 2,8,9
 130 368 130 368 140 361 c 1,10,11
 148 361 148 361 155.5 361.5 c 128,-1,12
 163 362 163 362 171 362 c 1,13,-1
 171 452 l 2,14,15
 174 470 174 470 185 479.5 c 128,-1,16
 196 489 196 489 209 490 c 2,17,-1
 211 490 l 2,18,19
 223 490 223 490 234 482 c 256,20,21
 245 474 245 474 250 456 c 1,22,-1
 250 364 l 1,23,24
 278 365 278 365 305 365 c 2,25,-1
 360 365 l 1,26,-1
 360 445 l 2,27,28
 363 463 363 463 374 472.5 c 128,-1,29
 385 482 385 482 398 483 c 2,30,-1
 400 483 l 2,31,32
 412 483 412 483 423 475 c 256,33,34
 434 467 434 467 439 449 c 1,35,-1
 439 364 l 1,36,-1
 558 364 l 1,37,38
 576 359 576 359 584 348 c 256,39,40
 592 337 592 337 592 325 c 2,41,-1
 592 323 l 2,42,43
 591 310 591 310 581.5 299 c 128,-1,44
 572 288 572 288 554 285 c 2,45,-1
 497 285 l 2,46,47
 469 285 469 285 440 284 c 1,48,49
 441 258 441 258 441 233 c 0,50,51
 441 207 441 207 442 181 c 1,52,-1
 538 181 l 1,53,54
 556 176 556 176 564 165 c 256,55,56
 572 154 572 154 572 142 c 2,57,-1
 572 140 l 2,58,59
 571 127 571 127 561.5 116 c 128,-1,60
 552 105 552 105 534 102 c 2,61,-1
 443 102 l 1,62,-1
 443 46 l 2,63,64
 442 25 442 25 430.5 14 c 128,-1,65
 419 3 419 3 405 3 c 1,66,-1
 404 2 l 1,67,68
 390 2 390 2 379 12 c 0,69,70
 366 21 366 21 364 42 c 2,71,-1
 364 102 l 1,72,-1
 250 102 l 1,73,-1
 250 69 l 2,74,75
 249 48 249 48 237.5 37 c 128,-1,76
 226 26 226 26 212 26 c 1,77,-1
 211 25 l 1,78,79
 197 25 197 25 186 35 c 0,80,81
 173 44 173 44 171 65 c 2,82,-1
 171 102 l 1,83,-1
 100 102 l 2,84,85
 79 104 79 104 70 117 c 0,86,87
 60 128 60 128 60 142 c 1,88,-1
 61 143 l 1,89,90
 61 157 61 157 72 168.5 c 128,-1,91
 83 180 83 180 104 181 c 2,92,-1
 171 181 l 1,93,-1
 171 280 l 1,94,-1
 143 280 l 2,95,96
 129 280 129 280 116 283.5 c 128,-1,97
 103 287 103 287 93.5 295 c 128,-1,98
 84 303 84 303 80 317 c 0,0,1
363 181 m 1,99,100
 362 207 362 207 362 233 c 0,101,102
 362 258 362 258 361 284 c 1,103,104
 333 283 333 283 306 283 c 0,105,106
 278 283 278 283 250 282 c 1,107,-1
 250 181 l 1,108,-1
 363 181 l 1,99,100
153 349 m 1,109,110
 149 356 149 356 144 358 c 1,111,-1
 153 349 l 1,109,110
EndSplineSet
Validated: 1
EndChar

StartChar: dollar
Encoding: 36 36 7
Width: 571
GlyphClass: 1
Flags: W
LayerCount: 2
Fore
SplineSet
222 655 m 2,0,1
 225 673 225 673 236 682.5 c 128,-1,2
 247 692 247 692 260 693 c 2,3,-1
 262 693 l 2,4,5
 274 693 274 693 285 685 c 256,6,7
 296 677 296 677 301 659 c 1,8,-1
 301 590 l 1,9,-1
 320 590 l 2,10,11
 351 590 351 590 380 586 c 0,12,13
 418 579 418 579 437 562 c 0,14,15
 448 552 448 552 452.5 539.5 c 128,-1,16
 457 527 457 527 460 513 c 0,17,18
 460 495 460 495 451 484 c 128,-1,19
 442 473 442 473 430 471 c 0,20,21
 426 470 426 470 422 470 c 0,22,23
 413 470 413 470 404 474 c 0,24,25
 391 480 391 480 382 496 c 0,26,27
 381 498 381 498 380 500.5 c 128,-1,28
 379 503 379 503 378 505 c 0,29,30
 369 507 369 507 360.5 508 c 128,-1,31
 352 509 352 509 342 509 c 2,32,-1
 301 509 l 1,33,-1
 301 443 l 2,34,35
 301 410 301 410 302 376 c 1,36,37
 352 364 352 364 397 352 c 128,-1,38
 442 340 442 340 468 313 c 0,39,40
 486 295 486 295 495.5 270.5 c 128,-1,41
 505 246 505 246 507 220 c 0,42,43
 509 202 509 202 511 181 c 2,44,-1
 511 172 l 2,45,46
 511 156 511 156 507 143 c 0,47,48
 499 115 499 115 477.5 91 c 128,-1,49
 456 67 456 67 427.5 48.5 c 128,-1,50
 399 30 399 30 367 17 c 128,-1,51
 335 4 335 4 305 -2 c 1,52,-1
 305 -53 l 2,53,54
 304 -74 304 -74 292.5 -85 c 128,-1,55
 281 -96 281 -96 267 -96 c 1,56,-1
 266 -97 l 1,57,58
 252 -97 252 -97 241 -87 c 0,59,60
 228 -78 228 -78 226 -57 c 2,61,-1
 226 -7 l 1,62,63
 214 -5 214 -5 202 -2 c 128,-1,64
 190 1 190 1 176 5 c 0,65,66
 162 10 162 10 148 17 c 128,-1,67
 134 24 134 24 119 29 c 0,68,69
 116 30 116 30 111 31 c 128,-1,70
 106 32 106 32 101.5 32.5 c 128,-1,71
 97 33 97 33 95 34 c 0,72,73
 93 34 93 34 93 35 c 1,74,-1
 96 35 l 1,75,76
 77 38 77 38 68 51 c 0,77,78
 60 62 60 62 60 74 c 2,79,-1
 60 77 l 2,80,81
 61 91 61 91 72 102 c 128,-1,82
 83 113 83 113 104 114 c 0,83,84
 136 111 136 111 165.5 97 c 128,-1,85
 195 83 195 83 226 75 c 1,86,87
 225 135 225 135 224.5 194 c 128,-1,88
 224 253 224 253 224 313 c 1,89,90
 196 322 196 322 172.5 333.5 c 128,-1,91
 149 345 149 345 132 359 c 0,92,93
 117 372 117 372 107.5 382 c 128,-1,94
 98 392 98 392 92 402.5 c 128,-1,95
 86 413 86 413 84 426 c 128,-1,96
 82 439 82 439 82 458 c 0,97,98
 82 471 82 471 89 482.5 c 128,-1,99
 96 494 96 494 106.5 504 c 128,-1,100
 117 514 117 514 128.5 522 c 128,-1,101
 140 530 140 530 150 537 c 0,102,103
 163 546 163 546 174.5 556 c 128,-1,104
 186 566 186 566 200 572 c 0,105,106
 205 574 205 574 210 575.5 c 128,-1,107
 215 577 215 577 222 579 c 1,108,-1
 222 655 l 2,0,1
402 264 m 0,109,110
 381 271 381 271 355.5 277 c 128,-1,111
 330 283 330 283 303 291 c 1,112,113
 303 237 303 237 303.5 184.5 c 128,-1,114
 304 132 304 132 305 79 c 1,115,116
 320 83 320 83 334 89 c 128,-1,117
 348 95 348 95 362 103 c 256,118,119
 376 111 376 111 390 121.5 c 128,-1,120
 404 132 404 132 414 143 c 0,121,122
 421 151 421 151 424.5 157.5 c 128,-1,123
 428 164 428 164 430 165 c 2,124,-1
 430 178 l 2,125,126
 430 182 430 182 429 189 c 0,127,128
 429 197 429 197 428.5 208.5 c 128,-1,129
 428 220 428 220 425.5 231.5 c 128,-1,130
 423 243 423 243 417.5 252 c 128,-1,131
 412 261 412 261 402 264 c 0,109,110
162 441 m 1,132,133
 175 428 175 428 190.5 419 c 128,-1,134
 206 410 206 410 223 402 c 1,135,136
 223 425 223 425 222.5 447.5 c 128,-1,137
 222 470 222 470 222 493 c 1,138,139
 205 483 205 483 190 468.5 c 128,-1,140
 175 454 175 454 162 441 c 1,132,133
107 35 m 1,141,142
 108 34 108 34 110 34 c 1,143,144
 108 34 108 34 107 35 c 1,141,142
EndSplineSet
Validated: 5
EndChar

StartChar: percent
Encoding: 37 37 8
Width: 653
GlyphClass: 1
Flags: W
LayerCount: 2
Fore
SplineSet
464 595 m 0,0,1
 466 597 466 597 467 599 c 0,2,3
 473 616 473 616 486 623 c 0,4,5
 496 628 496 628 505 628 c 2,6,-1
 512 628 l 2,7,8
 525 625 525 625 535 614 c 0,9,10
 544 603 544 603 544 586 c 2,11,-1
 544 582 l 2,12,13
 543 567 543 567 526 540.5 c 128,-1,14
 509 514 509 514 487.5 486 c 128,-1,15
 466 458 466 458 446 434 c 128,-1,16
 426 410 426 410 418 400 c 0,17,18
 380 349 380 349 343.5 297.5 c 128,-1,19
 307 246 307 246 278 189 c 0,20,21
 255 143 255 143 233 96 c 128,-1,22
 211 49 211 49 180 6 c 0,23,24
 166 -10 166 -10 151 -11 c 0,25,26
 148 -12 148 -12 146 -12 c 0,27,28
 133 -12 133 -12 124 -4 c 0,29,30
 112 4 112 4 108 20 c 0,31,32
 107 24 107 24 107 28 c 0,33,34
 107 40 107 40 115 53 c 0,35,36
 144 93 144 93 164 137 c 128,-1,37
 184 181 184 181 206 224 c 0,38,39
 237 284 237 284 274.5 338.5 c 128,-1,40
 312 393 312 393 353 446 c 0,41,42
 376 477 376 477 399 507 c 128,-1,43
 422 537 422 537 444 568 c 0,44,45
 449 575 449 575 454 581.5 c 128,-1,46
 459 588 459 588 464 595 c 0,0,1
367 45 m 0,47,48
 347 72 347 72 347 100 c 0,49,50
 346 101 346 101 346 102 c 0,51,52
 346 129 346 129 359 152 c 0,53,54
 371 176 371 176 393.5 194.5 c 128,-1,55
 416 213 416 213 442 222 c 0,56,57
 460 228 460 228 478 228 c 0,58,59
 486 228 486 228 493 227 c 0,60,61
 518 223 518 223 537 203 c 1,62,63
 547 200 547 200 557 194 c 0,64,65
 565 185 565 185 573 176 c 128,-1,66
 581 167 581 167 586 156 c 0,67,68
 593 142 593 142 593 127 c 0,69,70
 593 118 593 118 590 109 c 0,71,72
 582 86 582 86 563 66.5 c 128,-1,73
 544 47 544 47 516.5 34 c 128,-1,74
 489 21 489 21 461 17 c 0,75,76
 450 15 450 15 438 15 c 0,77,78
 423 15 423 15 408 19 c 0,79,80
 382 25 382 25 367 45 c 0,47,48
63 498 m 0,81,82
 60 509 60 509 60 519 c 0,83,84
 60 530 60 530 63 541 c 0,85,86
 70 562 70 562 85.5 579.5 c 128,-1,87
 101 597 101 597 122.5 609.5 c 128,-1,88
 144 622 144 622 166 626 c 0,89,90
 174 627 174 627 182 627 c 0,91,92
 195 627 195 627 208 623 c 0,93,94
 228 617 228 617 241 597 c 1,95,96
 261 595 261 595 274 576 c 0,97,98
 292 547 292 547 292 521 c 0,99,100
 292 516 292 516 291 511 c 0,101,102
 287 481 287 481 267.5 459.5 c 128,-1,103
 248 438 248 438 218 427 c 0,104,105
 194 418 194 418 171 418 c 0,106,107
 164 418 164 418 158 419 c 0,108,109
 127 422 127 422 101 441 c 128,-1,110
 75 460 75 460 63 498 c 0,81,82
501 118 m 0,111,112
 503 119 503 119 507 125 c 1,113,114
 491 130 491 130 480 145 c 0,115,116
 478 145 478 145 477 145.5 c 128,-1,117
 476 146 476 146 474 146 c 0,118,119
 466 146 466 146 461.5 145 c 128,-1,120
 457 144 457 144 450 140 c 0,121,122
 447 138 447 138 442 132.5 c 128,-1,123
 437 127 437 127 433 120.5 c 128,-1,124
 429 114 429 114 428 107 c 0,125,126
 427 105 427 105 427 104 c 0,127,128
 427 99 427 99 431 97 c 0,129,130
 436 93 436 93 443 93 c 0,131,132
 445 93 445 93 448 94 c 0,133,134
 458 95 458 95 468.5 99 c 128,-1,135
 479 103 479 103 488 108.5 c 128,-1,136
 497 114 497 114 501 118 c 0,111,112
176 497 m 2,137,-1
 179 497 l 2,138,139
 191 497 191 497 201 505 c 0,140,141
 209 512 209 512 209 521 c 2,142,-1
 209 525 l 1,143,144
 201 526 201 526 192.5 530.5 c 128,-1,145
 184 535 184 535 178 545 c 1,146,147
 162 544 162 544 155 533.5 c 128,-1,148
 148 523 148 523 143 515 c 1,149,-1
 146 512 l 2,150,151
 153 506 153 506 160 502 c 128,-1,152
 167 498 167 498 176 497 c 2,137,-1
EndSplineSet
Validated: 1
EndChar

StartChar: ampersand
Encoding: 38 38 9
Width: 593
GlyphClass: 1
Flags: W
LayerCount: 2
Fore
SplineSet
276 425 m 0,0,1
 279 443 279 443 290 452.5 c 128,-1,2
 301 462 301 462 314 463 c 2,3,-1
 316 463 l 2,4,5
 328 463 328 463 339 455 c 256,6,7
 350 447 350 447 355 429 c 1,8,9
 357 391 357 391 363 353.5 c 128,-1,10
 369 316 369 316 371 278 c 0,11,12
 372 257 372 257 372.5 236 c 128,-1,13
 373 215 373 215 373 194 c 1,14,15
 396 199 396 199 416 208.5 c 128,-1,16
 436 218 436 218 447 232 c 0,17,18
 452 238 452 238 453.5 245 c 128,-1,19
 455 252 455 252 457 258 c 0,20,21
 468 276 468 276 484 280 c 0,22,23
 490 282 490 282 495 282 c 0,24,25
 504 282 504 282 512 278 c 0,26,27
 524 272 524 272 530 258 c 0,28,29
 533 251 533 251 533 243 c 0,30,31
 533 234 533 234 529 223 c 0,32,33
 526 214 526 214 523 204.5 c 128,-1,34
 520 195 520 195 515 186 c 0,35,36
 501 157 501 157 461.5 140.5 c 128,-1,37
 422 124 422 124 375 116 c 1,38,39
 373 96 373 96 372 78 c 128,-1,40
 371 60 371 60 371 46 c 0,41,42
 371 44 371 44 370.5 42 c 128,-1,43
 370 40 370 40 370 38 c 0,44,45
 367 22 367 22 356 12 c 0,46,47
 352 8 352 8 346 5 c 0,48,49
 345 4 345 4 344 4 c 256,50,51
 343 4 343 4 341 3 c 0,52,53
 339 3 339 3 338.5 2.5 c 128,-1,54
 338 2 338 2 336 2 c 2,55,-1
 327 2 l 2,56,57
 326 2 326 2 325.5 2.5 c 128,-1,58
 325 3 325 3 324 3 c 2,59,-1
 322 3 l 2,60,61
 312 6 312 6 306 11 c 0,62,63
 300 17 300 17 298 21 c 2,64,-1
 295 27 l 2,65,66
 294 29 294 29 294 31 c 0,67,68
 294 32 294 32 293 34 c 0,69,70
 293 36 293 36 292.5 38 c 128,-1,71
 292 40 292 40 292 42 c 2,72,-1
 292 106 l 1,73,74
 261 104 261 104 236 104 c 0,75,76
 210 104 210 104 194 105 c 0,77,78
 177 106 177 106 153.5 111 c 128,-1,79
 130 116 130 116 109 126 c 128,-1,80
 88 136 88 136 74 152 c 0,81,82
 60 167 60 167 60 189 c 2,83,-1
 60 192 l 2,84,85
 61 224 61 224 75 247.5 c 128,-1,86
 89 271 89 271 111 286 c 128,-1,87
 133 301 133 301 161 307 c 0,88,89
 181 312 181 312 203 312 c 0,90,91
 210 312 210 312 217 311 c 0,92,93
 235 310 235 310 254 302.5 c 128,-1,94
 273 295 273 295 290 284 c 1,95,96
 288 319 288 319 282.5 354.5 c 128,-1,97
 277 390 277 390 276 425 c 0,0,1
287 182 m 1,98,99
 280 192 280 192 270 201 c 128,-1,100
 260 210 260 210 243 219 c 0,101,102
 224 229 224 229 202 233 c 1,103,-1
 192 233 l 2,104,105
 175 233 175 233 160 224 c 0,106,107
 152 219 152 219 148 213.5 c 128,-1,108
 144 208 144 208 142 202 c 0,109,110
 145 199 145 199 148 196.5 c 128,-1,111
 151 194 151 194 156 193 c 0,112,113
 180 186 180 186 207 184 c 128,-1,114
 234 182 234 182 257 182 c 2,115,-1
 287 182 l 1,98,99
EndSplineSet
Validated: 1
EndChar

StartChar: quotesingle
Encoding: 39 39 10
Width: 201
GlyphClass: 1
Flags: W
LayerCount: 2
Fore
SplineSet
61 592 m 2,0,1
 60 598 60 598 60 603 c 256,2,3
 60 608 60 608 61 614 c 0,4,5
 64 624 64 624 71.5 630.5 c 128,-1,6
 79 637 79 637 90 640 c 0,7,8
 95 641 95 641 100 641 c 0,9,10
 107 641 107 641 115 639 c 0,11,12
 132 628 132 628 137 615 c 0,13,14
 141 606 141 606 141 593 c 0,15,16
 141 588 141 588 140 582 c 2,17,-1
 140 422 l 2,18,19
 139 401 139 401 127.5 390 c 128,-1,20
 116 379 116 379 102 379 c 1,21,-1
 101 378 l 1,22,23
 87 378 87 378 76 388 c 0,24,25
 63 397 63 397 61 418 c 2,26,-1
 61 504 l 2,27,28
 60 518 60 518 60 533 c 0,29,30
 60 561 60 561 61 589 c 2,31,-1
 61 592 l 2,0,1
EndSplineSet
Validated: 1
EndChar

StartChar: parenleft
Encoding: 40 40 11
Width: 408
GlyphClass: 1
Flags: W
LayerCount: 2
Fore
SplineSet
327 639 m 0,0,1
 339 631 339 631 344 621 c 0,2,3
 348 612 348 612 348 603 c 2,4,-1
 348 600 l 2,5,6
 347 590 347 590 341 581 c 128,-1,7
 335 572 335 572 325 568 c 0,8,9
 311 557 311 557 299 542 c 128,-1,10
 287 527 287 527 274 513 c 0,11,12
 273 511 273 511 272 510.5 c 128,-1,13
 271 510 271 510 270 508 c 2,14,-1
 269 507 l 2,15,16
 265 502 265 502 261.5 498.5 c 128,-1,17
 258 495 258 495 250 485 c 0,18,19
 233 465 233 465 221.5 442 c 128,-1,20
 210 419 210 419 196 396 c 0,21,22
 185 376 185 376 170 357 c 128,-1,23
 155 338 155 338 146 317 c 0,24,25
 139 300 139 300 139 266 c 0,26,27
 138 262 138 262 138 257 c 0,28,29
 138 227 138 227 142 196 c 0,30,31
 145 159 145 159 151 127.5 c 128,-1,32
 157 96 157 96 162 84 c 0,33,34
 172 63 172 63 190.5 42 c 128,-1,35
 209 21 209 21 231 1.5 c 128,-1,36
 253 -18 253 -18 275 -36 c 128,-1,37
 297 -54 297 -54 314 -70 c 0,38,39
 324 -84 324 -84 324 -98 c 2,40,-1
 324 -99 l 2,41,42
 323 -114 323 -114 315 -123.5 c 128,-1,43
 307 -133 307 -133 293 -136 c 0,44,45
 289 -137 289 -137 285 -137 c 0,46,47
 275 -137 275 -137 263 -131 c 0,48,49
 226 -96 226 -96 184.5 -63 c 128,-1,50
 143 -30 143 -30 113 11 c 0,51,52
 100 29 100 29 89.5 51.5 c 128,-1,53
 79 74 79 74 74 95 c 0,54,55
 69 115 69 115 65.5 149 c 128,-1,56
 62 183 62 183 61 220 c 0,57,58
 60 234 60 234 60 247 c 0,59,60
 60 270 60 270 62 292 c 0,61,62
 64 326 64 326 72 348 c 0,63,64
 83 374 83 374 101 397 c 128,-1,65
 119 420 119 420 133 445 c 0,66,67
 140 458 140 458 152.5 479 c 128,-1,68
 165 500 165 500 181 524 c 128,-1,69
 197 548 197 548 215 571.5 c 128,-1,70
 233 595 233 595 252.5 612 c 128,-1,71
 272 629 272 629 291 638 c 0,72,73
 301 642 301 642 311 642 c 0,74,75
 319 642 319 642 327 639 c 0,0,1
EndSplineSet
Validated: 1
EndChar

StartChar: parenright
Encoding: 41 41 12
Width: 362
GlyphClass: 1
Flags: W
LayerCount: 2
Fore
SplineSet
75 560 m 0,0,1
 60 575 60 575 60 591 c 256,2,3
 60 607 60 607 69 617.5 c 128,-1,4
 78 628 78 628 94 631 c 2,5,-1
 99 631 l 2,6,7
 112 631 112 631 126 621 c 0,8,9
 152 598 152 598 181.5 577 c 128,-1,10
 211 556 211 556 230 526 c 0,11,12
 266 470 266 470 283.5 398 c 128,-1,13
 301 326 301 326 302 250 c 2,14,-1
 302 240 l 2,15,16
 302 169 302 169 289 101 c 0,17,18
 275 27 275 27 247 -32 c 0,19,20
 235 -57 235 -57 221 -80.5 c 128,-1,21
 207 -104 207 -104 185 -122 c 0,22,23
 177 -129 177 -129 168 -136 c 128,-1,24
 159 -143 159 -143 150 -151 c 0,25,26
 148 -152 148 -152 145 -156 c 128,-1,27
 142 -160 142 -160 141 -161 c 0,28,29
 133 -178 133 -178 119 -182 c 0,30,31
 112 -185 112 -185 106 -185 c 0,32,33
 99 -185 99 -185 92 -182 c 0,34,35
 79 -177 79 -177 71 -164 c 0,36,37
 66 -155 66 -155 66 -144 c 0,38,39
 66 -138 66 -138 67 -132 c 0,40,41
 71 -120 71 -120 79.5 -109.5 c 128,-1,42
 88 -99 88 -99 98 -90 c 128,-1,43
 108 -81 108 -81 119 -73 c 128,-1,44
 130 -65 130 -65 139 -57 c 0,45,46
 177 -15 177 -15 196.5 45.5 c 128,-1,47
 216 106 216 106 221 172 c 0,48,49
 222 195 222 195 222 218 c 0,50,51
 222 261 222 261 217 303 c 0,52,53
 208 368 208 368 191 418 c 0,54,55
 186 435 186 435 179.5 453 c 128,-1,56
 173 471 173 471 162 486 c 0,57,58
 145 509 145 509 120 525 c 128,-1,59
 95 541 95 541 75 560 c 0,0,1
EndSplineSet
Validated: 1
EndChar

StartChar: asterisk
Encoding: 42 42 13
Width: 500
GlyphClass: 1
Flags: W
LayerCount: 2
Fore
SplineSet
208 635 m 0,0,1
 211 653 211 653 222 662.5 c 128,-1,2
 233 672 233 672 246 673 c 2,3,-1
 248 673 l 2,4,5
 260 673 260 673 271 665 c 256,6,7
 282 657 282 657 287 639 c 1,8,9
 287 612 287 612 288.5 584.5 c 128,-1,10
 290 557 290 557 291 529 c 1,11,12
 311 542 311 542 330.5 556.5 c 128,-1,13
 350 571 350 571 366 589 c 0,14,15
 381 601 381 601 396 601 c 2,16,-1
 398 601 l 2,17,18
 414 600 414 600 424 590 c 128,-1,19
 434 580 434 580 435 564 c 2,20,-1
 435 562 l 2,21,22
 435 547 435 547 423 532 c 0,23,24
 400 508 400 508 373.5 491 c 128,-1,25
 347 474 347 474 318 456 c 0,26,27
 316 455 316 455 315 454 c 128,-1,28
 314 453 314 453 312 452 c 1,29,30
 329 441 329 441 346.5 430.5 c 128,-1,31
 364 420 364 420 372 413 c 0,32,33
 379 408 379 408 385 403 c 128,-1,34
 391 398 391 398 397 393 c 0,35,36
 400 391 400 391 407 390 c 0,37,38
 411 388 411 388 411 387 c 2,39,-1
 411 386 l 1,40,41
 429 379 429 379 436 366 c 0,42,43
 440 357 440 357 440 349 c 0,44,45
 440 344 440 344 438 339 c 0,46,47
 434 326 434 326 422 317 c 0,48,49
 411 310 411 310 396 310 c 2,50,-1
 389 310 l 2,51,52
 374 313 374 313 361.5 321 c 128,-1,53
 349 329 349 329 337 339 c 128,-1,54
 325 349 325 349 313.5 359 c 128,-1,55
 302 369 302 369 290 377 c 0,56,57
 276 386 276 386 262.5 393 c 128,-1,58
 249 400 249 400 236 410 c 1,59,60
 225 407 225 407 213.5 400.5 c 128,-1,61
 202 394 202 394 191.5 385 c 128,-1,62
 181 376 181 376 172 366 c 128,-1,63
 163 356 163 356 157 348 c 0,64,65
 143 332 143 332 128 331 c 0,66,67
 125 330 125 330 123 330 c 0,68,69
 110 330 110 330 101 338 c 0,70,71
 89 346 89 346 85 362 c 0,72,73
 84 366 84 366 84 370 c 0,74,75
 84 382 84 382 92 395 c 0,76,77
 105 410 105 410 119 424.5 c 128,-1,78
 133 439 133 439 150 452 c 1,79,80
 121 470 121 470 97.5 494 c 128,-1,81
 74 518 74 518 60 544 c 1,82,-1
 60 551 l 2,83,84
 60 565 60 565 66 575 c 0,85,86
 73 587 73 587 85 592 c 0,87,88
 91 595 91 595 98 595 c 0,89,90
 104 595 104 595 111 593 c 0,91,92
 124 588 124 588 135 573 c 0,93,94
 145 555 145 555 166.5 538 c 128,-1,95
 188 521 188 521 212 509 c 1,96,97
 211 541 211 541 209.5 572 c 128,-1,98
 208 603 208 603 208 635 c 0,0,1
EndSplineSet
Validated: 1
EndChar

StartChar: plus
Encoding: 43 43 14
Width: 544
GlyphClass: 1
Flags: W
LayerCount: 2
Fore
SplineSet
244 512 m 1,0,1
 254 528 254 528 268 534 c 0,2,3
 276 537 276 537 283 537 c 0,4,5
 288 537 288 537 293 536 c 0,6,7
 305 532 305 532 314 520 c 0,8,9
 321 509 321 509 321 494 c 2,10,-1
 321 490 l 1,11,12
 315 469 315 469 315 446 c 0,13,14
 315 440 315 440 316 433 c 0,15,16
 318 403 318 403 318 374 c 2,17,-1
 318 365 l 1,18,19
 351 364 351 364 384 364 c 2,20,-1
 450 364 l 1,21,22
 468 359 468 359 476 348 c 256,23,24
 484 337 484 337 484 325 c 2,25,-1
 484 323 l 2,26,27
 483 310 483 310 473.5 299 c 128,-1,28
 464 288 464 288 446 285 c 2,29,-1
 382 285 l 2,30,31
 350 285 350 285 318 286 c 1,32,-1
 318 147 l 2,33,34
 317 126 317 126 305.5 115 c 128,-1,35
 294 104 294 104 280 104 c 1,36,-1
 279 103 l 1,37,38
 265 103 265 103 254 113 c 0,39,40
 241 122 241 122 239 143 c 2,41,-1
 239 287 l 1,42,43
 204 288 204 288 169.5 288.5 c 128,-1,44
 135 289 135 289 100 289 c 0,45,46
 79 291 79 291 70 304 c 0,47,48
 60 315 60 315 60 329 c 1,49,-1
 61 330 l 1,50,51
 61 344 61 344 72 355.5 c 128,-1,52
 83 367 83 367 104 368 c 0,53,54
 138 368 138 368 171.5 367.5 c 128,-1,55
 205 367 205 367 239 367 c 1,56,-1
 239 370 l 2,57,58
 239 405 239 405 237 442 c 0,59,60
 236 449 236 449 236 456 c 0,61,62
 236 485 236 485 244 512 c 1,0,1
EndSplineSet
Validated: 1
EndChar

StartChar: comma
Encoding: 44 44 15
Width: 222
GlyphClass: 1
Flags: W
LayerCount: 2
Fore
SplineSet
83 72 m 0,0,1
 87 93 87 93 100 102 c 0,2,3
 111 110 111 110 123 110 c 2,4,-1
 127 110 l 2,5,6
 141 108 141 108 152 96 c 0,7,8
 162 85 162 85 162 66 c 2,9,-1
 162 63 l 2,10,11
 160 34 160 34 150.5 7 c 128,-1,12
 141 -20 141 -20 139 -49 c 1,13,14
 133 -66 133 -66 121 -73 c 0,15,16
 110 -80 110 -80 100 -80 c 0,17,18
 98 -80 98 -80 96 -79 c 0,19,20
 83 -78 83 -78 72.5 -68 c 128,-1,21
 62 -58 62 -58 60 -40 c 0,22,23
 62 -11 62 -11 71.5 16 c 128,-1,24
 81 43 81 43 83 72 c 0,0,1
EndSplineSet
Validated: 1
EndChar

StartChar: hyphen
Encoding: 45 45 16
Width: 442
GlyphClass: 1
Flags: W
LayerCount: 2
Fore
SplineSet
100 235 m 2,0,1
 79 237 79 237 70 250 c 0,2,3
 60 261 60 261 60 275 c 1,4,-1
 61 276 l 1,5,6
 61 290 61 290 72 301.5 c 128,-1,7
 83 313 83 313 104 314 c 2,8,-1
 348 314 l 1,9,10
 366 309 366 309 374 298 c 256,11,12
 382 287 382 287 382 275 c 2,13,-1
 382 273 l 2,14,15
 381 260 381 260 371.5 249 c 128,-1,16
 362 238 362 238 344 235 c 2,17,-1
 100 235 l 2,0,1
EndSplineSet
Validated: 1
EndChar

StartChar: period
Encoding: 46 46 17
Width: 235
GlyphClass: 1
Flags: W
LayerCount: 2
Fore
SplineSet
118 117 m 0,0,1
 128 117 128 117 132 116 c 2,2,-1
 136 116 l 2,3,4
 150 116 150 116 162 106 c 0,5,6
 175 95 175 95 175 73 c 2,7,-1
 175 70 l 1,8,9
 168 32 168 32 151 20 c 0,10,11
 138 10 138 10 124 10 c 0,12,13
 120 10 120 10 116 11 c 0,14,15
 97 14 97 14 81 29 c 128,-1,16
 65 44 65 44 61 62 c 0,17,18
 60 67 60 67 60 71 c 0,19,20
 60 84 60 84 69 96 c 0,21,22
 81 112 81 112 118 117 c 0,0,1
EndSplineSet
Validated: 1
EndChar

StartChar: slash
Encoding: 47 47 18
Width: 510
GlyphClass: 1
Flags: W
LayerCount: 2
Fore
SplineSet
390 651 m 0,0,1
 400 655 400 655 409 655 c 0,2,3
 415 655 415 655 421 653 c 0,4,5
 435 649 435 649 443 639 c 0,6,7
 450 630 450 630 450 616 c 2,8,-1
 450 615 l 2,9,10
 449 600 449 600 437 586 c 1,11,12
 418 572 418 572 403.5 553.5 c 128,-1,13
 389 535 389 535 376.5 514 c 128,-1,14
 364 493 364 493 353.5 471 c 128,-1,15
 343 449 343 449 332 428 c 0,16,17
 280 326 280 326 235 221 c 128,-1,18
 190 116 190 116 133 16 c 0,19,20
 121 2 121 2 107 -1 c 0,21,22
 102 -2 102 -2 98 -2 c 0,23,24
 89 -2 89 -2 82 2 c 0,25,26
 71 8 71 8 65 21 c 0,27,28
 60 29 60 29 60 40 c 0,29,30
 60 45 60 45 61 51 c 0,31,32
 118 151 118 151 163 256 c 128,-1,33
 208 361 208 361 260 463 c 0,34,35
 273 490 273 490 286.5 515.5 c 128,-1,36
 300 541 300 541 315 565 c 128,-1,37
 330 589 330 589 348.5 611 c 128,-1,38
 367 633 367 633 390 651 c 0,0,1
EndSplineSet
Validated: 1
EndChar

StartChar: zero
Encoding: 48 48 19
Width: 538
GlyphClass: 1
Flags: W
LayerCount: 2
Fore
SplineSet
349 439 m 1,0,1
 368 433 368 433 376 420 c 1,2,3
 387 419 387 419 399 411 c 0,4,5
 418 397 418 397 434 381.5 c 128,-1,6
 450 366 450 366 461 345 c 0,7,8
 473 323 473 323 475.5 298 c 128,-1,9
 478 273 478 273 478 249 c 0,10,11
 478 194 478 194 453 141.5 c 128,-1,12
 428 89 428 89 386.5 52 c 128,-1,13
 345 15 345 15 291 -1 c 0,14,15
 266 -9 266 -9 239 -9 c 0,16,17
 210 -9 210 -9 179 1 c 0,18,19
 120 19 120 19 92 64.5 c 128,-1,20
 64 110 64 110 61 165 c 0,21,22
 60 174 60 174 60 184 c 0,23,24
 60 230 60 230 74 276 c 0,25,26
 91 332 91 332 123 371 c 0,27,28
 143 396 143 396 170.5 409.5 c 128,-1,29
 198 423 198 423 228 429 c 128,-1,30
 258 435 258 435 289 436.5 c 128,-1,31
 320 438 320 438 349 439 c 1,0,1
348 350 m 0,32,33
 342 356 342 356 340 359 c 0,34,35
 320 359 320 359 299 358 c 128,-1,36
 278 357 278 357 257 353.5 c 128,-1,37
 236 350 236 350 217 341.5 c 128,-1,38
 198 333 198 333 183 318 c 0,39,40
 164 297 164 297 151.5 261 c 128,-1,41
 139 225 139 225 139 188 c 0,42,43
 139 150 139 150 153.5 119 c 128,-1,44
 168 88 168 88 203 78 c 0,45,46
 220 74 220 74 236 74 c 0,47,48
 249 74 249 74 263 77 c 0,49,50
 292 83 292 83 317.5 99.5 c 128,-1,51
 343 116 343 116 362.5 141 c 128,-1,52
 382 166 382 166 392.5 194.5 c 128,-1,53
 403 223 403 223 403 253 c 256,54,55
 403 283 403 283 389 310 c 0,56,57
 382 324 382 324 370.5 333 c 128,-1,58
 359 342 359 342 348 350 c 0,32,33
EndSplineSet
Validated: 1
EndChar

StartChar: one
Encoding: 49 49 20
Width: 379
GlyphClass: 1
Flags: W
LayerCount: 2
Fore
SplineSet
80 343 m 1,0,1
 57 346 57 346 44 359.5 c 128,-1,2
 31 373 31 373 30 390 c 0,3,4
 28 392 28 392 28 395 c 0,5,6
 28 408 28 408 38 422 c 0,7,8
 47 438 47 438 69 446 c 1,9,10
 99 450 99 450 123 468 c 128,-1,11
 147 486 147 486 169 503.5 c 128,-1,12
 191 521 191 521 214 533 c 0,13,14
 226 538 226 538 240 538 c 0,15,16
 252 538 252 538 264 534 c 0,17,18
 278 525 278 525 283 517 c 128,-1,19
 288 509 288 509 292 494 c 0,20,21
 302 459 302 459 302 424 c 2,22,-1
 302 352 l 2,23,24
 300 270 300 270 297.5 187.5 c 128,-1,25
 295 105 295 105 292 23 c 0,26,27
 291 -4 291 -4 276 -18.5 c 128,-1,28
 261 -33 261 -33 243 -33 c 1,29,-1
 242 -34 l 1,30,31
 224 -34 224 -34 209 -21 c 0,32,33
 192 -9 192 -9 190 18 c 0,34,35
 191 82 191 82 193 145 c 128,-1,36
 195 208 195 208 196 270 c 0,37,38
 198 300 198 300 200 330 c 2,39,-1
 200 390 l 1,40,41
 143 351 143 351 80 343 c 1,0,1
EndSplineSet
Validated: 1
EndChar

StartChar: two
Encoding: 50 50 21
Width: 576
GlyphClass: 1
Flags: W
LayerCount: 2
Fore
SplineSet
25 91 m 0,0,1
 43 104 43 104 87 110 c 0,2,3
 89 112 89 112 91 112 c 0,4,5
 115 137 115 137 144.5 154.5 c 128,-1,6
 174 172 174 172 203.5 188.5 c 128,-1,7
 233 205 233 205 261 225 c 0,8,9
 339 280 339 280 339 341 c 2,10,-1
 339 354 l 2,11,12
 337 372 337 372 334 385 c 128,-1,13
 331 398 331 398 328 414 c 0,14,15
 323 448 323 448 258 450 c 2,16,-1
 253 450 l 2,17,18
 189 450 189 450 136 418 c 0,19,20
 109 402 109 402 99 378 c 1,21,22
 78 354 78 354 59 354 c 0,23,24
 23 354 23 354 9 384 c 0,25,26
 2 395 2 395 2 405.5 c 128,-1,27
 2 416 2 416 3 424 c 0,28,29
 25 471 25 471 77 504 c 0,30,31
 157 553 157 553 249 553 c 0,32,33
 354 553 354 553 403 493 c 0,34,35
 443 442 443 442 443 347 c 0,36,37
 443 233 443 233 334 152 c 0,38,39
 295 123 295 123 250 95 c 1,40,-1
 454 95 l 1,41,42
 498 83 498 83 498 44 c 2,43,-1
 498 41 l 2,44,45
 497 24 497 24 484.5 9.5 c 128,-1,46
 472 -5 472 -5 448 -9 c 1,47,-1
 64 -9 l 1,48,-1
 63 -10 l 1,49,50
 44 -10 44 -10 21 3 c 1,51,52
 0 25 0 25 0 47.5 c 128,-1,53
 0 70 0 70 25 91 c 0,0,1
EndSplineSet
Validated: 1
EndChar

StartChar: three
Encoding: 51 51 22
Width: 463
GlyphClass: 1
Flags: W
LayerCount: 2
Fore
SplineSet
156 485 m 2,0,1
 146 473 146 473 134 471 c 0,2,3
 129 470 129 470 126 470 c 0,4,5
 118 470 118 470 112 473 c 0,6,7
 103 478 103 478 98 489 c 0,8,9
 94 496 94 496 94 506 c 0,10,11
 94 510 94 510 94 515 c 0,12,13
 100 528 100 528 110 536.5 c 128,-1,14
 120 545 120 545 132 551 c 128,-1,15
 144 557 144 557 157 561 c 128,-1,16
 170 565 170 565 182 570 c 0,17,18
 202 577 202 577 222 585 c 128,-1,19
 242 593 242 593 265 595 c 0,20,21
 271 595 271 595 277 595 c 0,22,23
 287 595 287 595 299 594 c 0,24,25
 316 590 316 590 328 579 c 0,26,27
 350 561 350 561 361.5 543.5 c 128,-1,28
 373 526 373 526 377 507 c 0,29,30
 377 499 377 499 377 491 c 0,31,32
 377 479 377 479 375 466 c 0,33,34
 371 445 371 445 362 418 c 0,35,36
 355 400 355 400 345 382 c 128,-1,37
 335 364 335 364 322 347 c 1,38,39
 345 341 345 341 363.5 326 c 128,-1,40
 382 311 382 311 394 282 c 0,41,42
 400 268 400 268 404.5 248.5 c 128,-1,43
 409 229 409 229 412 210 c 0,44,45
 412 200 412 200 412 192 c 0,46,47
 412 181 412 181 411 170 c 0,48,49
 408 152 408 152 399 137 c 0,50,51
 389 121 389 121 370.5 104 c 128,-1,52
 352 87 352 87 329 72.5 c 128,-1,53
 306 58 306 58 280 47 c 128,-1,54
 254 36 254 36 229 31 c 0,55,56
 210 28 210 28 191 28 c 2,57,-1
 180 28 l 2,58,59
 156 29 156 29 137 40 c 0,60,61
 123 50 123 50 113 65.5 c 128,-1,62
 103 81 103 81 93 95 c 0,63,64
 88 105 88 105 88 114 c 0,65,66
 88 117 88 117 88 121 c 0,67,68
 91 133 91 133 99 139.5 c 128,-1,69
 107 146 107 146 120 147 c 2,70,-1
 121 147 l 2,71,72
 133 147 133 147 145 139 c 0,73,74
 152 130 152 130 157 121 c 128,-1,75
 162 112 162 112 169 105 c 0,76,77
 170 103 170 103 177 98 c 0,78,79
 186 96 186 96 190 96 c 0,80,81
 205 97 205 97 218 100.5 c 128,-1,82
 231 104 231 104 244 108 c 256,83,84
 257 112 257 112 270.5 118 c 128,-1,85
 284 124 284 124 297 132 c 128,-1,86
 310 140 310 140 320.5 149 c 128,-1,87
 331 158 331 158 338 170 c 0,88,89
 342 176 342 176 342 187 c 2,90,-1
 342 189 l 2,91,92
 341 201 341 201 341 206 c 0,93,94
 338 235 338 235 330.5 252.5 c 128,-1,95
 323 270 323 270 311 278 c 0,96,97
 301 283 301 283 288 283 c 2,98,-1
 282 283 l 2,99,100
 266 282 266 282 247 274 c 1,101,102
 232 262 232 262 217 253 c 0,103,104
 204 246 204 246 194 246 c 2,105,-1
 191 246 l 2,106,107
 159 249 159 249 156 281 c 1,108,109
 159 302 159 302 173 311.5 c 128,-1,110
 187 321 187 321 204 328 c 1,111,112
 215 338 215 338 230.5 352.5 c 128,-1,113
 246 367 246 367 261.5 384.5 c 128,-1,114
 277 402 277 402 289 421.5 c 128,-1,115
 301 441 301 441 307 459 c 0,116,117
 310 471 310 471 310 481 c 0,118,119
 310 488 310 488 309 495 c 0,120,121
 305 512 305 512 287 524 c 0,122,123
 283 527 283 527 277 527 c 256,124,125
 271 527 271 527 264 526 c 0,126,127
 246 522 246 522 225.5 515 c 128,-1,128
 205 508 205 508 186 500 c 128,-1,129
 167 492 167 492 159 488 c 2,130,-1
 156 485 l 2,0,1
EndSplineSet
Validated: 1
EndChar

StartChar: four
Encoding: 52 52 23
Width: 557
GlyphClass: 1
Flags: W
LayerCount: 2
Fore
SplineSet
317 296 m 2,0,1
 320 314 320 314 331 323.5 c 128,-1,2
 342 333 342 333 355 334 c 2,3,-1
 357 334 l 2,4,5
 369 334 369 334 380 326 c 256,6,7
 391 318 391 318 396 300 c 1,8,-1
 396 214 l 1,9,10
 413 213 413 213 429.5 212.5 c 128,-1,11
 446 212 446 212 463 212 c 1,12,13
 481 207 481 207 489 196 c 256,14,15
 497 185 497 185 497 173 c 2,16,-1
 497 171 l 2,17,18
 496 158 496 158 486.5 147 c 128,-1,19
 477 136 477 136 459 133 c 2,20,-1
 428 133 l 2,21,22
 412 133 412 133 396 134 c 1,23,-1
 396 39 l 2,24,25
 395 18 395 18 383.5 7 c 128,-1,26
 372 -4 372 -4 358 -4 c 1,27,-1
 357 -5 l 1,28,29
 343 -5 343 -5 332 5 c 0,30,31
 319 14 319 14 317 35 c 2,32,-1
 317 137 l 1,33,34
 295 138 295 138 274 138 c 0,35,36
 252 138 252 138 231 139 c 0,37,38
 217 140 217 140 202 140 c 0,39,40
 188 140 188 140 173 139 c 2,41,-1
 115 139 l 2,42,43
 97 140 97 140 84 149 c 0,44,45
 73 155 73 155 71 155 c 0,46,47
 60 169 60 169 60 183 c 0,48,49
 60 191 60 191 64 199 c 0,50,51
 65 208 65 208 71 216 c 0,52,53
 96 242 96 242 120 276.5 c 128,-1,54
 144 311 144 311 166.5 348.5 c 128,-1,55
 189 386 189 386 209 423.5 c 128,-1,56
 229 461 229 461 247 491 c 0,57,58
 259 512 259 512 276 539 c 128,-1,59
 293 566 293 566 296 592 c 0,60,61
 295 597 295 597 295 602 c 0,62,63
 295 609 295 609 298 616 c 0,64,65
 302 627 302 627 311.5 634 c 128,-1,66
 321 641 321 641 334 641 c 256,67,68
 347 641 347 641 361 631 c 0,69,70
 376 617 376 617 377 598 c 2,71,-1
 377 593 l 2,72,73
 377 577 377 577 371 559 c 0,74,75
 364 539 364 539 353.5 519.5 c 128,-1,76
 343 500 343 500 336 487 c 0,77,78
 313 441 313 441 286 398 c 128,-1,79
 259 355 259 355 232 310 c 0,80,81
 218 287 218 287 204 265 c 128,-1,82
 190 243 190 243 176 220 c 1,83,84
 199 221 199 221 223 221 c 2,85,-1
 247 221 l 2,86,87
 282 220 282 220 317 218 c 1,88,-1
 317 296 l 2,0,1
71 155 m 1,89,90
 71 154 71 154 72 154 c 1,91,92
 71 154 71 154 71 155 c 1,89,90
EndSplineSet
Validated: 5
EndChar

StartChar: five
Encoding: 53 53 24
Width: 512
GlyphClass: 1
Flags: W
LayerCount: 2
Fore
SplineSet
64 9 m 1,0,-1
 64 16 l 2,1,2
 64 30 64 30 70 40 c 0,3,4
 77 52 77 52 89 57 c 0,5,6
 95 60 95 60 102 60 c 0,7,8
 108 60 108 60 115 58 c 0,9,10
 128 53 128 53 139 38 c 0,11,12
 145 26 145 26 168 18 c 128,-1,13
 191 10 191 10 219 7 c 0,14,15
 237 4 237 4 253 4 c 0,16,17
 263 4 263 4 272 5 c 0,18,19
 297 7 297 7 308 16 c 0,20,21
 323 29 323 29 332.5 44.5 c 128,-1,22
 342 60 342 60 348 76.5 c 128,-1,23
 354 93 354 93 358 111 c 128,-1,24
 362 129 362 129 367 146 c 0,25,26
 369 162 369 162 369 176 c 0,27,28
 369 225 369 225 340 248 c 0,29,30
 310 271 310 271 257 271 c 0,31,32
 242 271 242 271 224 269 c 0,33,34
 209 267 209 267 196 258 c 128,-1,35
 183 249 183 249 170.5 237.5 c 128,-1,36
 158 226 158 226 145 215 c 128,-1,37
 132 204 132 204 117 200 c 0,38,39
 111 199 111 199 105 199 c 0,40,41
 94 199 94 199 86 203 c 0,42,43
 74 209 74 209 64 226 c 0,44,45
 60 236 60 236 60 248 c 0,46,47
 60 252 60 252 61 256 c 0,48,49
 62 272 62 272 65.5 289 c 128,-1,50
 69 306 69 306 74 322 c 128,-1,51
 79 338 79 338 82 350 c 0,52,53
 93 397 93 397 93 444 c 2,54,-1
 93 537 l 2,55,56
 96 551 96 551 103 559.5 c 128,-1,57
 110 568 110 568 120 572 c 0,58,59
 126 575 126 575 132 575 c 0,60,61
 136 575 136 575 139 574 c 0,62,63
 149 572 149 572 157 565 c 1,64,65
 179 564 179 564 210.5 561.5 c 128,-1,66
 242 559 242 559 274 558 c 0,67,68
 290 557 290 557 305 557 c 0,69,70
 321 557 321 557 336 558 c 0,71,72
 365 559 365 559 384 567 c 0,73,74
 395 571 395 571 404 571 c 0,75,76
 412 571 412 571 419 568 c 0,77,78
 433 562 433 562 439 550 c 0,79,80
 443 542 443 542 443 533 c 0,81,82
 443 528 443 528 441 522 c 0,83,84
 437 506 437 506 419 495 c 0,85,86
 394 484 394 484 363 481 c 0,87,88
 336 477 336 477 308 477 c 0,89,90
 304 477 304 477 300 478 c 0,91,92
 267 478 267 478 234 480.5 c 128,-1,93
 201 483 201 483 172 485 c 1,94,-1
 172 462 l 2,95,96
 172 434 172 434 171 406 c 0,97,98
 168 367 168 367 159 328 c 0,99,100
 157 322 157 322 157 321 c 1,101,102
 171 332 171 332 190 340 c 128,-1,103
 209 348 209 348 244 350 c 0,104,105
 252 351 252 351 260 351 c 0,106,107
 277 351 277 351 294 348 c 0,108,109
 319 344 319 344 342 334 c 0,110,111
 371 322 371 322 399 302 c 128,-1,112
 427 282 427 282 438 251 c 0,113,114
 452 216 452 216 452 175 c 0,115,116
 452 133 452 133 441 92.5 c 128,-1,117
 430 52 430 52 408.5 15 c 128,-1,118
 387 -22 387 -22 359 -47 c 0,119,120
 336 -68 336 -68 299 -73 c 0,121,122
 279 -77 279 -77 257 -77 c 0,123,124
 240 -77 240 -77 223 -74 c 0,125,126
 183 -70 183 -70 146.5 -57 c 128,-1,127
 110 -44 110 -44 88 -27 c 0,128,129
 79 -20 79 -20 74 -10 c 128,-1,130
 69 0 69 0 64 9 c 1,0,-1
EndSplineSet
Validated: 1
EndChar

StartChar: six
Encoding: 54 54 25
Width: 545
GlyphClass: 1
Flags: W
LayerCount: 2
Fore
SplineSet
436 581 m 256,0,1
 456 575 456 575 464 562 c 0,2,3
 469 552 469 552 469 542 c 0,4,5
 469 538 469 538 468 534 c 0,6,7
 465 520 465 520 453 511 c 0,8,9
 442 503 442 503 426 503 c 2,10,-1
 419 503 l 2,11,12
 405 506 405 506 387 517 c 128,-1,13
 369 528 369 528 350.5 538.5 c 128,-1,14
 332 549 332 549 314 556 c 0,15,16
 305 559 305 559 298 559 c 0,17,18
 290 559 290 559 283 555 c 0,19,20
 269 547 269 547 254 539.5 c 128,-1,21
 239 532 239 532 227 520 c 0,22,23
 198 490 198 490 178.5 450.5 c 128,-1,24
 159 411 159 411 149 366 c 1,25,26
 169 372 169 372 194.5 375 c 128,-1,27
 220 378 220 378 245 378 c 256,28,29
 270 378 270 378 292 376 c 128,-1,30
 314 374 314 374 328 371 c 256,31,32
 342 368 342 368 358.5 361 c 128,-1,33
 375 354 375 354 385 349 c 0,34,35
 398 343 398 343 410 333 c 128,-1,36
 422 323 422 323 432.5 310 c 128,-1,37
 443 297 443 297 451.5 283.5 c 128,-1,38
 460 270 460 270 466 257 c 0,39,40
 478 230 478 230 483 197 c 0,41,42
 485 181 485 181 485 167 c 0,43,44
 485 149 485 149 482 131 c 0,45,46
 476 99 476 99 459.5 71.5 c 128,-1,47
 443 44 443 44 413 28 c 0,48,49
 399 20 399 20 383.5 11.5 c 128,-1,50
 368 3 368 3 351 1 c 0,51,52
 336 0 336 0 320 -3 c 128,-1,53
 304 -6 304 -6 288.5 -8 c 128,-1,54
 273 -10 273 -10 258 -10 c 0,55,56
 257 -11 257 -11 255 -11 c 0,57,58
 242 -11 242 -11 228 -6 c 0,59,60
 180 9 180 9 150.5 34 c 128,-1,61
 121 59 121 59 104 91 c 128,-1,62
 87 123 87 123 78.5 162 c 128,-1,63
 70 201 70 201 63 245 c 0,64,65
 60 267 60 267 60 288 c 0,66,67
 60 335 60 335 74 380 c 0,68,69
 82 406 82 406 90 431.5 c 128,-1,70
 98 457 98 457 107 482 c 0,71,72
 116 508 116 508 133.5 530 c 128,-1,73
 151 552 151 552 167 574 c 0,74,75
 181 594 181 594 204.5 604.5 c 128,-1,76
 228 615 228 615 248 627 c 0,77,78
 270 640 270 640 291 640 c 0,79,80
 295 640 295 640 299 639 c 0,81,82
 324 636 324 636 347.5 625 c 128,-1,83
 371 614 371 614 393.5 600.5 c 128,-1,84
 416 587 416 587 436 581 c 256,0,1
170 289 m 0,85,86
 159 283 159 283 148 283 c 0,87,88
 144 283 144 283 140 284 c 1,89,-1
 140 271 l 2,90,91
 140 215 140 215 156 169 c 0,92,93
 167 134 167 134 191 110.5 c 128,-1,94
 215 87 215 87 246 77 c 0,95,96
 267 69 267 69 290 69 c 0,97,98
 299 69 299 69 310 71 c 0,99,100
 343 75 343 75 374 98 c 0,101,102
 396 115 396 115 403 141 c 0,103,104
 406 154 406 154 406 169 c 0,105,106
 406 181 406 181 404 193 c 0,107,108
 398 220 398 220 383 243.5 c 128,-1,109
 368 267 368 267 347 279 c 0,110,111
 318 296 318 296 286 297 c 2,112,-1
 265 297 l 2,113,114
 243 297 243 297 222 296 c 0,115,116
 220 296 220 296 214 295 c 128,-1,117
 208 294 208 294 200.5 293 c 128,-1,118
 193 292 193 292 184.5 291 c 128,-1,119
 176 290 176 290 170 289 c 0,85,86
EndSplineSet
Validated: 1
EndChar

StartChar: seven
Encoding: 55 55 26
Width: 530
GlyphClass: 1
Flags: W
LayerCount: 2
Fore
SplineSet
100 519 m 0,0,1
 79 521 79 521 70 534 c 0,2,3
 60 545 60 545 60 559 c 1,4,-1
 61 560 l 1,5,6
 61 574 61 574 72 585.5 c 128,-1,7
 83 597 83 597 104 598 c 0,8,9
 171 598 171 598 237 596.5 c 128,-1,10
 303 595 303 595 369 595 c 0,11,12
 385 597 385 597 405 597 c 0,13,14
 424 597 424 597 440 591.5 c 128,-1,15
 456 586 456 586 465 573 c 0,16,17
 470 565 470 565 470 553 c 0,18,19
 470 546 470 546 468 536 c 0,20,21
 464 519 464 519 456 505.5 c 128,-1,22
 448 492 448 492 441 477 c 0,23,24
 423 432 423 432 405.5 387.5 c 128,-1,25
 388 343 388 343 370 297 c 2,26,-1
 337 216 l 2,27,28
 329 196 329 196 321 176 c 128,-1,29
 313 156 313 156 305 136 c 0,30,31
 289 98 289 98 273 61 c 128,-1,32
 257 24 257 24 235 -11 c 0,33,34
 221 -27 221 -27 206 -28 c 0,35,36
 203 -29 203 -29 201 -29 c 0,37,38
 188 -29 188 -29 179 -21 c 0,39,40
 167 -13 167 -13 163 3 c 0,41,42
 162 7 162 7 162 11 c 0,43,44
 162 23 162 23 170 36 c 0,45,46
 190 68 190 68 204.5 102.5 c 128,-1,47
 219 137 219 137 233 171 c 0,48,49
 258 231 258 231 281.5 289.5 c 128,-1,50
 305 348 305 348 328 408 c 0,51,52
 338 434 338 434 347.5 462 c 128,-1,53
 357 490 357 490 371 516 c 1,54,-1
 337 516 l 2,55,56
 277 517 277 517 218.5 518 c 128,-1,57
 160 519 160 519 100 519 c 0,0,1
EndSplineSet
Validated: 1
EndChar

StartChar: eight
Encoding: 56 56 27
Width: 560
GlyphClass: 1
Flags: W
LayerCount: 2
Fore
SplineSet
376 615 m 2,0,-1
 380 615 l 2,1,2
 394 615 394 615 405 609 c 0,3,4
 416 601 416 601 420 590 c 1,5,6
 421 591 421 591 422 591.5 c 128,-1,7
 423 592 423 592 424 593 c 0,8,9
 434 597 434 597 443 597 c 0,10,11
 449 597 449 597 455 595 c 0,12,13
 469 591 469 591 477 581 c 0,14,15
 484 572 484 572 484 558 c 2,16,-1
 484 557 l 2,17,18
 483 542 483 542 471 528 c 0,19,20
 434 498 434 498 405 458 c 128,-1,21
 376 418 376 418 347 380 c 0,22,23
 339 369 339 369 332 360 c 128,-1,24
 325 351 325 351 318 342 c 1,25,26
 343 333 343 333 368.5 322 c 128,-1,27
 394 311 394 311 415.5 297.5 c 128,-1,28
 437 284 437 284 454.5 267 c 128,-1,29
 472 250 472 250 481 227 c 0,30,31
 488 210 488 210 492.5 196.5 c 128,-1,32
 497 183 497 183 499 171 c 0,33,34
 500 161 500 161 500 151 c 2,35,-1
 500 144 l 2,36,37
 499 130 499 130 496 112 c 0,38,39
 492 84 492 84 473 60.5 c 128,-1,40
 454 37 454 37 426 19.5 c 128,-1,41
 398 2 398 2 364 -8 c 128,-1,42
 330 -18 330 -18 297 -19 c 0,43,44
 291 -20 291 -20 285 -20 c 0,45,46
 258 -20 258 -20 233 -14 c 0,47,48
 203 -7 203 -7 182 10 c 0,49,50
 166 23 166 23 156 41.5 c 128,-1,51
 146 60 146 60 141 81 c 128,-1,52
 136 102 136 102 134 124 c 0,53,54
 133 138 133 138 133 151 c 2,55,-1
 133 164 l 2,56,57
 134 192 134 192 142 215 c 128,-1,58
 150 238 150 238 165 261 c 0,59,60
 173 273 173 273 180.5 284.5 c 128,-1,61
 188 296 188 296 196 308 c 1,62,63
 163 324 163 324 134.5 347 c 128,-1,64
 106 370 106 370 86 407 c 1,65,66
 60 433 60 433 60 461 c 2,67,-1
 60 466 l 2,68,69
 62 496 62 496 80.5 523.5 c 128,-1,70
 99 551 99 551 127 573 c 128,-1,71
 155 595 155 595 180 607 c 0,72,73
 218 625 218 625 255 631 c 0,74,75
 270 634 270 634 286 634 c 0,76,77
 308 634 308 634 331 629 c 0,78,79
 335 628 335 628 351.5 623 c 128,-1,80
 368 618 368 618 376 615 c 2,0,-1
409 191 m 0,81,82
 390 225 390 225 353 243 c 128,-1,83
 316 261 316 261 271 277 c 1,84,85
 269 273 269 273 266 269.5 c 128,-1,86
 263 266 263 266 260 261 c 0,87,88
 252 249 252 249 238.5 228 c 128,-1,89
 225 207 225 207 217 191 c 0,90,91
 211 178 211 178 211 162 c 0,92,93
 211 158 211 158 212 153 c 0,94,95
 214 131 214 131 216 114 c 0,96,97
 218 103 218 103 221.5 91 c 128,-1,98
 225 79 225 79 233 71 c 0,99,100
 244 59 244 59 266 57 c 0,101,102
 273 56 273 56 281 56 c 0,103,104
 296 56 296 56 312 59 c 0,105,106
 336 63 336 63 359.5 74.5 c 128,-1,107
 383 86 383 86 399 103 c 128,-1,108
 415 120 415 120 419 143 c 0,109,110
 420 148 420 148 420 153 c 0,111,112
 420 171 420 171 409 191 c 0,81,82
282 426 m 0,113,114
 302 453 302 453 323 481 c 128,-1,115
 344 509 344 509 367 535 c 1,116,117
 344 536 344 536 326.5 543 c 128,-1,118
 309 550 309 550 290 553 c 0,119,120
 284 554 284 554 277 554 c 0,121,122
 263 554 263 554 247 550 c 0,123,124
 222 543 222 543 185 518 c 0,125,126
 179 514 179 514 170.5 508 c 128,-1,127
 162 502 162 502 155 494.5 c 128,-1,128
 148 487 148 487 145 479 c 0,129,130
 143 475 143 475 143 470 c 0,131,132
 143 466 143 466 145 461 c 0,133,134
 163 443 163 443 173 424 c 128,-1,135
 183 405 183 405 207 390 c 0,136,137
 215 385 215 385 223.5 381 c 128,-1,138
 232 377 232 377 241 372 c 1,139,140
 251 386 251 386 261 399 c 128,-1,141
 271 412 271 412 282 426 c 0,113,114
EndSplineSet
Validated: 1
EndChar

StartChar: nine
Encoding: 57 57 28
Width: 514
GlyphClass: 1
Flags: W
LayerCount: 2
Fore
SplineSet
445 484 m 2,0,1
 446 483 446 483 446.5 482 c 128,-1,2
 447 481 447 481 448 480 c 0,3,4
 454 471 454 471 454 459 c 256,5,6
 454 447 454 447 450 436 c 0,7,8
 449 434 449 434 447.5 429.5 c 128,-1,9
 446 425 446 425 445 422 c 0,10,11
 443 416 443 416 441.5 409.5 c 128,-1,12
 440 403 440 403 438 397 c 0,13,14
 436 388 436 388 432.5 370.5 c 128,-1,15
 429 353 429 353 426 334 c 128,-1,16
 423 315 423 315 420 298 c 128,-1,17
 417 281 417 281 416 273 c 0,18,19
 411 240 411 240 407 205.5 c 128,-1,20
 403 171 403 171 398.5 136.5 c 128,-1,21
 394 102 394 102 387.5 68 c 128,-1,22
 381 34 381 34 370 2 c 0,23,24
 363 -18 363 -18 349 -24 c 0,25,26
 340 -29 340 -29 331 -29 c 0,27,28
 326 -29 326 -29 321 -27 c 0,29,30
 307 -23 307 -23 298 -9 c 0,31,32
 292 0 292 0 292 12 c 0,33,34
 292 18 292 18 293 24 c 0,35,36
 312 79 312 79 318.5 138.5 c 128,-1,37
 325 198 325 198 333 255 c 1,38,39
 316 236 316 236 296.5 221.5 c 128,-1,40
 277 207 277 207 257 199 c 0,41,42
 222 185 222 185 194 185 c 0,43,44
 187 185 187 185 181 186 c 0,45,46
 147 190 147 190 123.5 208.5 c 128,-1,47
 100 227 100 227 85 256.5 c 128,-1,48
 70 286 70 286 64 321 c 0,49,50
 60 346 60 346 60 371 c 0,51,52
 60 382 60 382 61 393 c 0,53,54
 63 429 63 429 74 462 c 0,55,56
 80 480 80 480 89 500 c 128,-1,57
 98 520 98 520 109.5 538 c 128,-1,58
 121 556 121 556 135.5 571.5 c 128,-1,59
 150 587 150 587 167 597 c 0,60,61
 210 624 210 624 257 631 c 0,62,63
 272 633 272 633 287 633 c 0,64,65
 316 633 316 633 343 624 c 0,66,67
 382 610 382 610 410 575.5 c 128,-1,68
 438 541 438 541 445 486 c 1,69,-1
 445 484 l 2,0,1
321 375 m 0,70,71
 336 396 336 396 347 419 c 128,-1,72
 358 442 358 442 369 466 c 0,73,74
 367 468 367 468 367 469 c 0,75,76
 365 487 365 487 364.5 496 c 128,-1,77
 364 505 364 505 355 519 c 0,78,79
 341 542 341 542 318 549 c 0,80,81
 303 554 303 554 287 554 c 0,82,83
 279 554 279 554 271 553 c 0,84,85
 246 549 246 549 223 536 c 128,-1,86
 200 523 200 523 187 506 c 0,87,88
 172 487 172 487 158.5 459.5 c 128,-1,89
 145 432 145 432 139 403 c 0,90,91
 135 383 135 383 135 363 c 0,92,93
 135 353 135 353 136 344 c 0,94,95
 139 314 139 314 156 292 c 0,96,97
 164 282 164 282 175 273 c 0,98,99
 185 264 185 264 197 264 c 2,100,-1
 200 264 l 2,101,102
 219 266 219 266 237 278.5 c 128,-1,103
 255 291 255 291 270.5 307.5 c 128,-1,104
 286 324 286 324 299 342.5 c 128,-1,105
 312 361 312 361 321 375 c 0,70,71
EndSplineSet
Validated: 1
EndChar

StartChar: colon
Encoding: 58 58 29
Width: 237
GlyphClass: 1
Flags: W
LayerCount: 2
Fore
SplineSet
83 94 m 0,0,1
 92 101 92 101 104 105 c 0,2,3
 109 109 109 109 116 111.5 c 128,-1,4
 123 114 123 114 132 114 c 0,5,6
 155 111 155 111 165.5 97.5 c 128,-1,7
 176 84 176 84 177 67 c 2,8,-1
 177 65 l 2,9,10
 177 49 177 49 169 33 c 0,11,12
 160 15 160 15 146.5 4 c 128,-1,13
 133 -7 133 -7 115 -9 c 2,14,-1
 110 -9 l 2,15,16
 95 -9 95 -9 78 3 c 0,17,18
 65 13 65 13 62 28 c 0,19,20
 60 35 60 35 60 43 c 0,21,22
 60 50 60 50 61 57 c 0,23,24
 64 69 64 69 69.5 77 c 128,-1,25
 75 85 75 85 83 94 c 0,0,1
109 453 m 0,26,27
 124 453 124 453 135 447 c 0,28,29
 141 447 141 447 144 446 c 0,30,31
 166 438 166 438 172 420 c 0,32,33
 174 411 174 411 174 402 c 0,34,35
 174 392 174 392 171 383 c 0,36,37
 165 364 165 364 149.5 350 c 128,-1,38
 134 336 134 336 113 336 c 0,39,40
 86 337 86 337 74 353 c 0,41,42
 61 368 61 368 61 387 c 0,43,44
 61 388 61 388 62 389 c 0,45,46
 62 409 62 409 74.5 428 c 128,-1,47
 87 447 87 447 109 453 c 0,26,27
EndSplineSet
Validated: 1
EndChar

StartChar: semicolon
Encoding: 59 59 30
Width: 242
GlyphClass: 1
Flags: W
LayerCount: 2
Fore
SplineSet
87 44 m 2,0,1
 87 55 87 55 93 64 c 0,2,3
 101 75 101 75 113 80 c 0,4,5
 119 82 119 82 126 82 c 0,6,7
 132 82 132 82 139 80 c 0,8,9
 152 76 152 76 162 61 c 0,10,11
 168 51 168 51 168 36 c 2,12,-1
 168 32 l 2,13,14
 167 14 167 14 161.5 -4.5 c 128,-1,15
 156 -23 156 -23 148 -40 c 128,-1,16
 140 -57 140 -57 133 -68 c 0,17,18
 120 -83 120 -83 105 -85 c 2,19,-1
 98 -85 l 2,20,21
 87 -85 87 -85 78 -79 c 0,22,23
 67 -72 67 -72 62 -58 c 0,24,25
 60 -53 60 -53 60 -47 c 0,26,27
 60 -37 60 -37 65 -27 c 1,28,-1
 64 -27 l 1,29,30
 64 -26 64 -26 66 -23 c 0,31,32
 70 -17 70 -17 71 -14 c 0,33,34
 76 -3 76 -3 80 9 c 128,-1,35
 84 21 84 21 87 33 c 2,36,-1
 87 44 l 2,0,1
87 429 m 1,37,38
 108 437 108 437 128 438 c 0,39,40
 135 441 135 441 143 441 c 256,41,42
 151 441 151 441 160 438 c 0,43,44
 176 430 176 430 182 408 c 1,45,46
 182 388 182 388 175 376.5 c 128,-1,47
 168 365 168 365 156.5 359 c 128,-1,48
 145 353 145 353 130 352 c 2,49,-1
 120 352 l 2,50,51
 109 352 109 352 98 353 c 0,52,53
 87 358 87 358 81.5 363.5 c 128,-1,54
 76 369 76 369 71 380 c 0,55,56
 70 381 70 381 70 382 c 2,57,-1
 69 383 l 2,58,59
 68 389 68 389 68 394 c 0,60,61
 68 403 68 403 71 410 c 0,62,63
 75 419 75 419 87 429 c 1,37,38
EndSplineSet
Validated: 1
EndChar

StartChar: less
Encoding: 60 60 31
Width: 490
GlyphClass: 1
Flags: W
LayerCount: 2
Fore
SplineSet
66 299 m 0,0,1
 60 311 60 311 60 322 c 0,2,3
 60 327 60 327 61 332 c 0,4,5
 60 337 60 337 60 343 c 256,6,7
 60 349 60 349 61 356 c 0,8,9
 82 395 82 395 120 421 c 128,-1,10
 158 447 158 447 201.5 466.5 c 128,-1,11
 245 486 245 486 290 504 c 128,-1,12
 335 522 335 522 370 546 c 0,13,14
 380 550 380 550 389 550 c 0,15,16
 395 550 395 550 401 548 c 0,17,18
 415 544 415 544 423 534 c 0,19,20
 430 525 430 525 430 511 c 2,21,-1
 430 510 l 2,22,23
 429 495 429 495 417 481 c 1,24,25
 394 465 394 465 355 447.5 c 128,-1,26
 316 430 316 430 275 411 c 128,-1,27
 234 392 234 392 197.5 372.5 c 128,-1,28
 161 353 161 353 143 334 c 1,29,30
 155 324 155 324 168.5 315 c 128,-1,31
 182 306 182 306 194 297 c 0,32,33
 245 258 245 258 297.5 221.5 c 128,-1,34
 350 185 350 185 402 147 c 1,35,36
 412 133 412 133 412 119 c 2,37,-1
 412 118 l 2,38,39
 411 103 411 103 403 93.5 c 128,-1,40
 395 84 395 84 381 81 c 0,41,42
 377 80 377 80 373 80 c 0,43,44
 363 80 363 80 351 86 c 0,45,46
 298 124 298 124 245.5 160.5 c 128,-1,47
 193 197 193 197 142 236 c 0,48,49
 123 251 123 251 102.5 265 c 128,-1,50
 82 279 82 279 66 299 c 0,0,1
EndSplineSet
Validated: 1
EndChar

StartChar: equal
Encoding: 61 61 32
Width: 622
GlyphClass: 1
Flags: W
LayerCount: 2
Fore
SplineSet
100 387 m 2,0,1
 79 389 79 389 70 402 c 0,2,3
 60 413 60 413 60 427 c 1,4,-1
 61 428 l 1,5,6
 61 442 61 442 72 453.5 c 128,-1,7
 83 465 83 465 104 466 c 2,8,-1
 514 466 l 1,9,10
 532 461 532 461 540 450 c 256,11,12
 548 439 548 439 548 427 c 2,13,-1
 548 425 l 2,14,15
 547 412 547 412 537.5 401 c 128,-1,16
 528 390 528 390 510 387 c 2,17,-1
 100 387 l 2,0,1
117 224 m 0,18,19
 96 226 96 226 87 239 c 0,20,21
 77 250 77 250 77 264 c 1,22,-1
 78 265 l 1,23,24
 78 279 78 279 89 290.5 c 128,-1,25
 100 302 100 302 121 303 c 0,26,27
 224 302 224 302 324.5 295 c 128,-1,28
 425 288 425 288 528 286 c 1,29,30
 546 281 546 281 554 270 c 256,31,32
 562 259 562 259 562 247 c 2,33,-1
 562 245 l 2,34,35
 561 232 561 232 551.5 221 c 128,-1,36
 542 210 542 210 524 207 c 0,37,38
 422 208 422 208 321 215.5 c 128,-1,39
 220 223 220 223 117 224 c 0,18,19
EndSplineSet
Validated: 1
EndChar

StartChar: greater
Encoding: 62 62 33
Width: 493
GlyphClass: 1
Flags: W
LayerCount: 2
Fore
SplineSet
60 537 m 2,0,1
 63 554 63 554 73 563 c 128,-1,2
 83 572 83 572 95 574 c 0,3,4
 98 575 98 575 101 575 c 0,5,6
 109 575 109 575 117 571 c 0,7,8
 128 565 128 565 134 553 c 0,9,10
 136 549 136 549 138.5 545 c 128,-1,11
 141 541 141 541 143 539 c 0,12,13
 156 523 156 523 169.5 507.5 c 128,-1,14
 183 492 183 492 199 479 c 256,15,16
 215 466 215 466 239.5 445 c 128,-1,17
 264 424 264 424 290.5 402 c 128,-1,18
 317 380 317 380 343 361 c 128,-1,19
 369 342 369 342 390 334 c 1,20,21
 412 333 412 333 424 321 c 0,22,23
 433 311 433 311 433 298 c 2,24,-1
 433 290 l 2,25,26
 433 278 433 278 425 268 c 0,27,28
 416 257 416 257 400 254 c 0,29,30
 367 242 367 242 331 219.5 c 128,-1,31
 295 197 295 197 260 170.5 c 128,-1,32
 225 144 225 144 193 116 c 128,-1,33
 161 88 161 88 136 64 c 0,34,35
 122 56 122 56 110 56 c 0,36,37
 108 56 108 56 106 57 c 0,38,39
 91 58 91 58 82 67 c 128,-1,40
 73 76 73 76 72 91 c 0,41,42
 71 93 71 93 71 95 c 0,43,44
 71 107 71 107 79 121 c 1,45,46
 102 142 102 142 128.5 165 c 128,-1,47
 155 188 155 188 183.5 211 c 128,-1,48
 212 234 212 234 242 255.5 c 128,-1,49
 272 277 272 277 302 295 c 1,50,51
 300 297 300 297 298 298 c 128,-1,52
 296 299 296 299 294 301 c 0,53,54
 286 308 286 308 277 314 c 128,-1,55
 268 320 268 320 260 327 c 256,56,57
 252 334 252 334 233.5 348 c 128,-1,58
 215 362 215 362 192.5 380.5 c 128,-1,59
 170 399 170 399 145.5 420.5 c 128,-1,60
 121 442 121 442 101.5 463.5 c 128,-1,61
 82 485 82 485 70 504 c 0,62,63
 60 520 60 520 60 533 c 2,64,-1
 60 537 l 2,0,1
EndSplineSet
Validated: 1
EndChar

StartChar: question
Encoding: 63 63 34
Width: 412
GlyphClass: 1
Flags: W
LayerCount: 2
Fore
SplineSet
104 550 m 2,0,1
 102 550 102 550 101 551 c 0,2,3
 86 551 86 551 76 558.5 c 128,-1,4
 66 566 66 566 62 577 c 0,5,6
 60 583 60 583 60 589 c 256,7,8
 60 595 60 595 62 601 c 0,9,10
 65 613 65 613 78 624 c 1,11,12
 94 630 94 630 111 630 c 0,13,14
 121 630 121 630 132 628 c 0,15,16
 161 622 161 622 186 616 c 0,17,18
 231 606 231 606 261 594.5 c 128,-1,19
 291 583 291 583 309.5 564 c 128,-1,20
 328 545 328 545 337.5 514.5 c 128,-1,21
 347 484 347 484 351 436 c 0,22,23
 352 431 352 431 352 425 c 0,24,25
 352 414 352 414 350 403 c 0,26,27
 346 384 346 384 338 371 c 0,28,29
 325 352 325 352 309 337 c 0,30,31
 300 329 300 329 286 323.5 c 128,-1,32
 272 318 272 318 258.5 311.5 c 128,-1,33
 245 305 245 305 233.5 296.5 c 128,-1,34
 222 288 222 288 218 275 c 0,35,36
 215 267 215 267 214.5 257.5 c 128,-1,37
 214 248 214 248 212 239 c 0,38,39
 206 222 206 222 194 215 c 0,40,41
 183 208 183 208 173 208 c 0,42,43
 171 208 171 208 169 209 c 0,44,45
 156 210 156 210 145.5 220 c 128,-1,46
 135 230 135 230 133 248 c 1,47,48
 138 279 138 279 145 307 c 128,-1,49
 152 335 152 335 179 355 c 0,50,51
 188 361 188 361 201 366.5 c 128,-1,52
 214 372 214 372 227.5 378.5 c 128,-1,53
 241 385 241 385 252 393 c 128,-1,54
 263 401 263 401 267 411 c 0,55,56
 272 424 272 424 272 437 c 2,57,-1
 272 446 l 2,58,59
 269 464 269 464 266 480 c 0,60,61
 263 501 263 501 249.5 512 c 128,-1,62
 236 523 236 523 218 529 c 128,-1,63
 200 535 200 535 180.5 537.5 c 128,-1,64
 161 540 161 540 146 543 c 0,65,66
 135 545 135 545 127 546.5 c 128,-1,67
 119 548 119 548 109 550 c 2,68,-1
 104 550 l 2,0,1
137 18 m 0,69,70
 131 29 131 29 131 40 c 0,71,72
 131 43 131 43 132 46 c 0,73,74
 134 59 134 59 142 67 c 1,75,76
 147 82 147 82 158 90 c 0,77,78
 168 97 168 97 180 97 c 2,79,-1
 181 97 l 2,80,81
 193 96 193 96 203.5 87.5 c 128,-1,82
 214 79 214 79 219 63 c 1,83,-1
 219 45 l 2,84,85
 219 35 219 35 217 26 c 0,86,87
 213 15 213 15 208.5 9 c 128,-1,88
 204 3 204 3 193 -4 c 0,89,90
 192 -4 192 -4 191.5 -4.5 c 128,-1,91
 191 -5 191 -5 189 -5 c 0,92,93
 181 -6 181 -6 175 -6 c 0,94,95
 168 -6 168 -6 164 -5 c 0,96,97
 154 -2 154 -2 142 9 c 0,98,99
 141 12 141 12 137 18 c 0,69,70
EndSplineSet
Validated: 1
EndChar

StartChar: at
Encoding: 64 64 35
Width: 811
GlyphClass: 1
Flags: W
LayerCount: 2
Fore
SplineSet
396 293 m 1,0,1
 380 291 380 291 367.5 284.5 c 128,-1,2
 355 278 355 278 342 271 c 1,3,4
 337 260 337 260 325 254 c 0,5,6
 316 249 316 249 304 249 c 2,7,-1
 296 249 l 2,8,9
 295 250 295 250 293 250 c 0,10,11
 283 255 283 255 277.5 260.5 c 128,-1,12
 272 266 272 266 266 277 c 0,13,14
 265 281 265 281 265 285 c 0,15,16
 265 303 265 303 276 319 c 0,17,18
 289 337 289 337 310 349 c 128,-1,19
 331 361 331 361 356 368 c 0,20,21
 377 373 377 373 394 373 c 2,22,-1
 399 373 l 2,23,24
 414 372 414 372 430.5 366 c 128,-1,25
 447 360 447 360 459 355 c 0,26,27
 490 341 490 341 506.5 315 c 128,-1,28
 523 289 523 289 530 256.5 c 128,-1,29
 537 224 537 224 538 190 c 0,30,31
 539 173 539 173 539 157 c 256,32,33
 539 141 539 141 538 126 c 1,34,35
 558 131 558 131 574.5 140.5 c 128,-1,36
 591 150 591 150 608 164 c 0,37,38
 629 182 629 182 645 212 c 128,-1,39
 661 242 661 242 668 276 c 0,40,41
 673 298 673 298 673 320 c 0,42,43
 673 331 673 331 672 342 c 0,44,45
 668 375 668 375 650 398 c 0,46,47
 636 416 636 416 617 429 c 128,-1,48
 598 442 598 442 576 451 c 128,-1,49
 554 460 554 460 531.5 466.5 c 128,-1,50
 509 473 509 473 488 479 c 0,51,52
 457 488 457 488 425 495 c 0,53,54
 406 499 406 499 388 499 c 0,55,56
 374 499 374 499 361 497 c 0,57,58
 319 491 319 491 282.5 463.5 c 128,-1,59
 246 436 246 436 217 396.5 c 128,-1,60
 188 357 188 357 169.5 308.5 c 128,-1,61
 151 260 151 260 146 212 c 0,62,63
 144 195 144 195 144 179 c 0,64,65
 144 147 144 147 151 118 c 0,66,67
 161 72 161 72 190 38 c 0,68,69
 217 7 217 7 259.5 -7.5 c 128,-1,70
 302 -22 302 -22 349 -27 c 0,71,72
 385 -31 385 -31 421 -31 c 0,73,74
 432 -31 432 -31 443 -30 c 0,75,76
 490 -29 490 -29 527 -29 c 1,77,78
 545 -34 545 -34 553 -45 c 256,79,80
 561 -56 561 -56 561 -68 c 2,81,-1
 561 -70 l 2,82,83
 560 -83 560 -83 550.5 -94 c 128,-1,84
 541 -105 541 -105 523 -108 c 0,85,86
 482 -108 482 -108 436 -109 c 0,87,88
 423 -110 423 -110 411 -110 c 0,89,90
 377 -110 377 -110 344 -107 c 0,91,92
 298 -103 298 -103 255 -90.5 c 128,-1,93
 212 -78 212 -78 176 -52 c 0,94,95
 122 -13 122 -13 94 42.5 c 128,-1,96
 66 98 66 98 61 160 c 0,97,98
 60 173 60 173 60 187 c 0,99,100
 60 235 60 235 73 284 c 0,101,102
 90 346 90 346 126 399 c 0,103,104
 150 433 150 433 176.5 469.5 c 128,-1,105
 203 506 203 506 240 528 c 0,106,107
 268 545 268 545 291.5 557.5 c 128,-1,108
 315 570 315 570 345 575 c 0,109,110
 367 579 367 579 388 579 c 0,111,112
 411 579 411 579 433 575 c 0,113,114
 475 566 475 566 517 554 c 0,115,116
 564 540 564 540 607.5 522 c 128,-1,117
 651 504 651 504 684 476 c 128,-1,118
 717 448 717 448 736 408 c 0,119,120
 751 374 751 374 751 330 c 0,121,122
 751 320 751 320 750 310 c 0,123,124
 748 280 748 280 744 251 c 128,-1,125
 740 222 740 222 726 194 c 0,126,127
 706 156 706 156 677.5 120 c 128,-1,128
 649 84 649 84 607 67 c 0,129,130
 566 51 566 51 527.5 46 c 128,-1,131
 489 41 489 41 445 41 c 0,132,133
 416 41 416 41 388 42.5 c 128,-1,134
 360 44 360 44 331 49 c 0,135,136
 296 55 296 55 272 73 c 128,-1,137
 248 91 248 91 239 116 c 0,138,139
 234 130 234 130 234 144 c 0,140,141
 234 157 234 157 238 170 c 0,142,143
 245 198 245 198 271 224 c 0,144,145
 284 237 284 237 300.5 243.5 c 128,-1,146
 317 250 317 250 335 252.5 c 128,-1,147
 353 255 353 255 371 255 c 256,148,149
 389 255 389 255 406 254 c 0,150,151
 412 253 412 253 418 253 c 0,152,153
 422 253 422 253 425 254 c 2,154,-1
 429 254 l 2,155,156
 437 254 437 254 445 252 c 1,157,158
 431 280 431 280 396 293 c 1,0,1
458 118 m 1,159,160
 459 129 459 129 459.5 140.5 c 128,-1,161
 460 152 460 152 460 163 c 1,162,163
 452 165 452 165 447 169 c 0,164,165
 439 173 439 173 435 173 c 0,166,167
 433 174 433 174 430 174 c 2,168,-1
 426 174 l 2,169,170
 424 173 424 173 423 173 c 0,171,172
 420 173 420 173 419 174 c 2,173,-1
 417 174 l 2,174,175
 409 174 409 174 402 174.5 c 128,-1,176
 395 175 395 175 387 175 c 2,177,-1
 363 175 l 2,178,179
 350 175 350 175 338.5 171.5 c 128,-1,180
 327 168 327 168 321 160 c 0,181,182
 316 154 316 154 316 144 c 0,183,184
 316 139 316 139 317 134 c 1,185,186
 327 129 327 129 343.5 125.5 c 128,-1,187
 360 122 360 122 378.5 120.5 c 128,-1,188
 397 119 397 119 417.5 118.5 c 128,-1,189
 438 118 438 118 458 118 c 1,159,160
EndSplineSet
Validated: 1
EndChar

StartChar: A
Encoding: 65 65 36
Width: 610
GlyphClass: 1
Flags: W
LayerCount: 2
Fore
SplineSet
224 163 m 1,0,1
 206 122 206 122 184 83.5 c 128,-1,2
 162 45 162 45 133 10 c 0,3,4
 119 -6 119 -6 104 -7 c 0,5,6
 101 -8 101 -8 99 -8 c 0,7,8
 86 -8 86 -8 77 0 c 0,9,10
 65 8 65 8 61 24 c 0,11,12
 60 28 60 28 60 32 c 0,13,14
 60 44 60 44 68 57 c 0,15,16
 101 98 101 98 125 143 c 128,-1,17
 149 188 149 188 168.5 235.5 c 128,-1,18
 188 283 188 283 203.5 332.5 c 128,-1,19
 219 382 219 382 235 431 c 0,20,21
 245 463 245 463 255 494 c 128,-1,22
 265 525 265 525 275 556 c 0,23,24
 279 569 279 569 281.5 581.5 c 128,-1,25
 284 594 284 594 288.5 604.5 c 128,-1,26
 293 615 293 615 301 623 c 128,-1,27
 309 631 309 631 325 636 c 1,28,-1
 330 636 l 1,29,30
 339 642 339 642 349 642 c 0,31,32
 356 642 356 642 364 639 c 0,33,34
 382 632 382 632 389 608 c 1,35,36
 394 566 394 566 404 525 c 128,-1,37
 414 484 414 484 427.5 444 c 128,-1,38
 441 404 441 404 456 364.5 c 128,-1,39
 471 325 471 325 486 286 c 0,40,41
 509 226 509 226 530 167 c 0,42,43
 548 113 548 113 548 55 c 2,44,-1
 548 41 l 2,45,46
 550 34 550 34 550 27 c 0,47,48
 550 21 550 21 549 17 c 0,49,50
 546 5 546 5 538 -2.5 c 128,-1,51
 530 -10 530 -10 518 -11 c 0,52,53
 515 -12 515 -12 513 -12 c 0,54,55
 502 -12 502 -12 490 -6 c 0,56,57
 477 5 477 5 471 18 c 0,58,59
 467 27 467 27 467 38 c 0,60,61
 467 43 467 43 468 48 c 0,62,63
 469 57 469 57 469 65 c 256,64,65
 469 73 469 73 468 79 c 0,66,67
 466 96 466 96 462 113 c 128,-1,68
 458 130 458 130 452 147 c 0,69,70
 450 153 450 153 449 157 c 0,71,72
 393 158 393 158 337.5 160 c 128,-1,73
 282 162 282 162 226 163 c 2,74,-1
 224 163 l 1,0,1
288 336 m 0,75,76
 280 312 280 312 272 288.5 c 128,-1,77
 264 265 264 265 255 242 c 1,78,79
 297 241 297 241 337.5 239.5 c 128,-1,80
 378 238 378 238 420 237 c 1,81,82
 397 297 397 297 374.5 357 c 128,-1,83
 352 417 352 417 335 480 c 1,84,85
 324 443 324 443 311.5 407 c 128,-1,86
 299 371 299 371 288 336 c 0,75,76
EndSplineSet
Validated: 1
EndChar

StartChar: B
Encoding: 66 66 37
Width: 492
GlyphClass: 1
Flags: W
LayerCount: 2
Fore
SplineSet
74 577 m 0,0,1
 78 598 78 598 93 608 c 0,2,3
 94 612 94 612 97 616 c 0,4,5
 105 626 105 626 120 632 c 128,-1,6
 135 638 135 638 151.5 641.5 c 128,-1,7
 168 645 168 645 183.5 646.5 c 128,-1,8
 199 648 199 648 210 648 c 0,9,10
 229 649 229 649 250 649 c 256,11,12
 271 649 271 649 292 646 c 128,-1,13
 313 643 313 643 332.5 635.5 c 128,-1,14
 352 628 352 628 367 615 c 0,15,16
 391 594 391 594 399 567 c 0,17,18
 404 548 404 548 404 530 c 0,19,20
 404 520 404 520 403 511 c 0,21,22
 399 483 399 483 383.5 456.5 c 128,-1,23
 368 430 368 430 346 412 c 0,24,25
 342 409 342 409 339 406 c 128,-1,26
 336 403 336 403 332 401 c 1,27,28
 358 393 358 393 379 377 c 128,-1,29
 400 361 400 361 411 335 c 0,30,31
 416 324 416 324 418 311.5 c 128,-1,32
 420 299 420 299 422 286 c 1,33,34
 432 269 432 269 432 249 c 2,35,-1
 432 247 l 2,36,37
 431 226 431 226 428 206 c 0,38,39
 420 150 420 150 393.5 112.5 c 128,-1,40
 367 75 367 75 328 52 c 128,-1,41
 289 29 289 29 240.5 18 c 128,-1,42
 192 7 192 7 142 4 c 0,43,44
 131 5 131 5 122 10 c 1,45,46
 114 4 114 4 104 3 c 2,47,-1
 99 3 l 2,48,49
 91 3 91 3 84 6 c 0,50,51
 75 9 75 9 68 18 c 128,-1,52
 61 27 61 27 60 42 c 0,53,54
 61 177 61 177 67 310 c 128,-1,55
 73 443 73 443 74 577 c 0,0,1
147 336 m 1,56,57
 145 273 145 273 143 209.5 c 128,-1,58
 141 146 141 146 139 83 c 1,59,60
 166 85 166 85 197.5 90 c 128,-1,61
 229 95 229 95 258.5 106 c 128,-1,62
 288 117 288 117 311 136 c 128,-1,63
 334 155 334 155 344 185 c 0,64,65
 347 193 347 193 348.5 209 c 128,-1,66
 350 225 350 225 350 234 c 0,67,68
 351 239 351 239 351 249 c 0,69,70
 350 250 350 250 350 252 c 0,71,72
 346 263 346 263 344.5 272 c 128,-1,73
 343 281 343 281 341 291 c 0,74,75
 341 296 341 296 340 299 c 0,76,77
 337 299 337 299 334.5 304.5 c 128,-1,78
 332 310 332 310 330 312 c 0,79,80
 321 320 321 320 308.5 324.5 c 128,-1,81
 296 329 296 329 283 331 c 0,82,83
 255 337 255 337 225 337 c 2,84,-1
 221 337 l 2,85,86
 188 336 188 336 157 336 c 2,87,-1
 147 336 l 1,56,57
153 557 m 1,88,89
 152 522 152 522 151.5 486 c 128,-1,90
 151 450 151 450 150 414 c 1,91,92
 152 414 152 414 153 414.5 c 128,-1,93
 154 415 154 415 156 415 c 1,94,-1
 153 415 l 1,95,96
 171 425 171 425 189.5 431 c 128,-1,97
 208 437 208 437 227 443 c 128,-1,98
 246 449 246 449 264 456 c 128,-1,99
 282 463 282 463 298 476 c 0,100,101
 304 480 304 480 311.5 490.5 c 128,-1,102
 319 501 319 501 324 513 c 0,103,104
 328 524 328 524 328 534 c 2,105,-1
 328 536 l 2,106,107
 327 547 327 547 317 553 c 0,108,109
 304 561 304 561 293 563.5 c 128,-1,110
 282 566 282 566 267 568 c 0,111,112
 255 570 255 570 237 570 c 0,113,114
 218 570 218 570 207 569 c 0,115,116
 193 567 193 567 180 563.5 c 128,-1,117
 167 560 167 560 153 557 c 1,88,89
EndSplineSet
Validated: 1
EndChar

StartChar: C
Encoding: 67 67 38
Width: 541
GlyphClass: 1
Flags: W
LayerCount: 2
Fore
SplineSet
481 480 m 0,0,1
 481 462 481 462 472 451 c 128,-1,2
 463 440 463 440 451 438 c 0,3,4
 447 437 447 437 443 437 c 0,5,6
 434 437 434 437 425 441 c 0,7,8
 412 447 412 447 403 463 c 0,9,10
 403 468 403 468 399 478 c 0,11,12
 365 525 365 525 333 535 c 0,13,14
 320 539 320 539 307 539 c 0,15,16
 289 539 289 539 272 530 c 0,17,18
 243 515 243 515 218.5 481.5 c 128,-1,19
 194 448 194 448 176 408 c 0,20,21
 152 355 152 355 146 302 c 0,22,23
 144 281 144 281 144 259 c 0,24,25
 144 226 144 226 149 192 c 0,26,27
 151 181 151 181 166 158.5 c 128,-1,28
 181 136 181 136 200.5 113.5 c 128,-1,29
 220 91 220 91 240 74 c 0,30,31
 257 59 257 59 266 59 c 2,32,-1
 268 59 l 1,33,34
 293 64 293 64 315 77.5 c 128,-1,35
 337 91 337 91 355 107 c 0,36,37
 358 110 358 110 361 115.5 c 128,-1,38
 364 121 364 121 368 126 c 0,39,40
 373 154 373 154 404 161 c 1,41,-1
 407 161 l 2,42,43
 434 161 434 161 445 143 c 0,44,45
 451 133 451 133 451 122 c 0,46,47
 451 113 451 113 446 104 c 0,48,49
 440 77 440 77 415 52 c 128,-1,50
 390 27 390 27 358 9 c 128,-1,51
 326 -9 326 -9 293 -17 c 0,52,53
 274 -22 274 -22 259 -22 c 0,54,55
 247 -22 247 -22 237 -19 c 0,56,57
 217 -12 217 -12 201 3 c 128,-1,58
 185 18 185 18 170 32 c 0,59,60
 146 55 146 55 125 80.5 c 128,-1,61
 104 106 104 106 88.5 134 c 128,-1,62
 73 162 73 162 65 193 c 0,63,64
 60 214 60 214 60 237 c 0,65,66
 60 248 60 248 61 260 c 0,67,68
 65 296 65 296 76 346.5 c 128,-1,69
 87 397 87 397 106.5 446 c 128,-1,70
 126 495 126 495 153.5 535.5 c 128,-1,71
 181 576 181 576 217 593 c 0,72,73
 235 602 235 602 253 610.5 c 128,-1,74
 271 619 271 619 291 623 c 0,75,76
 301 625 301 625 311 625 c 0,77,78
 330 625 330 625 351 618 c 0,79,80
 383 606 383 606 410.5 585 c 128,-1,81
 438 564 438 564 458 536 c 128,-1,82
 478 508 478 508 481 480 c 0,0,1
EndSplineSet
Validated: 1
EndChar

StartChar: D
Encoding: 68 68 39
Width: 562
GlyphClass: 1
Flags: W
LayerCount: 2
Fore
SplineSet
84 611 m 1,0,1
 89 634 89 634 105 643 c 0,2,3
 114 648 114 648 123 648 c 0,4,5
 130 648 130 648 136 646 c 0,6,7
 140 647 140 647 144 648 c 128,-1,8
 148 649 148 649 153 649 c 0,9,10
 198 647 198 647 242 637.5 c 128,-1,11
 286 628 286 628 326 609.5 c 128,-1,12
 366 591 366 591 400.5 563 c 128,-1,13
 435 535 435 535 460 495 c 0,14,15
 480 464 480 464 490 439 c 128,-1,16
 500 414 500 414 500 377 c 0,17,18
 500 370 500 370 499.5 357 c 128,-1,19
 499 344 499 344 498.5 331 c 128,-1,20
 498 318 498 318 497 308.5 c 128,-1,21
 496 299 496 299 496 298 c 0,22,23
 498 273 498 273 501 248 c 0,24,25
 502 239 502 239 502 229 c 0,26,27
 502 214 502 214 499 199 c 0,28,29
 490 158 490 158 465.5 128.5 c 128,-1,30
 441 99 441 99 408 78 c 128,-1,31
 375 57 375 57 337.5 43 c 128,-1,32
 300 29 300 29 265 19 c 0,33,34
 245 13 245 13 219.5 5.5 c 128,-1,35
 194 -2 194 -2 168 -5 c 0,36,37
 158 -6 158 -6 149 -6 c 0,38,39
 133 -6 133 -6 117 -2 c 0,40,41
 93 3 93 3 78 24 c 0,42,43
 66 40 66 40 63 61 c 0,44,45
 60 77 60 77 60 95 c 2,46,-1
 60 105 l 2,47,48
 61 128 61 128 64 150 c 128,-1,49
 67 172 67 172 68 190 c 0,50,51
 71 224 71 224 71 258 c 256,52,53
 71 292 71 292 73 326 c 0,54,55
 76 398 76 398 79.5 468.5 c 128,-1,56
 83 539 83 539 84 611 c 1,0,1
392 454 m 0,57,58
 350 511 350 511 290.5 537.5 c 128,-1,59
 231 564 231 564 162 569 c 1,60,61
 161 503 161 503 158.5 438.5 c 128,-1,62
 156 374 156 374 152 309 c 1,63,-1
 152 307 l 1,64,65
 151 307 151 307 151 308 c 1,66,-1
 151 256 l 2,67,68
 151 229 151 229 149 203 c 0,69,70
 147 171 147 171 144 140 c 0,71,72
 143 124 143 124 143 108 c 256,73,74
 143 92 143 92 144 76 c 1,75,-1
 154 76 l 2,76,77
 173 76 173 76 194 82 c 0,78,79
 220 89 220 89 242 95 c 0,80,81
 263 101 263 101 284 107.5 c 128,-1,82
 305 114 305 114 325 122.5 c 128,-1,83
 345 131 345 131 362.5 143 c 128,-1,84
 380 155 380 155 394 172 c 0,85,86
 409 190 409 190 414.5 205 c 128,-1,87
 420 220 420 220 421 235 c 2,88,-1
 421 240 l 2,89,90
 421 252 421 252 419 265 c 0,91,92
 417 281 417 281 417 303 c 0,93,94
 417 330 417 330 421 358 c 0,95,96
 422 367 422 367 422 376 c 0,97,98
 422 395 422 395 417 412 c 0,99,100
 415 417 415 417 411.5 424 c 128,-1,101
 408 431 408 431 404 437 c 128,-1,102
 400 443 400 443 396.5 447.5 c 128,-1,103
 393 452 393 452 392 454 c 0,57,58
152 337 m 1,104,105
 152 335 152 335 151.5 331 c 128,-1,106
 151 327 151 327 151 322 c 2,107,-1
 151 313 l 1,108,109
 151 319 151 319 151.5 325 c 128,-1,110
 152 331 152 331 152 337 c 1,104,105
EndSplineSet
Validated: 1
EndChar

StartChar: E
Encoding: 69 69 40
Width: 532
GlyphClass: 1
Flags: W
LayerCount: 2
Fore
SplineSet
67 601 m 1,0,1
 71 622 71 622 85 631 c 0,2,3
 96 638 96 638 108 638 c 2,4,-1
 113 638 l 2,5,6
 115 638 115 638 117.5 638.5 c 128,-1,7
 120 639 120 639 122 639 c 2,8,-1
 414 639 l 1,9,10
 432 634 432 634 440 623 c 256,11,12
 448 612 448 612 448 600 c 2,13,-1
 448 598 l 2,14,15
 447 585 447 585 437.5 574 c 128,-1,16
 428 563 428 563 410 560 c 2,17,-1
 145 560 l 1,18,19
 144 508 144 508 144 457 c 2,20,-1
 144 354 l 1,21,-1
 407 354 l 1,22,23
 425 349 425 349 433 338 c 256,24,25
 441 327 441 327 441 315 c 2,26,-1
 441 313 l 2,27,28
 440 300 440 300 430.5 289 c 128,-1,29
 421 278 421 278 403 275 c 2,30,-1
 144 275 l 1,31,32
 143 225 143 225 143 174 c 0,33,34
 143 124 143 124 144 74 c 1,35,36
 218 74 218 74 291 74.5 c 128,-1,37
 364 75 364 75 438 76 c 1,38,39
 456 71 456 71 464 60 c 256,40,41
 472 49 472 49 472 37 c 2,42,-1
 472 35 l 2,43,44
 471 22 471 22 461.5 11 c 128,-1,45
 452 0 452 0 434 -3 c 0,46,47
 353 -5 353 -5 266 -9 c 0,48,49
 242 -10 242 -10 219 -10 c 0,50,51
 156 -10 156 -10 95 -2 c 1,52,53
 81 6 81 6 75 14.5 c 128,-1,54
 69 23 69 23 67 38 c 0,55,56
 61 104 61 104 61 177 c 0,57,58
 60 201 60 201 60 225 c 0,59,60
 60 274 60 274 61 323 c 0,61,62
 62 396 62 396 64.5 467 c 128,-1,63
 67 538 67 538 67 601 c 1,0,1
EndSplineSet
Validated: 1
EndChar

StartChar: F
Encoding: 70 70 41
Width: 504
GlyphClass: 1
Flags: W
LayerCount: 2
Fore
SplineSet
67 604 m 1,0,1
 72 628 72 628 89 637 c 0,2,3
 97 642 97 642 106 642 c 0,4,5
 113 642 113 642 121 638 c 0,6,7
 123 638 123 638 123.5 638.5 c 128,-1,8
 124 639 124 639 126 639 c 0,9,10
 198 639 198 639 268 637.5 c 128,-1,11
 338 636 338 636 410 636 c 1,12,13
 428 631 428 631 436 620 c 256,14,15
 444 609 444 609 444 597 c 2,16,-1
 444 595 l 2,17,18
 443 582 443 582 433.5 571 c 128,-1,19
 424 560 424 560 406 557 c 0,20,21
 341 557 341 557 276.5 558 c 128,-1,22
 212 559 212 559 146 560 c 1,23,24
 145 518 145 518 145 476 c 256,25,26
 145 434 145 434 144 392 c 1,27,-1
 360 392 l 1,28,29
 378 387 378 387 386 376 c 256,30,31
 394 365 394 365 394 353 c 2,32,-1
 394 351 l 2,33,34
 393 338 393 338 383.5 327 c 128,-1,35
 374 316 374 316 356 313 c 2,36,-1
 142 313 l 1,37,38
 141 245 141 245 140.5 177.5 c 128,-1,39
 140 110 140 110 139 42 c 0,40,41
 138 21 138 21 126.5 10 c 128,-1,42
 115 -1 115 -1 101 -1 c 1,43,-1
 100 -2 l 1,44,45
 86 -2 86 -2 75 8 c 0,46,47
 62 17 62 17 60 38 c 0,48,49
 61 181 61 181 63.5 321.5 c 128,-1,50
 66 462 66 462 67 604 c 1,0,1
EndSplineSet
Validated: 1
EndChar

StartChar: G
Encoding: 71 71 42
Width: 552
GlyphClass: 1
Flags: W
LayerCount: 2
Fore
SplineSet
252 263 m 0,0,1
 251 267 251 267 251 271 c 0,2,3
 251 281 251 281 256 290 c 0,4,5
 261 301 261 301 270 307 c 128,-1,6
 279 313 279 313 291 313 c 0,7,8
 302 313 302 313 313 306 c 1,9,-1
 320 306 l 2,10,11
 336 307 336 307 357 309 c 0,12,13
 373 311 373 311 389 311 c 2,14,-1
 398 311 l 2,15,16
 418 310 418 310 437 305.5 c 128,-1,17
 456 301 456 301 469 288 c 0,18,19
 483 274 483 274 487.5 256.5 c 128,-1,20
 492 239 492 239 492 220 c 0,21,22
 492 200 492 200 488.5 181 c 128,-1,23
 485 162 485 162 483 145 c 0,24,25
 481 130 481 130 480 114.5 c 128,-1,26
 479 99 479 99 475.5 85.5 c 128,-1,27
 472 72 472 72 464 60.5 c 128,-1,28
 456 49 456 49 441 40 c 0,29,30
 436 39 436 39 432 39 c 0,31,32
 431 38 431 38 429 38 c 256,33,34
 427 38 427 38 424 39 c 1,35,36
 424 38 424 38 423 37 c 0,37,38
 404 26 404 26 372 23 c 0,39,40
 356 22 356 22 340 22 c 0,41,42
 323 22 323 22 306 23 c 0,43,44
 272 26 272 26 242.5 34 c 128,-1,45
 213 42 213 42 199 54 c 0,46,47
 180 71 180 71 160 86.5 c 128,-1,48
 140 102 140 102 125 122 c 0,49,50
 104 150 104 150 88.5 190 c 128,-1,51
 73 230 73 230 66 273 c 0,52,53
 60 306 60 306 60 340 c 2,54,-1
 60 358 l 2,55,56
 62 400 62 400 75 435 c 0,57,58
 83 457 83 457 92 477.5 c 128,-1,59
 101 498 101 498 110 519 c 0,60,61
 121 542 121 542 141 557 c 128,-1,62
 161 572 161 572 178 589 c 0,63,64
 187 598 187 598 203 604 c 128,-1,65
 219 610 219 610 235.5 614.5 c 128,-1,66
 252 619 252 619 266 621 c 128,-1,67
 280 623 280 623 287 625 c 0,68,69
 300 628 300 628 314 628 c 256,70,71
 328 628 328 628 342 625 c 0,72,73
 369 618 369 618 393 603 c 128,-1,74
 417 588 417 588 436.5 567.5 c 128,-1,75
 456 547 456 547 470 525 c 0,76,77
 472 517 472 517 472 510 c 0,78,79
 472 502 472 502 470 495 c 0,80,81
 464 481 464 481 454 475 c 0,82,83
 445 470 445 470 435 470 c 2,84,-1
 429 470 l 2,85,86
 414 472 414 472 401 485 c 1,87,88
 382 516 382 516 353.5 531.5 c 128,-1,89
 325 547 325 547 294 547 c 256,90,91
 263 547 263 547 233 530.5 c 128,-1,92
 203 514 203 514 181 481 c 0,93,94
 160 448 160 448 150 408 c 0,95,96
 141 372 141 372 141 336 c 0,97,98
 141 330 141 330 142 325 c 0,99,100
 143 282 143 282 155 241.5 c 128,-1,101
 167 201 167 201 190 170 c 0,102,103
 201 156 201 156 214 143 c 128,-1,104
 227 130 227 130 243 122 c 0,105,106
 244 122 244 122 262 117 c 128,-1,107
 280 112 280 112 303 107 c 128,-1,108
 326 102 326 102 348 100 c 0,109,110
 355 99 355 99 360 99 c 0,111,112
 371 99 371 99 376 102 c 0,113,114
 385 106 385 106 393 106 c 0,115,116
 396 106 396 106 399 105 c 1,117,118
 401 113 401 113 401.5 121 c 128,-1,119
 402 129 402 129 402 137 c 0,120,121
 404 159 404 159 410 183 c 0,122,123
 413 196 413 196 413 208 c 0,124,125
 413 218 413 218 411 228 c 1,126,-1
 401 228 l 2,127,128
 387 228 387 228 370 227 c 0,129,130
 353 225 353 225 336 225 c 2,131,-1
 323 225 l 2,132,133
 300 226 300 226 280.5 233.5 c 128,-1,134
 261 241 261 241 252 263 c 0,0,1
EndSplineSet
Validated: 1
EndChar

StartChar: H
Encoding: 72 72 43
Width: 506
GlyphClass: 1
Flags: W
LayerCount: 2
Fore
SplineSet
60 35 m 0,0,1
 60 175 60 175 62 313 c 128,-1,2
 64 451 64 451 64 590 c 0,3,4
 61 599 61 599 61 606 c 0,5,6
 61 612 61 612 63 618 c 0,7,8
 67 630 67 630 76.5 637 c 128,-1,9
 86 644 86 644 100 644 c 256,10,11
 114 644 114 644 128 635 c 1,12,13
 143 617 143 617 144 595 c 2,14,-1
 144 586 l 2,15,16
 144 568 144 568 142 550 c 2,17,-1
 142 456 l 2,18,19
 142 409 142 409 141 361 c 1,20,21
 198 359 198 359 253 357.5 c 128,-1,22
 308 356 308 356 365 354 c 1,23,-1
 365 570 l 2,24,25
 365 583 365 583 364 597 c 2,26,-1
 364 600 l 2,27,28
 364 611 364 611 370 621 c 0,29,30
 381 639 381 639 397 643 c 0,31,32
 403 645 403 645 408 645 c 0,33,34
 417 645 417 645 425 641 c 0,35,36
 437 635 437 635 443 621 c 0,37,38
 446 614 446 614 446 606 c 0,39,40
 446 597 446 597 442 586 c 0,41,42
 441 584 441 584 441 583 c 256,43,44
 441 582 441 582 442 582 c 0,45,46
 444 582 444 582 444 574 c 2,47,-1
 444 29 l 2,48,49
 443 8 443 8 431.5 -3 c 128,-1,50
 420 -14 420 -14 406 -14 c 1,51,-1
 405 -15 l 1,52,53
 391 -15 391 -15 380 -5 c 0,54,55
 367 4 367 4 365 25 c 2,56,-1
 365 275 l 1,57,58
 309 276 309 276 253 278 c 128,-1,59
 197 280 197 280 140 282 c 1,60,61
 140 221 140 221 139.5 160.5 c 128,-1,62
 139 100 139 100 139 39 c 0,63,64
 138 18 138 18 126.5 7 c 128,-1,65
 115 -4 115 -4 101 -4 c 1,66,-1
 100 -5 l 1,67,68
 86 -5 86 -5 75 5 c 0,69,70
 62 14 62 14 60 35 c 0,0,1
EndSplineSet
Validated: 1
EndChar

StartChar: I
Encoding: 73 73 44
Width: 203
GlyphClass: 1
Flags: W
LayerCount: 2
Fore
SplineSet
62 547 m 2,0,1
 62 553 62 553 63 559 c 2,2,-1
 63 562 l 2,3,4
 63 566 63 566 62 569 c 0,5,6
 60 576 60 576 60 583 c 0,7,8
 60 592 60 592 64 599 c 0,9,10
 70 612 70 612 83 618 c 0,11,12
 90 621 90 621 98 621 c 0,13,14
 104 621 104 621 110 620 c 0,15,16
 124 616 124 616 135 600 c 0,17,18
 143 589 143 589 143 576 c 2,19,-1
 143 574 l 2,20,21
 142 560 142 560 141 546 c 2,22,-1
 141 59 l 2,23,24
 140 38 140 38 128.5 27 c 128,-1,25
 117 16 117 16 103 16 c 1,26,-1
 102 15 l 1,27,28
 88 15 88 15 77 25 c 0,29,30
 64 34 64 34 62 55 c 2,31,-1
 62 547 l 2,0,1
EndSplineSet
Validated: 1
EndChar

StartChar: J
Encoding: 74 74 45
Width: 494
GlyphClass: 1
Flags: W
LayerCount: 2
Fore
SplineSet
71 162 m 2,0,1
 86 174 86 174 101 174 c 0,2,3
 106 174 106 174 112 173 c 0,4,5
 132 166 132 166 138 148 c 0,6,7
 143 143 143 143 147 140 c 0,8,9
 155 133 155 133 157 130.5 c 128,-1,10
 159 128 159 128 167 122 c 1,11,-1
 167 121 l 1,12,13
 188 113 188 113 206.5 105 c 128,-1,14
 225 97 225 97 243.5 90.5 c 128,-1,15
 262 84 262 84 281.5 79 c 128,-1,16
 301 74 301 74 324 73 c 0,17,18
 329 74 329 74 332.5 74.5 c 128,-1,19
 336 75 336 75 339 75 c 0,20,21
 354 85 354 85 354 119 c 2,22,-1
 354 125 l 2,23,24
 352 164 352 164 349 230 c 0,25,26
 346 321 346 321 339.5 409 c 128,-1,27
 333 497 333 497 330 587 c 0,28,29
 333 605 333 605 344 614.5 c 128,-1,30
 355 624 355 624 368 625 c 2,31,-1
 370 625 l 2,32,33
 382 625 382 625 393 617 c 256,34,35
 404 609 404 609 409 591 c 1,36,37
 413 501 413 501 419 412.5 c 128,-1,38
 425 324 425 324 429 234 c 0,39,40
 430 214 430 214 432 189.5 c 128,-1,41
 434 165 434 165 434 140 c 256,42,43
 434 115 434 115 431 91 c 128,-1,44
 428 67 428 67 418 47 c 0,45,46
 404 18 404 18 376 5.5 c 128,-1,47
 348 -7 348 -7 313 -7 c 256,48,49
 278 -7 278 -7 239.5 3.5 c 128,-1,50
 201 14 201 14 166.5 30.5 c 128,-1,51
 132 47 132 47 105.5 68 c 128,-1,52
 79 89 79 89 67 111 c 0,53,54
 60 124 60 124 60 134 c 0,55,56
 60 135 60 135 61 136 c 0,57,58
 61 146 61 146 69 160 c 1,59,-1
 71 162 l 2,0,1
EndSplineSet
Validated: 1
EndChar

StartChar: K
Encoding: 75 75 46
Width: 612
GlyphClass: 1
Flags: W
LayerCount: 2
Fore
SplineSet
60 594 m 0,0,1
 63 612 63 612 74 621.5 c 128,-1,2
 85 631 85 631 98 632 c 2,3,-1
 100 632 l 2,4,5
 112 632 112 632 123 624 c 256,6,7
 134 616 134 616 139 598 c 1,8,9
 140 517 140 517 141 437 c 128,-1,10
 142 357 142 357 143 276 c 1,11,12
 209 326 209 326 271 379.5 c 128,-1,13
 333 433 333 433 385 498 c 0,14,15
 403 521 403 521 419.5 543.5 c 128,-1,16
 436 566 436 566 453 589 c 0,17,18
 458 596 458 596 462.5 604.5 c 128,-1,19
 467 613 467 613 472 619 c 0,20,21
 475 622 475 622 478 626.5 c 128,-1,22
 481 631 481 631 485 632 c 0,23,24
 495 640 495 640 515 642 c 2,25,-1
 518 642 l 1,26,27
 552 632 552 632 552 604 c 0,28,29
 552 594 552 594 547 582 c 0,30,31
 514 537 514 537 480.5 491 c 128,-1,32
 447 445 447 445 409 403 c 0,33,34
 386 377 386 377 360.5 352.5 c 128,-1,35
 335 328 335 328 309 305 c 1,36,37
 312 301 312 301 314.5 296.5 c 128,-1,38
 317 292 317 292 319 286 c 0,39,40
 319 270 319 270 333 258 c 128,-1,41
 347 246 347 246 357 234 c 0,42,43
 395 189 395 189 435.5 146 c 128,-1,44
 476 103 476 103 511 55 c 0,45,46
 521 41 521 41 521 28 c 2,47,-1
 521 23 l 2,48,49
 518 7 518 7 507.5 -2 c 128,-1,50
 497 -11 497 -11 481 -11 c 256,51,52
 465 -11 465 -11 450 4 c 0,53,54
 436 23 436 23 407 53.5 c 128,-1,55
 378 84 378 84 346.5 119 c 128,-1,56
 315 154 315 154 287 189.5 c 128,-1,57
 259 225 259 225 247 254 c 1,58,59
 230 240 230 240 213.5 228 c 128,-1,60
 197 216 197 216 180 203 c 0,61,62
 170 197 170 197 161 196 c 0,63,64
 157 195 157 195 153 195 c 256,65,66
 149 195 149 195 144 196 c 1,67,68
 145 154 145 154 145 114 c 256,69,70
 145 74 145 74 146 32 c 0,71,72
 145 11 145 11 133.5 0 c 128,-1,73
 122 -11 122 -11 108 -11 c 1,74,-1
 107 -12 l 1,75,76
 93 -12 93 -12 82 -2 c 0,77,78
 69 7 69 7 67 28 c 0,79,80
 66 171 66 171 63.5 311.5 c 128,-1,81
 61 452 61 452 60 594 c 0,0,1
EndSplineSet
Validated: 1
EndChar

StartChar: L
Encoding: 76 76 47
Width: 529
GlyphClass: 1
Flags: W
LayerCount: 2
Fore
SplineSet
71 598 m 0,0,1
 74 616 74 616 85 625.5 c 128,-1,2
 96 635 96 635 109 636 c 2,3,-1
 111 636 l 2,4,5
 123 636 123 636 134 628 c 256,6,7
 145 620 145 620 150 602 c 1,8,9
 148 472 148 472 143 343 c 0,10,11
 140 275 140 275 140 208 c 0,12,13
 140 146 140 146 142 84 c 1,14,15
 150 85 150 85 158 85.5 c 128,-1,16
 166 86 166 86 174 86 c 0,17,18
 240 86 240 86 304.5 80.5 c 128,-1,19
 369 75 369 75 435 73 c 1,20,21
 453 68 453 68 461 57 c 256,22,23
 469 46 469 46 469 34 c 2,24,-1
 469 32 l 2,25,26
 468 19 468 19 458.5 8 c 128,-1,27
 449 -3 449 -3 431 -6 c 0,28,29
 374 -5 374 -5 317.5 -0.5 c 128,-1,30
 261 4 261 4 203 6 c 2,31,-1
 177 6 l 2,32,33
 162 4 162 4 148 3 c 0,34,35
 139 2 139 2 129 2 c 0,36,37
 124 2 124 2 120 3 c 0,38,39
 105 3 105 3 93 8 c 0,40,41
 79 16 79 16 73 24.5 c 128,-1,42
 67 33 67 33 65 48 c 0,43,44
 60 111 60 111 60 173 c 0,45,46
 60 179 60 179 61 186 c 0,47,48
 61 254 61 254 63 323 c 128,-1,49
 65 392 65 392 67.5 461 c 128,-1,50
 70 530 70 530 71 598 c 0,0,1
EndSplineSet
Validated: 1
EndChar

StartChar: M
Encoding: 77 77 48
Width: 590
GlyphClass: 1
Flags: W
LayerCount: 2
Fore
SplineSet
139 52 m 2,0,1
 138 31 138 31 126.5 20 c 128,-1,2
 115 9 115 9 101 9 c 1,3,-1
 100 8 l 1,4,5
 86 8 86 8 75 18 c 0,6,7
 62 27 62 27 60 48 c 2,8,-1
 60 611 l 2,9,10
 63 629 63 629 74 638.5 c 128,-1,11
 85 648 85 648 98 649 c 2,12,-1
 99 649 l 2,13,14
 111 649 111 649 122 641 c 256,15,16
 133 633 133 633 138 616 c 1,17,-1
 139 616 l 1,18,-1
 139 615 l 2,19,20
 140 612 140 612 140.5 609.5 c 128,-1,21
 141 607 141 607 141 604 c 0,22,23
 180 565 180 565 212.5 516 c 128,-1,24
 245 467 245 467 280 423 c 1,25,26
 288 433 288 433 303 453 c 128,-1,27
 318 473 318 473 337 497 c 128,-1,28
 356 521 356 521 377.5 546 c 128,-1,29
 399 571 399 571 420 590.5 c 128,-1,30
 441 610 441 610 460 621 c 0,31,32
 475 630 475 630 487 630 c 0,33,34
 491 630 491 630 494 629 c 0,35,36
 510 624 510 624 517 617 c 128,-1,37
 524 610 524 610 529 594 c 0,38,39
 530 590 530 590 530 585 c 0,40,41
 530 581 530 581 529 578 c 0,42,43
 527 570 527 570 526 561 c 2,44,-1
 526 451 l 2,45,46
 524 342 524 342 520.5 235 c 128,-1,47
 517 128 517 128 515 19 c 0,48,49
 514 -2 514 -2 502.5 -13 c 128,-1,50
 491 -24 491 -24 477 -24 c 1,51,-1
 476 -25 l 1,52,53
 462 -25 462 -25 451 -15 c 0,54,55
 438 -6 438 -6 436 15 c 0,56,57
 437 109 437 109 440 200.5 c 128,-1,58
 443 292 443 292 445 386 c 0,59,60
 446 409 446 409 446.5 442.5 c 128,-1,61
 447 476 447 476 447 501 c 1,62,63
 431 486 431 486 416 471 c 128,-1,64
 401 456 401 456 387 439 c 0,65,66
 367 411 367 411 349 382 c 128,-1,67
 331 353 331 353 306 328 c 1,68,69
 292 320 292 320 280 320 c 2,70,-1
 275 320 l 2,71,72
 261 322 261 322 247 336 c 0,73,74
 223 368 223 368 198.5 399 c 128,-1,75
 174 430 174 430 149 462 c 0,76,77
 147 465 147 465 144 468 c 128,-1,78
 141 471 141 471 139 474 c 1,79,-1
 139 52 l 2,0,1
EndSplineSet
Validated: 1
EndChar

StartChar: N
Encoding: 78 78 49
Width: 490
GlyphClass: 1
Flags: W
LayerCount: 2
Fore
SplineSet
139 52 m 2,0,1
 138 31 138 31 126.5 20 c 128,-1,2
 115 9 115 9 101 9 c 1,3,-1
 100 8 l 1,4,5
 86 8 86 8 75 18 c 0,6,7
 62 27 62 27 60 48 c 2,8,-1
 60 615 l 1,9,10
 64 631 64 631 75 640 c 128,-1,11
 86 649 86 649 99 649 c 0,12,13
 111 649 111 649 122 641 c 128,-1,14
 133 633 133 633 138 616 c 1,15,-1
 139 616 l 1,16,-1
 139 610 l 2,17,18
 140 586 140 586 144 569 c 128,-1,19
 148 552 148 552 154.5 537 c 128,-1,20
 161 522 161 522 169.5 506.5 c 128,-1,21
 178 491 178 491 188 470 c 0,22,23
 200 445 200 445 207 418 c 128,-1,24
 214 391 214 391 225 365 c 0,25,26
 238 338 238 338 254 312 c 128,-1,27
 270 286 270 286 287 260.5 c 128,-1,28
 304 235 304 235 321 209 c 128,-1,29
 338 183 338 183 352 156 c 1,30,31
 355 261 355 261 358 365 c 2,32,-1
 358 403 l 2,33,34
 358 487 358 487 349 572 c 1,35,36
 350 570 350 570 351 569 c 128,-1,37
 352 568 352 568 353 566 c 1,38,39
 346 577 346 577 346 589 c 2,40,-1
 346 594 l 2,41,42
 348 608 348 608 357.5 617 c 128,-1,43
 367 626 367 626 382 628 c 2,44,-1
 385 628 l 2,45,46
 398 628 398 628 412 618 c 0,47,48
 426 604 426 604 428 581.5 c 128,-1,49
 430 559 430 559 430 541 c 2,50,-1
 430 49 l 2,51,52
 429 29 429 29 419 18 c 128,-1,53
 409 7 409 7 396 5 c 1,54,55
 387 -2 387 -2 376 -2 c 0,56,57
 370 -2 370 -2 364 0 c 0,58,59
 346 5 346 5 335 25 c 1,60,61
 332 48 332 48 318.5 63.5 c 128,-1,62
 305 79 305 79 293 98 c 0,63,64
 273 132 273 132 255 166.5 c 128,-1,65
 237 201 237 201 214 233 c 0,66,67
 195 262 195 262 175.5 291.5 c 128,-1,68
 156 321 156 321 144 353 c 0,69,70
 141 358 141 358 139 366 c 1,71,-1
 139 52 l 2,0,1
EndSplineSet
Validated: 5
EndChar

StartChar: O
Encoding: 79 79 50
Width: 550
GlyphClass: 1
Flags: W
LayerCount: 2
Fore
SplineSet
324 619 m 0,0,1
 332 617 332 617 338 614 c 128,-1,2
 344 611 344 611 349 606 c 1,3,4
 361 604 361 604 373 597 c 0,5,6
 407 562 407 562 429.5 532 c 128,-1,7
 452 502 452 502 465.5 469.5 c 128,-1,8
 479 437 479 437 484.5 399.5 c 128,-1,9
 490 362 490 362 490 311 c 0,10,11
 490 272 490 272 480.5 225 c 128,-1,12
 471 178 471 178 453 143 c 0,13,14
 442 121 442 121 434 107 c 128,-1,15
 426 93 426 93 417.5 81.5 c 128,-1,16
 409 70 409 70 398 58.5 c 128,-1,17
 387 47 387 47 369 31 c 0,18,19
 342 7 342 7 308 3 c 0,20,21
 297 2 297 2 287 2 c 0,22,23
 263 2 263 2 239 9 c 0,24,25
 204 18 204 18 173 38.5 c 128,-1,26
 142 59 142 59 124 83 c 0,27,28
 97 120 97 120 80.5 177.5 c 128,-1,29
 64 235 64 235 61 297 c 0,30,31
 60 313 60 313 60 329 c 0,32,33
 60 374 60 374 67 418 c 0,34,35
 77 477 77 477 103 518 c 0,36,37
 131 563 131 563 150.5 589 c 128,-1,38
 170 615 170 615 192 626 c 0,39,40
 210 634 210 634 233 634 c 2,41,-1
 244 634 l 2,42,43
 274 631 274 631 324 619 c 0,0,1
401 246 m 0,44,45
 412 295 412 295 413 334 c 2,46,-1
 413 338 l 2,47,48
 413 375 413 375 404 407 c 0,49,50
 394 441 394 441 373.5 471.5 c 128,-1,51
 353 502 353 502 322 535 c 1,52,53
 312 535 312 535 299 543 c 0,54,55
 286 548 286 548 273 551.5 c 128,-1,56
 260 555 260 555 246 555 c 0,57,58
 232 554 232 554 220 545 c 128,-1,59
 208 536 208 536 198 523.5 c 128,-1,60
 188 511 188 511 181 497.5 c 128,-1,61
 174 484 174 484 170 475 c 0,62,63
 159 450 159 450 151.5 410.5 c 128,-1,64
 144 371 144 371 143 327 c 0,65,66
 142 318 142 318 142 309 c 0,67,68
 142 274 142 274 147 239 c 0,69,70
 153 194 153 194 169.5 159 c 128,-1,71
 186 124 186 124 215 103 c 0,72,73
 241 84 241 84 279 84 c 2,74,-1
 286 84 l 2,75,76
 313 85 313 85 333 103 c 128,-1,77
 353 121 353 121 366.5 146 c 128,-1,78
 380 171 380 171 388 198 c 128,-1,79
 396 225 396 225 401 246 c 0,44,45
EndSplineSet
Validated: 1
EndChar

StartChar: P
Encoding: 80 80 51
Width: 479
GlyphClass: 1
Flags: W
LayerCount: 2
Fore
SplineSet
63 581 m 2,0,1
 60 588 60 588 60 595 c 0,2,3
 60 603 60 603 64 611 c 0,4,5
 71 625 71 625 90 630 c 1,6,7
 101 645 101 645 125 646 c 0,8,9
 151 646 151 646 182.5 650 c 128,-1,10
 214 654 214 654 246 655 c 2,11,-1
 250 655 l 2,12,13
 280 655 280 655 308 648 c 0,14,15
 337 641 337 641 359 620 c 0,16,17
 383 597 383 597 396 569 c 128,-1,18
 409 541 409 541 414 509 c 0,19,20
 419 489 419 489 419 467 c 0,21,22
 419 444 419 444 417 423 c 0,23,24
 414 390 414 390 409.5 371 c 128,-1,25
 405 352 405 352 396 340 c 128,-1,26
 387 328 387 328 371 318.5 c 128,-1,27
 355 309 355 309 330 294 c 0,28,29
 282 267 282 267 238.5 256.5 c 128,-1,30
 195 246 195 246 142 245 c 1,31,-1
 142 42 l 2,32,33
 141 21 141 21 129.5 10 c 128,-1,34
 118 -1 118 -1 104 -1 c 1,35,-1
 103 -2 l 1,36,37
 89 -2 89 -2 78 8 c 0,38,39
 65 17 65 17 63 38 c 2,40,-1
 63 581 l 2,0,1
318 547 m 0,41,42
 308 563 308 563 286.5 569 c 128,-1,43
 265 575 265 575 240 576 c 2,44,-1
 232 576 l 2,45,46
 210 576 210 576 188 573 c 0,47,48
 161 570 161 570 142 568 c 1,49,-1
 142 324 l 1,50,-1
 169 324 l 1,51,52
 169 325 169 325 170 325 c 0,53,54
 190 330 190 330 209 330.5 c 128,-1,55
 228 331 228 331 248 340 c 0,56,57
 255 343 255 343 266 350 c 128,-1,58
 277 357 277 357 288 364 c 128,-1,59
 299 371 299 371 310.5 378 c 128,-1,60
 322 385 322 385 331 388 c 1,61,62
 334 399 334 399 336 411.5 c 128,-1,63
 338 424 338 424 338 432 c 0,64,65
 339 444 339 444 339 455 c 0,66,67
 339 473 339 473 337 492 c 0,68,69
 334 522 334 522 318 547 c 0,41,42
326 374 m 1,70,-1
 327 375 l 2,71,72
 328 377 328 377 329 379 c 1,73,74
 328 377 328 377 326 375 c 2,75,-1
 326 374 l 1,70,-1
EndSplineSet
Validated: 1
EndChar

StartChar: Q
Encoding: 81 81 52
Width: 559
GlyphClass: 1
Flags: W
LayerCount: 2
Fore
SplineSet
121 567 m 0,0,1
 157 610 157 610 207 628 c 0,2,3
 244 642 244 642 282 642 c 0,4,5
 293 642 293 642 305 641 c 0,6,7
 353 635 353 635 392.5 606 c 128,-1,8
 432 577 432 577 448 526 c 1,9,10
 460 526 460 526 470.5 518 c 128,-1,11
 481 510 481 510 486 493 c 1,12,13
 487 445 487 445 489 398 c 2,14,-1
 489 362 l 2,15,16
 489 332 489 332 488 303 c 0,17,18
 485 255 485 255 477 209 c 128,-1,19
 469 163 469 163 451 119 c 1,20,21
 468 102 468 102 481 82 c 128,-1,22
 494 62 494 62 499 36 c 0,23,24
 499 18 499 18 490 7 c 128,-1,25
 481 -4 481 -4 469 -6 c 0,26,27
 465 -7 465 -7 461 -7 c 0,28,29
 452 -7 452 -7 443 -3 c 0,30,31
 430 3 430 3 421 19 c 1,32,33
 416 37 416 37 407 49 c 1,34,35
 380 23 380 23 341 7.5 c 128,-1,36
 302 -8 302 -8 261 -11 c 0,37,38
 253 -12 253 -12 245 -12 c 0,39,40
 213 -12 213 -12 183 -2 c 0,41,42
 146 10 146 10 124 41 c 0,43,44
 110 59 110 59 100 84 c 128,-1,45
 90 109 90 109 82.5 135 c 128,-1,46
 75 161 75 161 70.5 187.5 c 128,-1,47
 66 214 66 214 65 235 c 0,48,49
 63 274 63 274 61 319 c 0,50,51
 60 333 60 333 60 348 c 0,52,53
 60 378 60 378 63 407 c 0,54,55
 67 451 67 451 80 492.5 c 128,-1,56
 93 534 93 534 121 567 c 0,0,1
301 136 m 0,57,58
 286 151 286 151 286 167 c 256,59,60
 286 183 286 183 295 193.5 c 128,-1,61
 304 204 304 204 320 207 c 2,62,-1
 325 207 l 2,63,64
 338 207 338 207 352 197 c 0,65,66
 361 189 361 189 370 183 c 128,-1,67
 379 177 379 177 389 170 c 1,68,69
 401 201 401 201 405.5 237 c 128,-1,70
 410 273 410 273 411 310 c 2,71,-1
 411 384 l 2,72,73
 409 421 409 421 408 454 c 1,74,75
 388 459 388 459 377 480 c 1,76,77
 372 515 372 515 349 535.5 c 128,-1,78
 326 556 326 556 297 562 c 0,79,80
 287 563 287 563 277 563 c 0,81,82
 257 563 257 563 236 556 c 0,83,84
 204 544 204 544 183 515 c 0,85,86
 163 487 163 487 153 452.5 c 128,-1,87
 143 418 143 418 140 382 c 0,88,89
 137 358 137 358 137 335 c 0,90,91
 137 321 137 321 138 308 c 0,92,93
 140 271 140 271 144 239 c 0,94,95
 149 202 149 202 159.5 162 c 128,-1,96
 170 122 170 122 189 89 c 0,97,98
 193 81 193 81 201.5 78 c 128,-1,99
 210 75 210 75 219 73.5 c 128,-1,100
 228 72 228 72 237 72 c 0,101,102
 245 72 245 72 251 71 c 0,103,104
 258 70 258 70 264 70 c 0,105,106
 313 70 313 70 347 104 c 1,107,108
 335 112 335 112 323 120 c 128,-1,109
 311 128 311 128 301 136 c 0,57,58
EndSplineSet
Validated: 1
EndChar

StartChar: R
Encoding: 82 82 53
Width: 502
GlyphClass: 1
Flags: W
LayerCount: 2
Fore
SplineSet
185 247 m 1,0,1
 174 246 174 246 163.5 245.5 c 128,-1,2
 153 245 153 245 142 245 c 1,3,-1
 142 42 l 2,4,5
 141 21 141 21 129.5 10 c 128,-1,6
 118 -1 118 -1 104 -1 c 1,7,-1
 103 -2 l 1,8,9
 89 -2 89 -2 78 8 c 0,10,11
 65 17 65 17 63 38 c 2,12,-1
 63 581 l 2,13,14
 60 588 60 588 60 595 c 0,15,16
 60 603 60 603 64 611 c 0,17,18
 71 625 71 625 90 630 c 1,19,20
 101 645 101 645 125 646 c 0,21,22
 151 646 151 646 182.5 650 c 128,-1,23
 214 654 214 654 246 655 c 2,24,-1
 250 655 l 2,25,26
 280 655 280 655 308 648 c 0,27,28
 337 641 337 641 359 620 c 0,29,30
 383 597 383 597 396 569 c 128,-1,31
 409 541 409 541 414 509 c 0,32,33
 419 489 419 489 419 467 c 0,34,35
 419 444 419 444 417 423 c 0,36,37
 414 390 414 390 409.5 371 c 128,-1,38
 405 352 405 352 396 340 c 128,-1,39
 387 328 387 328 371 318.5 c 128,-1,40
 355 309 355 309 330 294 c 0,41,42
 299 276 299 276 267 265 c 1,43,44
 302 214 302 214 347.5 168.5 c 128,-1,45
 393 123 393 123 432 75 c 0,46,47
 442 61 442 61 442 48 c 2,48,-1
 442 43 l 2,49,50
 439 27 439 27 428.5 18 c 128,-1,51
 418 9 418 9 402 9 c 256,52,53
 386 9 386 9 371 24 c 0,54,55
 349 51 349 51 324 77 c 128,-1,56
 299 103 299 103 275 129.5 c 128,-1,57
 251 156 251 156 228.5 183.5 c 128,-1,58
 206 211 206 211 188 241 c 2,59,-1
 185 247 l 1,0,1
318 547 m 0,60,61
 308 563 308 563 286.5 569 c 128,-1,62
 265 575 265 575 240 576 c 2,63,-1
 232 576 l 2,64,65
 210 576 210 576 188 573 c 0,66,67
 161 570 161 570 142 568 c 1,68,-1
 142 324 l 1,69,-1
 169 324 l 1,70,71
 169 325 169 325 170 325 c 0,72,73
 190 330 190 330 209 330.5 c 128,-1,74
 228 331 228 331 248 340 c 0,75,76
 255 343 255 343 266 350 c 128,-1,77
 277 357 277 357 288 364 c 128,-1,78
 299 371 299 371 310.5 378 c 128,-1,79
 322 385 322 385 331 388 c 1,80,81
 334 399 334 399 336 411.5 c 128,-1,82
 338 424 338 424 338 432 c 0,83,84
 339 444 339 444 339 455 c 0,85,86
 339 473 339 473 337 492 c 0,87,88
 334 522 334 522 318 547 c 0,60,61
326 375 m 1,89,-1
 326 374 l 1,90,91
 327 375 327 375 328 377 c 1,92,-1
 326 375 l 1,89,-1
EndSplineSet
Validated: 1
EndChar

StartChar: S
Encoding: 83 83 54
Width: 595
GlyphClass: 1
Flags: W
LayerCount: 2
Fore
SplineSet
83 132 m 0,0,1
 94 136 94 136 103 136 c 0,2,3
 110 136 110 136 117 134 c 0,4,5
 131 128 131 128 137 116 c 1,6,7
 153 105 153 105 173.5 98.5 c 128,-1,8
 194 92 194 92 211 86 c 0,9,10
 249 79 249 79 286 79 c 0,11,12
 299 79 299 79 312 80 c 0,13,14
 362 83 362 83 407 110 c 0,15,16
 423 120 423 120 434.5 137 c 128,-1,17
 446 154 446 154 451 174 c 0,18,19
 453 184 453 184 453 194 c 0,20,21
 453 203 453 203 451 212 c 0,22,23
 447 231 447 231 431 246 c 0,24,25
 409 267 409 267 381.5 280.5 c 128,-1,26
 354 294 354 294 324 304.5 c 128,-1,27
 294 315 294 315 263.5 323.5 c 128,-1,28
 233 332 233 332 206 343 c 0,29,30
 188 351 188 351 170.5 360.5 c 128,-1,31
 153 370 153 370 135 378 c 0,32,33
 124 384 124 384 112.5 393 c 128,-1,34
 101 402 101 402 91.5 414 c 128,-1,35
 82 426 82 426 76 439 c 128,-1,36
 70 452 70 452 70 465 c 0,37,38
 71 488 71 488 75 513 c 128,-1,39
 79 538 79 538 93 555 c 0,40,41
 116 583 116 583 159.5 609 c 128,-1,42
 203 635 203 635 252 649 c 0,43,44
 291 661 291 661 330 661 c 0,45,46
 339 661 339 661 347 660 c 0,47,48
 394 657 394 657 424 627 c 0,49,50
 433 618 433 618 436 604.5 c 128,-1,51
 439 591 439 591 442 580 c 0,52,53
 445 571 445 571 445 563 c 0,54,55
 445 554 445 554 441 546 c 0,56,57
 433 532 433 532 420 527 c 0,58,59
 414 525 414 525 407 525 c 256,60,61
 400 525 400 525 392 528 c 0,62,63
 377 533 377 533 367 551 c 0,64,65
 365 557 365 557 364.5 562.5 c 128,-1,66
 364 568 364 568 361 573 c 0,67,68
 357 581 357 581 341 582 c 2,69,-1
 337 582 l 2,70,71
 323 582 323 582 304 578 c 0,72,73
 283 574 283 574 259 565.5 c 128,-1,74
 235 557 235 557 214 547.5 c 128,-1,75
 193 538 193 538 178 527.5 c 128,-1,76
 163 517 163 517 160 509 c 256,77,78
 157 501 157 501 156 491.5 c 128,-1,79
 155 482 155 482 153 473 c 1,80,81
 175 445 175 445 206 428.5 c 128,-1,82
 237 412 237 412 272 400.5 c 128,-1,83
 307 389 307 389 343 379 c 128,-1,84
 379 369 379 369 409 354 c 0,85,86
 427 345 427 345 444 333 c 128,-1,87
 461 321 461 321 478 310 c 0,88,89
 489 303 489 303 500.5 291 c 128,-1,90
 512 279 512 279 520 264.5 c 128,-1,91
 528 250 528 250 533 235 c 0,92,93
 535 226 535 226 535 217 c 0,94,95
 535 212 535 212 534 206 c 0,96,97
 529 181 529 181 527 155.5 c 128,-1,98
 525 130 525 130 511 108 c 0,99,100
 490 72 490 72 457 49 c 128,-1,101
 424 26 424 26 386 13.5 c 128,-1,102
 348 1 348 1 306 -1 c 0,103,104
 294 -2 294 -2 281 -2 c 0,105,106
 253 -2 253 -2 225 2 c 0,107,108
 196 7 196 7 175.5 14.5 c 128,-1,109
 155 22 155 22 127 34 c 0,110,111
 117 39 117 39 104.5 44.5 c 128,-1,112
 92 50 92 50 82 57 c 0,113,114
 79 59 79 59 75 65 c 1,115,116
 75 64 75 64 76 63 c 1,117,118
 60 80 60 80 60 96 c 0,119,120
 60 114 60 114 79 130 c 0,121,122
 81 132 81 132 83 132 c 0,0,1
EndSplineSet
Validated: 5
EndChar

StartChar: T
Encoding: 84 84 55
Width: 683
GlyphClass: 1
Flags: W
LayerCount: 2
Fore
SplineSet
100 553 m 0,0,1
 79 555 79 555 70 568 c 0,2,3
 60 579 60 579 60 593 c 1,4,-1
 61 594 l 1,5,6
 61 608 61 608 72 619.5 c 128,-1,7
 83 631 83 631 104 632 c 0,8,9
 146 632 146 632 188 643 c 128,-1,10
 230 654 230 654 272 658 c 0,11,12
 332 664 332 664 393 664 c 2,13,-1
 431 664 l 2,14,15
 510 661 510 661 589 659 c 1,16,17
 607 654 607 654 615 643 c 256,18,19
 623 632 623 632 623 620 c 2,20,-1
 623 618 l 2,21,22
 622 605 622 605 612.5 594 c 128,-1,23
 603 583 603 583 585 580 c 0,24,25
 533 580 533 580 481 582 c 0,26,27
 446 583 446 583 412 583 c 2,28,-1
 377 583 l 1,29,-1
 377 581 l 2,30,31
 377 580 377 580 376.5 579 c 128,-1,32
 376 578 376 578 376 576 c 2,33,-1
 376 25 l 2,34,35
 375 4 375 4 363.5 -7 c 128,-1,36
 352 -18 352 -18 338 -18 c 1,37,-1
 337 -19 l 1,38,39
 323 -19 323 -19 312 -9 c 0,40,41
 299 0 299 0 297 21 c 2,42,-1
 297 526 l 2,43,44
 297 538 297 538 295 552 c 0,45,46
 294 561 294 561 294 571 c 2,47,-1
 294 580 l 1,48,49
 291 579 291 579 288 579 c 2,50,-1
 281 579 l 1,51,52
 236 574 236 574 191.5 564.5 c 128,-1,53
 147 555 147 555 100 553 c 0,0,1
EndSplineSet
Validated: 1
EndChar

StartChar: U
Encoding: 85 85 56
Width: 581
GlyphClass: 1
Flags: W
LayerCount: 2
Fore
SplineSet
85 541 m 0,0,1
 86 546 86 546 86.5 554.5 c 128,-1,2
 87 563 87 563 87 572 c 0,3,4
 87 580 87 580 87.5 586.5 c 128,-1,5
 88 593 88 593 88 594 c 0,6,7
 89 612 89 612 99.5 622.5 c 128,-1,8
 110 633 110 633 124 635 c 2,9,-1
 129 635 l 2,10,11
 140 635 140 635 150 629 c 0,12,13
 162 621 162 621 167 602 c 0,14,15
 170 585 170 585 170 568 c 0,16,17
 170 545 170 545 165 522 c 0,18,19
 154 481 154 481 147 443 c 0,20,21
 140 403 140 403 140 364 c 0,22,23
 140 356 140 356 141 349 c 0,24,25
 142 301 142 301 144 254 c 0,26,27
 145 222 145 222 146.5 196 c 128,-1,28
 148 170 148 170 154.5 148.5 c 128,-1,29
 161 127 161 127 176.5 108.5 c 128,-1,30
 192 90 192 90 222 73 c 0,31,32
 227 73 227 73 231.5 72.5 c 128,-1,33
 236 72 236 72 241 72 c 0,34,35
 260 74 260 74 279.5 74.5 c 128,-1,36
 299 75 299 75 318.5 78 c 128,-1,37
 338 81 338 81 356 87 c 128,-1,38
 374 93 374 93 389 105 c 0,39,40
 400 114 400 114 406.5 127 c 128,-1,41
 413 140 413 140 417 154.5 c 128,-1,42
 421 169 421 169 423 183.5 c 128,-1,43
 425 198 425 198 427 210 c 0,44,45
 440 292 440 292 440 376 c 2,46,-1
 440 394 l 2,47,48
 438 486 438 486 437 577 c 0,49,50
 440 595 440 595 451 604.5 c 128,-1,51
 462 614 462 614 475 615 c 2,52,-1
 477 615 l 2,53,54
 489 615 489 615 500 607 c 256,55,56
 511 599 511 599 516 581 c 1,57,58
 517 524 517 524 520 459 c 0,59,60
 521 423 521 423 521 387 c 0,61,62
 521 358 521 358 520 329 c 0,63,64
 518 263 518 263 508 200.5 c 128,-1,65
 498 138 498 138 474 84 c 0,66,67
 462 58 462 58 441 41.5 c 128,-1,68
 420 25 420 25 393.5 16 c 128,-1,69
 367 7 367 7 339 2.5 c 128,-1,70
 311 -2 311 -2 286 -4 c 0,71,72
 266 -6 266 -6 241 -8 c 2,73,-1
 231 -8 l 2,74,75
 211 -8 211 -8 194 -2 c 0,76,77
 159 13 159 13 128.5 43.5 c 128,-1,78
 98 74 98 74 81 108 c 0,79,80
 73 124 73 124 69 151 c 128,-1,81
 65 178 65 178 62.5 210.5 c 128,-1,82
 60 243 60 243 60 278 c 256,83,84
 60 313 60 313 61 346 c 128,-1,85
 62 379 62 379 64 406.5 c 128,-1,86
 66 434 66 434 68 452 c 0,87,88
 71 475 71 475 77 496.5 c 128,-1,89
 83 518 83 518 85 541 c 0,0,1
EndSplineSet
Validated: 1
EndChar

StartChar: V
Encoding: 86 86 57
Width: 599
GlyphClass: 1
Flags: W
LayerCount: 2
Fore
SplineSet
460 594 m 0,0,1
 464 615 464 615 477 624 c 0,2,3
 488 632 488 632 500 632 c 2,4,-1
 504 632 l 2,5,6
 518 630 518 630 529 618 c 0,7,8
 539 607 539 607 539 588 c 2,9,-1
 539 585 l 1,10,11
 531 484 531 484 497.5 382 c 128,-1,12
 464 280 464 280 415 190 c 0,13,14
 406 173 406 173 391.5 154 c 128,-1,15
 377 135 377 135 362.5 115 c 128,-1,16
 348 95 348 95 336.5 74.5 c 128,-1,17
 325 54 325 54 322 36 c 0,18,19
 316 20 316 20 305.5 13 c 128,-1,20
 295 6 295 6 284 5 c 1,21,22
 272 -2 272 -2 255 -2 c 2,23,-1
 251 -2 l 1,24,25
 233 3 233 3 224.5 16 c 128,-1,26
 216 29 216 29 212.5 45.5 c 128,-1,27
 209 62 209 62 208 79.5 c 128,-1,28
 207 97 207 97 204 111 c 0,29,30
 201 127 201 127 196.5 142 c 128,-1,31
 192 157 192 157 187 171 c 0,32,33
 168 229 168 229 148 279 c 128,-1,34
 128 329 128 329 110.5 378.5 c 128,-1,35
 93 428 93 428 79.5 480 c 128,-1,36
 66 532 66 532 60 594 c 1,37,38
 63 612 63 612 74 621.5 c 128,-1,39
 85 631 85 631 98 632 c 2,40,-1
 100 632 l 2,41,42
 112 632 112 632 123 624 c 256,43,44
 134 616 134 616 139 598 c 0,45,46
 145 536 145 536 163 477 c 128,-1,47
 181 418 181 418 202 360.5 c 128,-1,48
 223 303 223 303 243.5 245.5 c 128,-1,49
 264 188 264 188 277 128 c 1,50,51
 294 153 294 153 311.5 176.5 c 128,-1,52
 329 200 329 200 343 225 c 0,53,54
 389 310 389 310 420.5 404 c 128,-1,55
 452 498 452 498 460 594 c 0,0,1
EndSplineSet
Validated: 1
EndChar

StartChar: W
Encoding: 87 87 58
Width: 927
GlyphClass: 1
Flags: W
LayerCount: 2
Fore
SplineSet
60 608 m 1,0,1
 63 626 63 626 74 635.5 c 128,-1,2
 85 645 85 645 98 646 c 2,3,-1
 100 646 l 2,4,5
 112 646 112 646 123 638 c 256,6,7
 134 630 134 630 139 612 c 0,8,9
 143 562 143 562 155.5 514 c 128,-1,10
 168 466 168 466 183 419 c 128,-1,11
 198 372 198 372 212 324 c 128,-1,12
 226 276 226 276 233 227 c 0,13,14
 238 203 238 203 238 179 c 2,15,-1
 238 174 l 2,16,17
 237 170 237 170 237 166 c 0,18,19
 237 143 237 143 240 120 c 1,20,21
 248 135 248 135 255 150 c 128,-1,22
 262 165 262 165 266 174 c 0,23,24
 297 242 297 242 323.5 310.5 c 128,-1,25
 350 379 350 379 376 448 c 0,26,27
 393 493 393 493 406.5 530 c 128,-1,28
 420 567 420 567 446 605 c 1,29,30
 461 618 461 618 476 618 c 0,31,32
 490 618 490 618 505 607 c 1,33,34
 517 593 517 593 520 579.5 c 128,-1,35
 523 566 523 566 523 552 c 0,36,37
 523 537 523 537 522 522 c 2,38,-1
 522 515 l 2,39,40
 522 503 522 503 525 490 c 0,41,42
 529 473 529 473 536 447.5 c 128,-1,43
 543 422 543 422 549 401 c 0,44,45
 556 384 556 384 560.5 366.5 c 128,-1,46
 565 349 565 349 572 332 c 0,47,48
 584 298 584 298 600 266 c 128,-1,49
 616 234 616 234 629 200 c 0,50,51
 634 187 634 187 637 174.5 c 128,-1,52
 640 162 640 162 643 149 c 1,53,54
 644 153 644 153 644.5 157.5 c 128,-1,55
 645 162 645 162 647 167 c 0,56,57
 655 207 655 207 663.5 261.5 c 128,-1,58
 672 316 672 316 684.5 371.5 c 128,-1,59
 697 427 697 427 714.5 476.5 c 128,-1,60
 732 526 732 526 758 557 c 0,61,62
 768 569 768 569 778 580 c 128,-1,63
 788 591 788 591 798 602 c 0,64,65
 813 614 813 614 828 614 c 2,66,-1
 830 614 l 2,67,68
 846 613 846 613 856 603 c 128,-1,69
 866 593 866 593 867 577 c 2,70,-1
 867 575 l 2,71,72
 867 560 867 560 855 545 c 0,73,74
 811 496 811 496 787 430.5 c 128,-1,75
 763 365 763 365 748 293 c 128,-1,76
 733 221 733 221 721 148 c 128,-1,77
 709 75 709 75 688 12 c 0,78,79
 683 1 683 1 678.5 -5 c 128,-1,80
 674 -11 674 -11 663 -18 c 1,81,-1
 661 -18 l 2,82,83
 653 -20 653 -20 647 -20 c 0,84,85
 636 -20 636 -20 629 -15 c 0,86,87
 617 -9 617 -9 608 8 c 0,88,89
 606 13 606 13 605 18.5 c 128,-1,90
 604 24 604 24 602 29 c 0,91,92
 585 63 585 63 576.5 99.5 c 128,-1,93
 568 136 568 136 554 171 c 0,94,95
 545 197 545 197 533 220.5 c 128,-1,96
 521 244 521 244 510 270 c 0,97,98
 493 312 493 312 479.5 353 c 128,-1,99
 466 394 466 394 457 437 c 1,100,-1
 448 413 l 2,101,102
 422 344 422 344 395.5 275.5 c 128,-1,103
 369 207 369 207 338 139 c 0,104,105
 333 128 333 128 323 105.5 c 128,-1,106
 313 83 313 83 300 59.5 c 128,-1,107
 287 36 287 36 272.5 17.5 c 128,-1,108
 258 -1 258 -1 244 -4 c 0,109,110
 236 -5 236 -5 230 -5 c 0,111,112
 223 -5 223 -5 218 -4 c 0,113,114
 208 -1 208 -1 197 10 c 0,115,116
 192 17 192 17 188.5 24.5 c 128,-1,117
 185 32 185 32 183 40 c 0,118,119
 182 41 182 41 181.5 43.5 c 128,-1,120
 181 46 181 46 180 48 c 0,121,122
 179 51 179 51 178 53 c 0,123,124
 174 61 174 61 171 68 c 128,-1,125
 168 75 168 75 168 76 c 0,126,127
 159 106 159 106 159 137 c 2,128,-1
 159 154 l 2,129,130
 159 183 159 183 155 211 c 0,131,132
 147 262 147 262 133 311 c 128,-1,133
 119 360 119 360 104 409 c 128,-1,134
 89 458 89 458 76.5 507.5 c 128,-1,135
 64 557 64 557 60 608 c 1,0,1
556 375 m 2,136,137
 556 377 556 377 555 378 c 1,138,139
 556 375 556 375 557 374 c 1,140,-1
 556 375 l 2,136,137
EndSplineSet
Validated: 5
EndChar

StartChar: X
Encoding: 88 88 59
Width: 624
GlyphClass: 1
Flags: W
LayerCount: 2
Fore
SplineSet
511 636 m 1,0,-1
 515 636 l 2,1,2
 529 636 529 636 539 630 c 0,3,4
 550 623 550 623 555 612 c 0,5,6
 557 605 557 605 557 598 c 0,7,8
 557 593 557 593 556 589 c 0,9,10
 553 576 553 576 542 566 c 0,11,12
 542 565 542 565 540.5 564 c 128,-1,13
 539 563 539 563 539 562 c 0,14,15
 529 551 529 551 519 541 c 128,-1,16
 509 531 509 531 499 520 c 0,17,18
 487 506 487 506 475 492.5 c 128,-1,19
 463 479 463 479 451 465 c 0,20,21
 428 437 428 437 405 410 c 128,-1,22
 382 383 382 383 359 354 c 1,23,24
 410 283 410 283 456.5 210 c 128,-1,25
 503 137 503 137 554 65 c 0,26,27
 564 51 564 51 564 38 c 2,28,-1
 564 33 l 2,29,30
 561 17 561 17 550.5 8 c 128,-1,31
 540 -1 540 -1 524 -1 c 256,32,33
 508 -1 508 -1 493 14 c 0,34,35
 445 82 445 82 400.5 151.5 c 128,-1,36
 356 221 356 221 308 289 c 1,37,38
 285 259 285 259 263 228 c 128,-1,39
 241 197 241 197 220 165 c 0,40,41
 209 149 209 149 199 133 c 128,-1,42
 189 117 189 117 180 100 c 0,43,44
 174 89 174 89 169 76 c 128,-1,45
 164 63 164 63 157.5 49.5 c 128,-1,46
 151 36 151 36 143 23.5 c 128,-1,47
 135 11 135 11 125 3 c 0,48,49
 111 -5 111 -5 99 -5 c 0,50,51
 96 -5 96 -5 94 -4 c 0,52,53
 79 -2 79 -2 70 8 c 128,-1,54
 61 18 61 18 60 32 c 2,55,-1
 60 34 l 2,56,57
 60 47 60 47 70 60 c 1,58,-1
 69 60 l 2,59,60
 67 60 67 60 67 61 c 0,61,62
 67 63 67 63 72 67 c 0,63,64
 79 73 79 73 82 78 c 0,65,66
 102 114 102 114 117 145 c 128,-1,67
 132 176 132 176 155 211 c 0,68,69
 180 248 180 248 205.5 284.5 c 128,-1,70
 231 321 231 321 259 356 c 1,71,72
 245 374 245 374 230.5 392 c 128,-1,73
 216 410 216 410 201 427 c 0,74,75
 197 432 197 432 186 444 c 128,-1,76
 175 456 175 456 160 472.5 c 128,-1,77
 145 489 145 489 129 508.5 c 128,-1,78
 113 528 113 528 100 546 c 128,-1,79
 87 564 87 564 79 579 c 0,80,81
 72 592 72 592 72 601 c 2,82,-1
 72 603 l 2,83,84
 74 615 74 615 78 621.5 c 128,-1,85
 82 628 82 628 91 636 c 0,86,87
 93 636 93 636 93.5 636.5 c 128,-1,88
 94 637 94 637 95 637 c 0,89,90
 105 640 105 640 114 640 c 0,91,92
 126 640 126 640 136 635 c 0,93,94
 152 624 152 624 154 607 c 1,95,96
 163 597 163 597 170 588 c 128,-1,97
 177 579 177 579 185 568 c 0,98,99
 204 545 204 545 223 523 c 128,-1,100
 242 501 242 501 262 478 c 0,101,102
 274 464 274 464 286 449 c 128,-1,103
 298 434 298 434 310 420 c 1,104,105
 330 444 330 444 350 468 c 128,-1,106
 370 492 370 492 390 516 c 0,107,108
 402 530 402 530 415 548 c 128,-1,109
 428 566 428 566 443 583.5 c 128,-1,110
 458 601 458 601 475 615.5 c 128,-1,111
 492 630 492 630 511 636 c 1,0,-1
EndSplineSet
Validated: 1
EndChar

StartChar: Y
Encoding: 89 89 60
Width: 586
GlyphClass: 1
Flags: W
LayerCount: 2
Fore
SplineSet
60 574 m 1,0,-1
 60 581 l 2,1,2
 60 595 60 595 66 605 c 0,3,4
 73 617 73 617 85 622 c 0,5,6
 91 625 91 625 98 625 c 0,7,8
 104 625 104 625 111 623 c 0,9,10
 124 618 124 618 135 603 c 1,11,12
 144 570 144 570 161 540.5 c 128,-1,13
 178 511 178 511 199 483.5 c 128,-1,14
 220 456 220 456 242 429 c 128,-1,15
 264 402 264 402 284 374 c 1,16,17
 292 388 292 388 300.5 400 c 128,-1,18
 309 412 309 412 318 426 c 0,19,20
 333 448 333 448 348.5 476.5 c 128,-1,21
 364 505 364 505 382 532.5 c 128,-1,22
 400 560 400 560 421 582.5 c 128,-1,23
 442 605 442 605 467 617 c 0,24,25
 478 621 478 621 487 621 c 0,26,27
 495 621 495 621 502 618 c 0,28,29
 516 612 516 612 522 600 c 0,30,31
 526 592 526 592 526 583 c 0,32,33
 526 578 526 578 524 572 c 0,34,35
 520 556 520 556 502 545 c 0,36,37
 490 540 490 540 481 528 c 128,-1,38
 472 516 472 516 464 505 c 0,39,40
 457 496 457 496 441.5 470.5 c 128,-1,41
 426 445 426 445 406.5 413 c 128,-1,42
 387 381 387 381 366 348.5 c 128,-1,43
 345 316 345 316 327 294 c 1,44,-1
 327 52 l 2,45,46
 326 31 326 31 314.5 20 c 128,-1,47
 303 9 303 9 289 9 c 1,48,-1
 288 8 l 1,49,50
 274 8 274 8 263 18 c 0,51,52
 250 27 250 27 248 48 c 2,53,-1
 248 282 l 1,54,55
 244 285 244 285 243 290 c 0,56,57
 224 328 224 328 198 361.5 c 128,-1,58
 172 395 172 395 145.5 428.5 c 128,-1,59
 119 462 119 462 95.5 497 c 128,-1,60
 72 532 72 532 60 574 c 1,0,-1
EndSplineSet
Validated: 1
EndChar

StartChar: Z
Encoding: 90 90 61
Width: 531
GlyphClass: 1
Flags: W
LayerCount: 2
Fore
SplineSet
100 557 m 0,0,1
 79 559 79 559 70 572 c 0,2,3
 60 583 60 583 60 597 c 1,4,-1
 61 598 l 1,5,6
 61 612 61 612 72 623.5 c 128,-1,7
 83 635 83 635 104 636 c 0,8,9
 143 637 143 637 185.5 639 c 128,-1,10
 228 641 228 641 271 642 c 2,11,-1
 300 642 l 2,12,13
 328 642 328 642 356 641 c 0,14,15
 398 639 398 639 436 632 c 0,16,17
 451 628 451 628 458.5 620.5 c 128,-1,18
 466 613 466 613 470 598 c 0,19,20
 471 594 471 594 471 590 c 0,21,22
 471 576 471 576 461 556 c 0,23,24
 447 530 447 530 427 502.5 c 128,-1,25
 407 475 407 475 387.5 450.5 c 128,-1,26
 368 426 368 426 360 413 c 0,27,28
 323 353 323 353 294 287.5 c 128,-1,29
 265 222 265 222 235 158 c 0,30,31
 226 139 226 139 217 119.5 c 128,-1,32
 208 100 208 100 199 80 c 1,33,34
 219 83 219 83 238.5 85.5 c 128,-1,35
 258 88 258 88 278 88 c 2,36,-1
 294 88 l 2,37,38
 321 88 321 88 347 86 c 0,39,40
 381 82 381 82 416 80 c 0,41,42
 434 75 434 75 442 64 c 256,43,44
 450 53 450 53 450 41 c 2,45,-1
 450 39 l 2,46,47
 449 26 449 26 439.5 15 c 128,-1,48
 430 4 430 4 412 1 c 0,49,50
 372 2 372 2 332 7 c 0,51,52
 312 10 312 10 292 10 c 256,53,54
 272 10 272 10 251 7 c 0,55,56
 236 5 236 5 218.5 1 c 128,-1,57
 201 -3 201 -3 183 -5 c 0,58,59
 172 -7 172 -7 161 -7 c 0,60,61
 154 -7 154 -7 148 -6 c 0,62,63
 131 -5 131 -5 117 6 c 0,64,65
 109 14 109 14 105.5 21 c 128,-1,66
 102 28 102 28 100 40 c 1,67,68
 107 79 107 79 126.5 118.5 c 128,-1,69
 146 158 146 158 163 193 c 0,70,71
 190 252 190 252 217.5 309.5 c 128,-1,72
 245 367 245 367 275 424 c 0,73,74
 293 459 293 459 317.5 487.5 c 128,-1,75
 342 516 342 516 359 550 c 0,76,77
 360 551 360 551 361.5 553.5 c 128,-1,78
 363 556 363 556 365 560 c 1,79,80
 326 563 326 563 287 563 c 0,81,82
 260 563 260 563 232 562 c 0,83,84
 165 558 165 558 100 557 c 0,0,1
EndSplineSet
Validated: 1
EndChar

StartChar: bracketleft
Encoding: 91 91 62
Width: 350
GlyphClass: 1
Flags: W
LayerCount: 2
Fore
SplineSet
159 577 m 1,0,1
 159 554 159 554 157.5 526 c 128,-1,2
 156 498 156 498 154.5 470 c 128,-1,3
 153 442 153 442 152 418.5 c 128,-1,4
 151 395 151 395 151 381 c 0,5,6
 150 297 150 297 148 214 c 128,-1,7
 146 131 146 131 140 47 c 1,8,-1
 140 60 l 1,9,10
 139 42 139 42 139 24 c 0,11,12
 139 15 139 15 140 7 c 0,13,14
 140 -20 140 -20 142 -47 c 1,15,16
 156 -49 156 -49 170 -49 c 0,17,18
 185 -49 185 -49 199 -47 c 0,19,20
 228 -43 228 -43 256 -42 c 1,21,22
 274 -47 274 -47 282 -58 c 256,23,24
 290 -69 290 -69 290 -81 c 2,25,-1
 290 -83 l 2,26,27
 289 -96 289 -96 279.5 -107 c 128,-1,28
 270 -118 270 -118 252 -121 c 0,29,30
 230 -122 230 -122 205 -124 c 128,-1,31
 180 -126 180 -126 157 -126 c 0,32,33
 133 -126 133 -126 114 -123 c 128,-1,34
 95 -120 95 -120 86 -111 c 0,35,36
 75 -99 75 -99 69.5 -83.5 c 128,-1,37
 64 -68 64 -68 62 -51.5 c 128,-1,38
 60 -35 60 -35 60 -18 c 2,39,-1
 60 14 l 2,40,41
 62 105 62 105 66 196 c 128,-1,42
 70 287 70 287 72 378 c 0,43,44
 72 387 72 387 69 415.5 c 128,-1,45
 66 444 66 444 64 480 c 0,46,47
 62 509 62 509 62 539 c 0,48,49
 62 546 62 546 63 554 c 0,50,51
 63 591 63 591 70 617 c 0,52,53
 71 631 71 631 81.5 643 c 128,-1,54
 92 655 92 655 114 656 c 2,55,-1
 236 656 l 1,56,57
 254 651 254 651 262 640 c 256,58,59
 270 629 270 629 270 617 c 2,60,-1
 270 615 l 2,61,62
 269 602 269 602 259.5 591 c 128,-1,63
 250 580 250 580 232 577 c 2,64,-1
 159 577 l 1,0,1
EndSplineSet
Validated: 1
EndChar

StartChar: backslash
Encoding: 92 92 63
Width: 502
GlyphClass: 1
Flags: W
LayerCount: 2
Fore
SplineSet
63 628 m 0,0,1
 72 643 72 643 85 649 c 0,2,3
 94 652 94 652 102 652 c 2,4,-1
 110 652 l 2,5,6
 122 649 122 649 130.5 638.5 c 128,-1,7
 139 628 139 628 140 612 c 0,8,9
 140 609 140 609 141 606 c 0,10,11
 148 580 148 580 159.5 557.5 c 128,-1,12
 171 535 171 535 184.5 513.5 c 128,-1,13
 198 492 198 492 213 470.5 c 128,-1,14
 228 449 228 449 242 427 c 0,15,16
 268 386 268 386 298.5 337.5 c 128,-1,17
 329 289 329 289 357.5 237.5 c 128,-1,18
 386 186 386 186 408.5 134.5 c 128,-1,19
 431 83 431 83 442 36 c 1,20,21
 442 18 442 18 433 7 c 128,-1,22
 424 -4 424 -4 412 -6 c 0,23,24
 408 -7 408 -7 404 -7 c 0,25,26
 395 -7 395 -7 386 -3 c 0,27,28
 373 3 373 3 364 19 c 1,29,30
 354 63 354 63 329.5 116 c 128,-1,31
 305 169 305 169 274.5 223 c 128,-1,32
 244 277 244 277 211.5 327.5 c 128,-1,33
 179 378 179 378 154 417 c 0,34,35
 141 436 141 436 122.5 462 c 128,-1,36
 104 488 104 488 88.5 516 c 128,-1,37
 73 544 73 544 65 573 c 0,38,39
 60 589 60 589 60 604 c 0,40,41
 60 616 60 616 63 628 c 0,0,1
EndSplineSet
Validated: 1
EndChar

StartChar: bracketright
Encoding: 93 93 64
Width: 304
GlyphClass: 1
Flags: W
LayerCount: 2
Fore
SplineSet
100 563 m 0,0,1
 82 565 82 565 72 575.5 c 128,-1,2
 62 586 62 586 61 599 c 0,3,4
 60 601 60 601 60 603 c 0,5,6
 60 613 60 613 67 624 c 0,7,8
 74 636 74 636 91 642 c 1,9,10
 106 643 106 643 125 645.5 c 128,-1,11
 144 648 144 648 163 648 c 0,12,13
 181 648 181 648 198.5 644 c 128,-1,14
 216 640 216 640 228 628 c 0,15,16
 237 619 237 619 240 603 c 128,-1,17
 243 587 243 587 244 569 c 2,18,-1
 244 560 l 2,19,20
 244 547 244 547 243 535 c 0,21,22
 241 518 241 518 241 510 c 0,23,24
 241 441 241 441 240.5 373.5 c 128,-1,25
 240 306 240 306 240 237 c 0,26,27
 241 197 241 197 241 158 c 2,28,-1
 241 77 l 2,29,30
 241 18 241 18 243 -20 c 2,31,-1
 243 -30 l 2,32,33
 243 -62 243 -62 234 -81 c 0,34,35
 223 -103 223 -103 193 -110 c 0,36,37
 172 -116 172 -116 133 -116 c 0,38,39
 118 -116 118 -116 100 -115 c 0,40,41
 79 -113 79 -113 70 -100 c 0,42,43
 60 -89 60 -89 60 -75 c 1,44,-1
 61 -74 l 1,45,46
 61 -60 61 -60 72 -48.5 c 128,-1,47
 83 -37 83 -37 104 -36 c 0,48,49
 118 -36 118 -36 130.5 -37 c 128,-1,50
 143 -38 143 -38 156 -38 c 1,51,-1
 162 -36 l 1,52,53
 165 27 165 27 165 90 c 0,54,55
 165 128 165 128 164 166 c 0,56,57
 161 266 161 266 160 366 c 0,58,59
 160 416 160 416 162 466 c 0,60,61
 163 491 163 491 163 516 c 256,62,63
 163 541 163 541 162 566 c 1,64,-1
 152 566 l 2,65,66
 139 566 139 566 126.5 565 c 128,-1,67
 114 564 114 564 100 563 c 0,0,1
EndSplineSet
Validated: 1
EndChar

StartChar: asciicircum
Encoding: 94 94 65
Width: 587
GlyphClass: 1
Flags: W
LayerCount: 2
Fore
SplineSet
238 688 m 0,0,1
 249 692 249 692 258 692 c 0,2,3
 262 692 262 692 266 691 c 0,4,5
 278 689 278 689 286 681 c 2,6,-1
 290 679 l 1,7,8
 320 639 320 639 353 602 c 128,-1,9
 386 565 386 565 418 526 c 0,10,11
 445 493 445 493 468.5 457.5 c 128,-1,12
 492 422 492 422 517 387 c 0,13,14
 527 373 527 373 527 360 c 2,15,-1
 527 355 l 2,16,17
 524 339 524 339 513.5 330 c 128,-1,18
 503 321 503 321 487 321 c 256,19,20
 471 321 471 321 456 336 c 0,21,22
 431 371 431 371 407.5 406 c 128,-1,23
 384 441 384 441 357 474 c 0,24,25
 332 504 332 504 306.5 532.5 c 128,-1,26
 281 561 281 561 257 591 c 1,27,28
 242 568 242 568 226.5 537 c 128,-1,29
 211 506 211 506 196 474 c 128,-1,30
 181 442 181 442 165 412 c 128,-1,31
 149 382 149 382 133 362 c 0,32,33
 119 346 119 346 104 345 c 0,34,35
 101 344 101 344 99 344 c 0,36,37
 86 344 86 344 77 352 c 0,38,39
 65 360 65 360 61 376 c 0,40,41
 60 380 60 380 60 384 c 0,42,43
 60 396 60 396 68 409 c 0,44,45
 93 439 93 439 111 478 c 128,-1,46
 129 517 129 517 147 556.5 c 128,-1,47
 165 596 165 596 186.5 631 c 128,-1,48
 208 666 208 666 238 688 c 0,0,1
EndSplineSet
Validated: 1
EndChar

StartChar: underscore
Encoding: 95 95 66
Width: 741
GlyphClass: 1
Flags: W
LayerCount: 2
Fore
SplineSet
100 -223 m 0,0,1
 79 -221 79 -221 70 -208 c 0,2,3
 60 -197 60 -197 60 -183 c 1,4,-1
 61 -182 l 1,5,6
 61 -168 61 -168 72 -156.5 c 128,-1,7
 83 -145 83 -145 104 -144 c 0,8,9
 172 -145 172 -145 240 -149 c 128,-1,10
 308 -153 308 -153 375.5 -157.5 c 128,-1,11
 443 -162 443 -162 511 -166 c 128,-1,12
 579 -170 579 -170 647 -171 c 1,13,14
 665 -176 665 -176 673 -187 c 256,15,16
 681 -198 681 -198 681 -210 c 2,17,-1
 681 -212 l 2,18,19
 680 -225 680 -225 670.5 -236 c 128,-1,20
 661 -247 661 -247 643 -250 c 0,21,22
 507 -248 507 -248 371.5 -236.5 c 128,-1,23
 236 -225 236 -225 100 -223 c 0,0,1
EndSplineSet
Validated: 1
EndChar

StartChar: grave
Encoding: 96 96 67
Width: 276
GlyphClass: 1
Flags: W
LayerCount: 2
Fore
SplineSet
60 649 m 1,0,-1
 60 656 l 2,1,2
 60 670 60 670 66 680 c 0,3,4
 73 692 73 692 85 697 c 0,5,6
 91 700 91 700 98 700 c 0,7,8
 104 700 104 700 111 698 c 0,9,10
 124 693 124 693 135 678 c 0,11,12
 139 669 139 669 145 656.5 c 128,-1,13
 151 644 151 644 158.5 631.5 c 128,-1,14
 166 619 166 619 175 609 c 128,-1,15
 184 599 184 599 194 595 c 0,16,17
 209 584 209 584 214 571 c 0,18,19
 216 564 216 564 216 558 c 0,20,21
 216 551 216 551 213 545 c 0,22,23
 208 533 208 533 196 526 c 0,24,25
 186 520 186 520 172 520 c 2,26,-1
 165 520 l 1,27,28
 145 527 145 527 129.5 541.5 c 128,-1,29
 114 556 114 556 101.5 574 c 128,-1,30
 89 592 89 592 79 611.5 c 128,-1,31
 69 631 69 631 60 649 c 1,0,-1
EndSplineSet
Validated: 1
EndChar

StartChar: a
Encoding: 97 97 68
Width: 506
GlyphClass: 1
Flags: W
LayerCount: 2
Fore
SplineSet
176 362 m 0,0,1
 172 360 172 360 167.5 355.5 c 128,-1,2
 163 351 163 351 158 346 c 0,3,4
 149 331 149 331 136 327 c 0,5,6
 129 324 129 324 123 324 c 0,7,8
 116 324 116 324 110 327 c 0,9,10
 97 332 97 332 89 345 c 0,11,12
 84 354 84 354 84 365 c 0,13,14
 84 371 84 371 85 377 c 0,15,16
 93 403 93 403 113.5 417 c 128,-1,17
 134 431 134 431 157 440 c 0,18,19
 170 445 170 445 182 453.5 c 128,-1,20
 194 462 194 462 207 464 c 0,21,22
 227 468 227 468 248 468 c 0,23,24
 265 468 265 468 282 466 c 0,25,26
 320 460 320 460 353 447 c 0,27,28
 358 445 358 445 365 438.5 c 128,-1,29
 372 432 372 432 379 424 c 0,30,31
 386 415 386 415 394 405 c 0,32,33
 418 376 418 376 429 327.5 c 128,-1,34
 440 279 440 279 444 226 c 0,35,36
 446 188 446 188 446 152 c 2,37,-1
 446 121 l 2,38,39
 444 69 444 69 443 36 c 0,40,41
 442 15 442 15 430.5 4 c 128,-1,42
 419 -7 419 -7 405 -7 c 1,43,-1
 404 -8 l 1,44,45
 390 -8 390 -8 379 2 c 0,46,47
 366 11 366 11 364 32 c 2,48,-1
 364 47 l 1,49,50
 322 46 322 46 282 45 c 0,51,52
 257 44 257 44 232 44 c 2,53,-1
 199 44 l 2,54,55
 173 45 173 45 142 47 c 128,-1,56
 111 49 111 49 89 65 c 0,57,58
 64 83 64 83 61 108 c 0,59,60
 60 115 60 115 60 121 c 0,61,62
 60 139 60 139 67 157 c 0,63,64
 76 181 76 181 94.5 202 c 128,-1,65
 113 223 113 223 132 234 c 0,66,67
 156 247 156 247 184 253 c 128,-1,68
 212 259 212 259 242 261 c 2,69,-1
 302 261 l 2,70,71
 332 259 332 259 360 257 c 1,72,73
 355 299 355 299 344.5 331 c 128,-1,74
 334 363 334 363 314 375 c 0,75,76
 296 386 296 386 272 386 c 2,77,-1
 228 386 l 1,78,79
 215 379 215 379 202.5 373.5 c 128,-1,80
 190 368 190 368 176 362 c 0,0,1
366 178 m 1,81,82
 338 180 338 180 305 182 c 0,83,84
 292 183 292 183 279 183 c 0,85,86
 259 183 259 183 241 181 c 0,87,88
 209 178 209 178 183 167.5 c 128,-1,89
 157 157 157 157 142 134 c 0,90,91
 142 133 142 133 141.5 132 c 128,-1,92
 141 131 141 131 141 130 c 2,93,-1
 141 129 l 1,94,95
 188 122 188 122 235 122 c 0,96,97
 244 122 244 122 253 123 c 0,98,99
 309 124 309 124 366 126 c 1,100,-1
 366 178 l 1,81,82
EndSplineSet
Validated: 1
EndChar

StartChar: b
Encoding: 98 98 69
Width: 509
GlyphClass: 1
Flags: W
LayerCount: 2
Fore
SplineSet
60 601 m 2,0,1
 63 619 63 619 74 628.5 c 128,-1,2
 85 638 85 638 98 639 c 2,3,-1
 100 639 l 2,4,5
 112 639 112 639 123 631 c 256,6,7
 134 623 134 623 139 605 c 1,8,-1
 139 419 l 1,9,10
 161 437 161 437 192 445 c 0,11,12
 220 452 220 452 248 452 c 2,13,-1
 255 452 l 2,14,15
 287 451 287 451 316 441.5 c 128,-1,16
 345 432 345 432 365 414 c 0,17,18
 386 394 386 394 402 369 c 128,-1,19
 418 344 418 344 429 317 c 0,20,21
 449 267 449 267 449 224 c 2,22,-1
 449 220 l 2,23,24
 448 174 448 174 428.5 137 c 128,-1,25
 409 100 409 100 372 72.5 c 128,-1,26
 335 45 335 45 283 30 c 0,27,28
 248 20 248 20 212 19 c 128,-1,29
 176 18 176 18 139 18 c 0,30,31
 134 18 134 18 132 19 c 0,32,33
 124 10 124 10 113 7 c 0,34,35
 108 6 108 6 102 6 c 0,36,37
 97 6 97 6 92 7 c 0,38,39
 81 10 81 10 73 19.5 c 128,-1,40
 65 29 65 29 64 45 c 0,41,42
 60 80 60 80 60 115 c 0,43,44
 60 119 60 119 61 124 c 2,45,-1
 61 150 l 2,46,47
 61 176 61 176 60 202 c 2,48,-1
 60 601 l 2,0,1
180 345 m 0,49,50
 174 328 174 328 163 321 c 256,51,52
 152 314 152 314 142 314 c 2,53,-1
 139 314 l 1,54,-1
 139 260 l 2,55,56
 139 232 139 232 140 205 c 2,57,-1
 140 151 l 2,58,59
 139 142 139 142 139 133 c 0,60,61
 139 115 139 115 140 96 c 0,62,63
 141 96 141 96 141.5 96.5 c 128,-1,64
 142 97 142 97 143 97 c 0,65,66
 189 97 189 97 236.5 104.5 c 128,-1,67
 284 112 284 112 318 133 c 128,-1,68
 352 154 352 154 365 191 c 0,69,70
 370 204 370 204 370 221 c 0,71,72
 370 250 370 250 355 288 c 0,73,74
 348 306 348 306 337.5 323.5 c 128,-1,75
 327 341 327 341 311 354 c 0,76,77
 302 362 302 362 282 367 c 0,78,79
 263 371 263 371 244 371 c 2,80,-1
 240 371 l 2,81,82
 218 370 218 370 200.5 364 c 128,-1,83
 183 358 183 358 180 345 c 0,49,50
EndSplineSet
Validated: 1
EndChar

StartChar: c
Encoding: 99 99 70
Width: 511
GlyphClass: 1
Flags: W
LayerCount: 2
Fore
SplineSet
451 317 m 0,0,1
 450 296 450 296 438.5 285 c 128,-1,2
 427 274 427 274 413 274 c 1,3,-1
 412 273 l 1,4,5
 398 273 398 273 387 283 c 0,6,7
 374 292 374 292 372 313 c 0,8,9
 371 322 371 322 358 343.5 c 128,-1,10
 345 365 345 365 324 381 c 256,11,12
 303 397 303 397 275 397 c 2,13,-1
 273 397 l 2,14,15
 244 396 244 396 211 362 c 0,16,17
 186 336 186 336 169 302 c 128,-1,18
 152 268 152 268 145 231 c 0,19,20
 140 204 140 204 140 176 c 0,21,22
 140 166 140 166 141 157 c 0,23,24
 143 119 143 119 157 86 c 1,25,26
 164 82 164 82 174 82 c 0,27,28
 176 82 176 82 177 83 c 2,29,-1
 211 83 l 2,30,31
 226 83 226 83 240 82 c 0,32,33
 261 80 261 80 283 80 c 0,34,35
 286 81 286 81 289 81 c 256,36,37
 292 81 292 81 295 82 c 0,38,39
 312 90 312 90 330.5 97 c 128,-1,40
 349 104 349 104 366 114 c 0,41,42
 369 116 369 116 371.5 118.5 c 128,-1,43
 374 121 374 121 377 123 c 0,44,45
 389 139 389 139 404 142 c 0,46,47
 408 143 408 143 412 143 c 0,48,49
 422 143 422 143 430 139 c 0,50,51
 442 132 442 132 448 118 c 0,52,53
 450 111 450 111 450 104 c 0,54,55
 450 95 450 95 446 84 c 0,56,57
 440 69 440 69 421.5 55 c 128,-1,58
 403 41 403 41 380 29.5 c 128,-1,59
 357 18 357 18 333.5 10.5 c 128,-1,60
 310 3 310 3 294 1 c 0,61,62
 285 0 285 0 275 0 c 0,63,64
 266 0 266 0 256 1 c 0,65,66
 237 3 237 3 217 4 c 2,67,-1
 190 4 l 2,68,69
 175 4 175 4 161 5 c 128,-1,70
 147 6 147 6 133.5 9.5 c 128,-1,71
 120 13 120 13 108 21 c 0,72,73
 89 35 89 35 78.5 59.5 c 128,-1,74
 68 84 68 84 64 113 c 0,75,76
 60 139 60 139 60 165 c 0,77,78
 60 168 60 168 61 172 c 0,79,80
 61 201 61 201 64 226 c 0,81,82
 72 296 72 296 109 357 c 128,-1,83
 146 418 146 418 204 456 c 0,84,85
 218 465 218 465 233.5 467.5 c 128,-1,86
 249 470 249 470 265 473 c 0,87,88
 277 476 277 476 289 476 c 0,89,90
 310 476 310 476 331 468 c 0,91,92
 363 456 363 456 389 433 c 128,-1,93
 415 410 415 410 431.5 379 c 128,-1,94
 448 348 448 348 451 317 c 0,0,1
EndSplineSet
Validated: 1
EndChar

StartChar: d
Encoding: 100 100 71
Width: 481
GlyphClass: 1
Flags: W
LayerCount: 2
Fore
SplineSet
338 598 m 2,0,1
 341 616 341 616 352 625.5 c 128,-1,2
 363 635 363 635 376 636 c 2,3,-1
 378 636 l 2,4,5
 390 636 390 636 401 628 c 256,6,7
 412 620 412 620 417 602 c 1,8,-1
 417 327 l 1,9,10
 421 320 421 320 421 312 c 256,11,12
 421 304 421 304 417 296 c 1,13,-1
 417 49 l 2,14,15
 416 28 416 28 404.5 17 c 128,-1,16
 393 6 393 6 379 6 c 1,17,-1
 378 5 l 1,18,19
 364 5 364 5 353 15 c 0,20,21
 340 24 340 24 338 45 c 2,22,-1
 338 60 l 1,23,24
 318 48 318 48 301 43 c 0,25,26
 279 35 279 35 256 32 c 128,-1,27
 233 29 233 29 210 28 c 0,28,29
 197 27 197 27 184 27 c 0,30,31
 177 27 177 27 171 28 c 0,32,33
 151 28 151 28 131 33 c 0,34,35
 93 44 93 44 77.5 75.5 c 128,-1,36
 62 107 62 107 60 146 c 2,37,-1
 60 162 l 2,38,39
 60 193 60 193 66 225 c 0,40,41
 73 264 73 264 83 290 c 0,42,43
 90 309 90 309 104 335.5 c 128,-1,44
 118 362 118 362 137 385.5 c 128,-1,45
 156 409 156 409 179 425 c 0,46,47
 198 437 198 437 219 437 c 2,48,-1
 227 437 l 1,49,50
 265 432 265 432 289 419.5 c 128,-1,51
 313 407 313 407 338 388 c 1,52,-1
 338 598 l 2,0,1
200 107 m 0,53,54
 242 109 242 109 275.5 121 c 128,-1,55
 309 133 309 133 338 162 c 1,56,-1
 338 294 l 1,57,58
 324 304 324 304 308.5 315.5 c 128,-1,59
 293 327 293 327 278 336.5 c 128,-1,60
 263 346 263 346 250 352 c 0,61,62
 239 356 239 356 231 356 c 2,63,-1
 228 356 l 2,64,65
 212 353 212 353 197 337 c 128,-1,66
 182 321 182 321 171 298 c 128,-1,67
 160 275 160 275 152 247 c 128,-1,68
 144 219 144 219 142 193 c 0,69,70
 141 182 141 182 141 172 c 0,71,72
 141 157 141 157 143 144 c 0,73,74
 146 121 146 121 157 109 c 1,75,76
 168 109 168 109 178.5 108 c 128,-1,77
 189 107 189 107 200 107 c 0,53,54
EndSplineSet
Validated: 1
EndChar

StartChar: e
Encoding: 101 101 72
Width: 513
GlyphClass: 1
Flags: W
LayerCount: 2
Fore
SplineSet
138 235 m 1,0,-1
 138 222 l 2,1,2
 138 216 138 216 140 210 c 0,3,4
 141 205 141 205 146 199 c 128,-1,5
 151 193 151 193 156.5 186 c 128,-1,6
 162 179 162 179 167 173 c 128,-1,7
 172 167 172 167 175 164 c 0,8,9
 204 132 204 132 234 122 c 0,10,11
 253 115 253 115 277 115 c 0,12,13
 291 115 291 115 306 117 c 0,14,15
 317 122 317 122 327.5 127 c 128,-1,16
 338 132 338 132 351 134 c 2,17,-1
 355 134 l 2,18,19
 372 134 372 134 383 125 c 0,20,21
 394 115 394 115 397 102 c 2,22,-1
 397 95 l 2,23,24
 397 85 397 85 391 75 c 0,25,26
 383 62 383 62 365 56 c 1,27,28
 367 56 367 56 369 57 c 1,29,-1
 368 57 l 2,30,31
 365 56 365 56 363 55 c 0,32,33
 355 53 355 53 349 49 c 128,-1,34
 343 45 343 45 335 42 c 0,35,36
 330 40 330 40 322 38 c 128,-1,37
 314 36 314 36 306 35 c 128,-1,38
 298 34 298 34 290.5 33.5 c 128,-1,39
 283 33 283 33 279 33 c 2,40,-1
 269 33 l 2,41,42
 237 33 237 33 207 45 c 0,43,44
 173 58 173 58 144 82 c 0,45,46
 122 101 122 101 97.5 129 c 128,-1,47
 73 157 73 157 64 186 c 0,48,49
 60 200 60 200 60 229 c 0,50,51
 60 257 60 257 63.5 287.5 c 128,-1,52
 67 318 67 318 74 345 c 128,-1,53
 81 372 81 372 90 382 c 0,54,55
 113 406 113 406 138 423.5 c 128,-1,56
 163 441 163 441 196 448 c 0,57,58
 239 457 239 457 277 457 c 2,59,-1
 291 457 l 2,60,61
 335 455 335 455 383 436 c 0,62,63
 407 427 407 427 424.5 404 c 128,-1,64
 442 381 442 381 449 354 c 0,65,66
 453 338 453 338 453 322 c 0,67,68
 453 311 453 311 451 300 c 0,69,70
 446 272 446 272 425 254 c 0,71,72
 408 240 408 240 388.5 235 c 128,-1,73
 369 230 369 230 348 230 c 256,74,75
 327 230 327 230 305.5 232.5 c 128,-1,76
 284 235 284 235 265 235 c 2,77,-1
 138 235 l 1,0,-1
177 354 m 0,78,79
 163 346 163 346 157 335.5 c 128,-1,80
 151 325 151 325 149 314 c 1,81,82
 179 314 179 314 209 315 c 2,83,-1
 229 315 l 2,84,85
 249 315 249 315 269 314 c 0,86,87
 279 314 279 314 293 312 c 128,-1,88
 307 310 307 310 321 309 c 0,89,90
 329 308 329 308 337 308 c 2,91,-1
 348 308 l 2,92,93
 361 309 361 309 371 315 c 1,94,95
 372 321 372 321 372 326 c 0,96,97
 372 351 372 351 353 363 c 0,98,99
 329 377 329 377 296 378 c 2,100,-1
 288 378 l 2,101,102
 258 378 258 378 228 372 c 0,103,104
 193 364 193 364 177 354 c 0,78,79
EndSplineSet
Validated: 5
EndChar

StartChar: f
Encoding: 102 102 73
Width: 513
GlyphClass: 1
Flags: W
LayerCount: 2
Fore
SplineSet
100 346 m 2,0,1
 79 348 79 348 70 361 c 0,2,3
 60 372 60 372 60 386 c 1,4,-1
 61 387 l 1,5,6
 61 401 61 401 72 412.5 c 128,-1,7
 83 424 83 424 104 425 c 2,8,-1
 173 425 l 1,9,10
 175 445 175 445 176.5 465.5 c 128,-1,11
 178 486 178 486 181 506 c 0,12,13
 183 524 183 524 187 546 c 128,-1,14
 191 568 191 568 199 587.5 c 128,-1,15
 207 607 207 607 221 621.5 c 128,-1,16
 235 636 235 636 258 640 c 0,17,18
 270 642 270 642 281 642 c 0,19,20
 291 642 291 642 300 641 c 0,21,22
 320 637 320 637 339.5 630.5 c 128,-1,23
 359 624 359 624 379 617.5 c 128,-1,24
 399 611 399 611 420 608 c 0,25,26
 440 602 440 602 448 589 c 0,27,28
 453 579 453 579 453 569 c 0,29,30
 453 565 453 565 452 561 c 0,31,32
 449 547 449 547 437 538 c 0,33,34
 426 530 426 530 410 530 c 2,35,-1
 403 530 l 1,36,37
 376 535 376 535 350.5 545 c 128,-1,38
 325 555 325 555 298 561 c 0,39,40
 295 562 295 562 291 562 c 2,41,-1
 287 562 l 2,42,43
 281 561 281 561 276 560 c 0,44,45
 272 555 272 555 269 547 c 0,46,47
 263 523 263 523 260 496 c 0,48,49
 256 462 256 462 254 425 c 1,50,-1
 342 425 l 1,51,52
 360 420 360 420 368 409 c 256,53,54
 376 398 376 398 376 386 c 2,55,-1
 376 384 l 2,56,57
 375 371 375 371 365.5 360 c 128,-1,58
 356 349 356 349 338 346 c 2,59,-1
 251 346 l 1,60,61
 250 310 250 310 250 274 c 256,62,63
 250 238 250 238 251 203 c 0,64,65
 253 131 253 131 254 59 c 0,66,67
 253 38 253 38 241.5 27 c 128,-1,68
 230 16 230 16 216 16 c 1,69,-1
 215 15 l 1,70,71
 201 15 201 15 190 25 c 0,72,73
 177 34 177 34 175 55 c 0,74,75
 173 127 173 127 171 200 c 0,76,77
 169 241 169 241 169 281 c 0,78,79
 169 314 169 314 170 346 c 1,80,-1
 100 346 l 2,0,1
EndSplineSet
Validated: 1
EndChar

StartChar: g
Encoding: 103 103 74
Width: 552
GlyphClass: 1
Flags: W
LayerCount: 2
Fore
SplineSet
75 -199 m 1,0,1
 62 -186 62 -186 60 -171 c 2,2,-1
 60 -165 l 2,3,4
 60 -155 60 -155 65 -146 c 0,5,6
 71 -136 71 -136 85 -130 c 0,7,8
 92 -128 92 -128 100 -128 c 0,9,10
 107 -128 107 -128 115 -130 c 0,11,12
 131 -139 131 -139 146 -149.5 c 128,-1,13
 161 -160 161 -160 175 -171 c 1,14,15
 184 -172 184 -172 209 -174.5 c 128,-1,16
 234 -177 234 -177 261.5 -179 c 128,-1,17
 289 -181 289 -181 312 -181 c 0,18,19
 315 -182 315 -182 318 -182 c 0,20,21
 336 -182 336 -182 340 -179 c 0,22,23
 373 -159 373 -159 383.5 -126 c 128,-1,24
 394 -93 394 -93 399 -58 c 0,25,26
 403 -35 403 -35 405 -13 c 128,-1,27
 407 9 407 9 409 32 c 1,28,29
 380 9 380 9 345 -1 c 0,30,31
 315 -9 315 -9 284 -9 c 2,32,-1
 272 -9 l 1,33,34
 180 -4 180 -4 129 53 c 0,35,36
 81 107 81 107 81 195 c 2,37,-1
 81 206 l 2,38,39
 83 256 83 256 100 301 c 128,-1,40
 117 346 117 346 147.5 378.5 c 128,-1,41
 178 411 178 411 221 428 c 0,42,43
 253 441 253 441 293 441 c 0,44,45
 304 441 304 441 316 440 c 0,46,47
 329 438 329 438 347.5 435.5 c 128,-1,48
 366 433 366 433 385 428 c 128,-1,49
 404 423 404 423 420.5 414 c 128,-1,50
 437 405 437 405 446 391 c 1,51,52
 457 389 457 389 466 381 c 128,-1,53
 475 373 475 373 480 358 c 1,54,-1
 480 348 l 2,55,56
 482 344 482 344 486 334 c 0,57,58
 487 283 487 283 489 232 c 128,-1,59
 491 181 491 181 492 130 c 2,60,-1
 492 115 l 2,61,62
 492 72 492 72 489 28 c 0,63,64
 486 -23 486 -23 478 -73 c 0,65,66
 473 -99 473 -99 466.5 -127 c 128,-1,67
 460 -155 460 -155 448 -179.5 c 128,-1,68
 436 -204 436 -204 417 -224 c 128,-1,69
 398 -244 398 -244 370 -255 c 0,70,71
 355 -261 355 -261 331 -262 c 2,72,-1
 311 -262 l 2,73,74
 296 -262 296 -262 281 -261 c 0,75,76
 254 -260 254 -260 229 -257.5 c 128,-1,77
 204 -255 204 -255 188 -253 c 0,78,79
 167 -251 167 -251 153.5 -246 c 128,-1,80
 140 -241 140 -241 128.5 -234 c 128,-1,81
 117 -227 117 -227 105 -218.5 c 128,-1,82
 93 -210 93 -210 75 -199 c 1,0,1
397 199 m 0,83,84
 401 231 401 231 402 262 c 2,85,-1
 402 282 l 2,86,87
 402 303 402 303 401 324 c 1,88,89
 388 329 388 329 381 341 c 0,90,91
 380 343 380 343 377 346 c 0,92,93
 363 354 363 354 348 355.5 c 128,-1,94
 333 357 333 357 316 360 c 0,95,96
 305 362 305 362 294 362 c 0,97,98
 262 362 262 362 236 346 c 0,99,100
 201 324 201 324 181.5 288 c 128,-1,101
 162 252 162 252 160 208 c 0,102,103
 159 203 159 203 159 198 c 0,104,105
 159 160 159 160 176 126 c 0,106,107
 188 103 188 103 210 89 c 128,-1,108
 232 75 232 75 259 71 c 0,109,110
 270 69 270 69 281 69 c 0,111,112
 296 69 296 69 311 72 c 0,113,114
 337 78 337 78 357 95 c 0,115,116
 378 114 378 114 386.5 143.5 c 128,-1,117
 395 173 395 173 397 199 c 0,83,84
EndSplineSet
Validated: 1
EndChar

StartChar: h
Encoding: 104 104 75
Width: 478
GlyphClass: 1
Flags: W
LayerCount: 2
Fore
SplineSet
160 325 m 0,0,1
 155 321 155 321 149.5 319.5 c 128,-1,2
 144 318 144 318 139 317 c 1,3,-1
 139 39 l 2,4,5
 138 18 138 18 126.5 7 c 128,-1,6
 115 -4 115 -4 101 -4 c 1,7,-1
 100 -5 l 1,8,9
 86 -5 86 -5 75 5 c 0,10,11
 62 14 62 14 60 35 c 2,12,-1
 60 591 l 2,13,14
 63 609 63 609 74 618.5 c 128,-1,15
 85 628 85 628 98 629 c 2,16,-1
 100 629 l 2,17,18
 112 629 112 629 123 621 c 256,19,20
 134 613 134 613 139 595 c 1,21,-1
 139 413 l 1,22,23
 179 445 179 445 220 454 c 0,24,25
 235 457 235 457 252 457 c 0,26,27
 283 457 283 457 322 447 c 0,28,29
 342 442 342 442 359 426.5 c 128,-1,30
 376 411 376 411 384 392 c 0,31,32
 403 349 403 349 410 303.5 c 128,-1,33
 417 258 417 258 418 212 c 2,34,-1
 418 191 l 2,35,36
 418 155 418 155 416 119 c 0,37,38
 412 72 412 72 410 26 c 1,39,40
 404 9 404 9 392 2 c 0,41,42
 381 -5 381 -5 371 -5 c 0,43,44
 369 -5 369 -5 367 -4 c 0,45,46
 354 -3 354 -3 343.5 7 c 128,-1,47
 333 17 333 17 331 35 c 0,48,49
 332 69 332 69 335.5 104.5 c 128,-1,50
 339 140 339 140 341 176 c 2,51,-1
 341 206 l 2,52,53
 341 226 341 226 340 246 c 0,54,55
 338 281 338 281 329 314 c 0,56,57
 318 356 318 356 298 371 c 0,58,59
 282 382 282 382 264 382 c 0,60,61
 259 382 259 382 254 381 c 0,62,63
 230 377 230 377 205 360.5 c 128,-1,64
 180 344 180 344 160 325 c 0,0,1
EndSplineSet
Validated: 1
EndChar

StartChar: i
Encoding: 105 105 76
Width: 232
GlyphClass: 1
Flags: W
LayerCount: 2
Fore
SplineSet
84 471 m 1,0,1
 95 475 95 475 104 475 c 0,2,3
 108 475 108 475 111 474 c 0,4,5
 123 472 123 472 131.5 464.5 c 128,-1,6
 140 457 140 457 143 446 c 2,7,-1
 143 437 l 2,8,9
 143 430 143 430 141 423 c 2,10,-1
 141 422 l 2,11,12
 143 404 143 404 145 375.5 c 128,-1,13
 147 347 147 347 148 329 c 0,14,15
 152 259 152 259 153 189 c 128,-1,16
 154 119 154 119 154 49 c 0,17,18
 153 28 153 28 141.5 17 c 128,-1,19
 130 6 130 6 116 6 c 1,20,-1
 115 5 l 1,21,22
 101 5 101 5 90 15 c 0,23,24
 77 24 77 24 75 45 c 0,25,26
 75 116 75 116 73.5 185.5 c 128,-1,27
 72 255 72 255 68 325 c 0,28,29
 67 343 67 343 64 363.5 c 128,-1,30
 61 384 61 384 60 404 c 2,31,-1
 60 410 l 2,32,33
 60 426 60 426 64 441 c 0,34,35
 69 458 69 458 84 471 c 1,0,1
168 631 m 0,36,37
 169 628 169 628 169 623 c 0,38,39
 172 614 172 614 172 605 c 256,40,41
 172 596 172 596 170 587 c 0,42,43
 164 568 164 568 151.5 555.5 c 128,-1,44
 139 543 139 543 121 541 c 0,45,46
 118 540 118 540 116 540 c 0,47,48
 100 540 100 540 85 553 c 0,49,50
 67 568 67 568 64 585 c 0,51,52
 63 591 63 591 63 596 c 0,53,54
 63 607 63 607 67 617 c 0,55,56
 73 631 73 631 86.5 642 c 128,-1,57
 100 653 100 653 115 657 c 0,58,59
 121 658 121 658 127 658 c 0,60,61
 136 658 136 658 145 655 c 0,62,63
 159 649 159 649 168 631 c 0,36,37
EndSplineSet
Validated: 1
EndChar

StartChar: j
Encoding: 106 106 77
Width: 224
GlyphClass: 1
Flags: W
LayerCount: 2
Fore
SplineSet
66 -97 m 2,0,1
 66 -94 66 -94 67 -92 c 0,2,3
 67 37 67 37 69.5 165.5 c 128,-1,4
 72 294 72 294 73 425 c 0,5,6
 76 443 76 443 87 452.5 c 128,-1,7
 98 462 98 462 111 463 c 2,8,-1
 113 463 l 2,9,10
 125 463 125 463 136 455 c 256,11,12
 147 447 147 447 152 429 c 1,13,14
 151 330 151 330 149.5 232 c 128,-1,15
 148 134 148 134 146 35 c 0,16,17
 146 28 146 28 147.5 9.5 c 128,-1,18
 149 -9 149 -9 150 -32 c 2,19,-1
 150 -81 l 2,20,21
 149 -107 149 -107 145 -129 c 1,22,-1
 145 -202 l 2,23,24
 144 -223 144 -223 132.5 -234 c 128,-1,25
 121 -245 121 -245 107 -245 c 1,26,-1
 106 -246 l 1,27,28
 92 -246 92 -246 81 -236 c 0,29,30
 68 -227 68 -227 66 -206 c 2,31,-1
 66 -167 l 1,32,33
 61 -158 61 -158 60 -146 c 2,34,-1
 60 -144 l 2,35,36
 60 -133 60 -133 66 -123 c 1,37,-1
 66 -97 l 2,0,1
159 593 m 1,38,39
 164 585 164 585 164 575 c 0,40,41
 164 559 164 559 158.5 550 c 128,-1,42
 153 541 153 541 139 533 c 1,43,44
 125 530 125 530 114 530 c 0,45,46
 102 530 102 530 94 533 c 0,47,48
 76 540 76 540 69 554 c 0,49,50
 62 565 62 565 62 579 c 0,51,52
 62 582 62 582 63 585 c 0,53,54
 64 602 64 602 73.5 615.5 c 128,-1,55
 83 629 83 629 99 635 c 0,56,57
 105 637 105 637 113 637 c 0,58,59
 124 637 124 637 137 632 c 0,60,61
 147 625 147 625 151.5 619 c 128,-1,62
 156 613 156 613 159 601 c 2,63,-1
 159 593 l 1,38,39
EndSplineSet
Validated: 1
EndChar

StartChar: k
Encoding: 107 107 78
Width: 510
GlyphClass: 1
Flags: W
LayerCount: 2
Fore
SplineSet
419 399 m 0,0,1
 403 392 403 392 379 377 c 128,-1,2
 355 362 355 362 327.5 342.5 c 128,-1,3
 300 323 300 323 272.5 301 c 128,-1,4
 245 279 245 279 222 258 c 1,5,6
 241 234 241 234 267 206.5 c 128,-1,7
 293 179 293 179 321.5 153 c 128,-1,8
 350 127 350 127 377.5 106.5 c 128,-1,9
 405 86 405 86 428 77 c 1,10,11
 443 66 443 66 448 53 c 0,12,13
 450 46 450 46 450 40 c 0,14,15
 450 33 450 33 447 27 c 0,16,17
 442 15 442 15 430 8 c 0,18,19
 420 2 420 2 406 2 c 2,20,-1
 399 2 l 1,21,22
 373 13 373 13 341.5 35 c 128,-1,23
 310 57 310 57 278.5 84 c 128,-1,24
 247 111 247 111 218 141.5 c 128,-1,25
 189 172 189 172 167 199 c 1,26,27
 155 187 155 187 145 186 c 1,28,29
 140 114 140 114 139 42 c 0,30,31
 138 21 138 21 126.5 10 c 128,-1,32
 115 -1 115 -1 101 -1 c 1,33,-1
 100 -2 l 1,34,35
 86 -2 86 -2 75 8 c 0,36,37
 62 17 62 17 60 38 c 0,38,39
 61 114 61 114 66.5 190 c 128,-1,40
 72 266 72 266 78.5 342 c 128,-1,41
 85 418 85 418 90 493.5 c 128,-1,42
 95 569 95 569 97 645 c 0,43,44
 100 663 100 663 111 672.5 c 128,-1,45
 122 682 122 682 135 683 c 2,46,-1
 137 683 l 2,47,48
 149 683 149 683 160 675 c 256,49,50
 171 667 171 667 176 649 c 1,51,52
 174 562 174 562 168 476.5 c 128,-1,53
 162 391 162 391 154 304 c 1,54,55
 180 328 180 328 212 354 c 128,-1,56
 244 380 244 380 276 403.5 c 128,-1,57
 308 427 308 427 336.5 445 c 128,-1,58
 365 463 365 463 384 471 c 0,59,60
 395 475 395 475 404 475 c 0,61,62
 412 475 412 475 419 472 c 0,63,64
 433 466 433 466 439 454 c 0,65,66
 443 446 443 446 443 437 c 0,67,68
 443 432 443 432 441 426 c 0,69,70
 437 410 437 410 419 399 c 0,0,1
EndSplineSet
Validated: 1
EndChar

StartChar: l
Encoding: 108 108 79
Width: 199
GlyphClass: 1
Flags: W
LayerCount: 2
Fore
SplineSet
60 628 m 2,0,1
 63 646 63 646 74 655.5 c 128,-1,2
 85 665 85 665 98 666 c 2,3,-1
 100 666 l 2,4,5
 112 666 112 666 123 658 c 256,6,7
 134 650 134 650 139 632 c 1,8,-1
 139 39 l 2,9,10
 138 18 138 18 126.5 7 c 128,-1,11
 115 -4 115 -4 101 -4 c 1,12,-1
 100 -5 l 1,13,14
 86 -5 86 -5 75 5 c 0,15,16
 62 14 62 14 60 35 c 2,17,-1
 60 628 l 2,0,1
EndSplineSet
Validated: 1
EndChar

StartChar: m
Encoding: 109 109 80
Width: 744
GlyphClass: 1
Flags: W
LayerCount: 2
Fore
SplineSet
408 359 m 0,0,1
 402 352 402 352 394 347 c 1,2,3
 399 324 399 324 401.5 300.5 c 128,-1,4
 404 277 404 277 405 253 c 0,5,6
 406 236 406 236 406 219 c 0,7,8
 406 185 406 185 403 151 c 0,9,10
 399 100 399 100 397 49 c 0,11,12
 396 28 396 28 384.5 17 c 128,-1,13
 373 6 373 6 359 6 c 1,14,-1
 358 5 l 1,15,16
 344 5 344 5 333 15 c 0,17,18
 320 24 320 24 318 45 c 0,19,20
 319 70 319 70 323 113 c 128,-1,21
 327 156 327 156 328 203 c 2,22,-1
 328 211 l 2,23,24
 328 253 328 253 323 293 c 0,25,26
 318 337 318 337 301 363.5 c 128,-1,27
 284 390 284 390 252 393 c 2,28,-1
 247 393 l 2,29,30
 216 393 216 393 166 359 c 0,31,32
 158 354 158 354 153 347 c 128,-1,33
 148 340 148 340 139 338 c 1,34,-1
 139 32 l 2,35,36
 138 11 138 11 126.5 0 c 128,-1,37
 115 -11 115 -11 101 -11 c 1,38,-1
 100 -12 l 1,39,40
 86 -12 86 -12 75 -2 c 0,41,42
 62 7 62 7 60 28 c 2,43,-1
 60 418 l 2,44,45
 63 434 63 434 72.5 443.5 c 128,-1,46
 82 453 82 453 94 455 c 0,47,48
 97 456 97 456 100 456 c 0,49,50
 108 456 108 456 116 452 c 0,51,52
 127 446 127 446 134 433 c 0,53,54
 137 434 137 434 139.5 435 c 128,-1,55
 142 436 142 436 145 438 c 0,56,57
 173 451 173 451 205 463 c 0,58,59
 229 472 229 472 252 472 c 0,60,61
 260 472 260 472 267 471 c 0,62,63
 298 467 298 467 320 455 c 128,-1,64
 342 443 342 443 358 425 c 1,65,66
 383 451 383 451 424.5 469 c 128,-1,67
 466 487 466 487 509 492 c 0,68,69
 521 493 521 493 533 493 c 0,70,71
 562 493 562 493 589 485 c 0,72,73
 626 473 626 473 644 439 c 0,74,75
 667 394 667 394 675.5 346 c 128,-1,76
 684 298 684 298 684 248 c 256,77,78
 684 198 684 198 680 147.5 c 128,-1,79
 676 97 676 97 674 49 c 0,80,81
 673 28 673 28 661.5 17 c 128,-1,82
 650 6 650 6 636 6 c 1,83,-1
 635 5 l 1,84,85
 621 5 621 5 610 15 c 0,86,87
 597 24 597 24 595 45 c 0,88,89
 596 82 596 82 601.5 134 c 128,-1,90
 607 186 607 186 607 239 c 256,91,92
 607 292 607 292 597.5 339 c 128,-1,93
 588 386 588 386 559 414 c 1,94,95
 543 414 543 414 520 411 c 128,-1,96
 497 408 497 408 474 401.5 c 128,-1,97
 451 395 451 395 432.5 384.5 c 128,-1,98
 414 374 414 374 408 359 c 0,0,1
EndSplineSet
Validated: 1
EndChar

StartChar: n
Encoding: 110 110 81
Width: 487
GlyphClass: 1
Flags: W
LayerCount: 2
Fore
SplineSet
60 425 m 0,0,1
 63 443 63 443 74 452.5 c 128,-1,2
 85 462 85 462 98 463 c 2,3,-1
 100 463 l 2,4,5
 112 463 112 463 123 455 c 256,6,7
 134 447 134 447 139 429 c 1,8,-1
 139 425 l 1,9,10
 167 440 167 440 203.5 452 c 128,-1,11
 240 464 240 464 277 470 c 0,12,13
 299 473 299 473 319 473 c 0,14,15
 332 473 332 473 344 472 c 0,16,17
 374 468 374 468 390 452 c 0,18,19
 403 440 403 440 409.5 422 c 128,-1,20
 416 404 416 404 419.5 384 c 128,-1,21
 423 364 423 364 423.5 344.5 c 128,-1,22
 424 325 424 325 425 309 c 0,23,24
 427 272 427 272 427 236 c 0,25,26
 427 206 427 206 426 176 c 0,27,28
 423 109 423 109 421 42 c 0,29,30
 420 21 420 21 408.5 10 c 128,-1,31
 397 -1 397 -1 383 -1 c 1,32,-1
 382 -2 l 1,33,34
 368 -2 368 -2 357 8 c 0,35,36
 344 17 344 17 342 38 c 0,37,38
 342 58 342 58 344 88 c 128,-1,39
 346 118 346 118 347.5 152 c 128,-1,40
 349 186 349 186 350 223 c 2,41,-1
 350 246 l 2,42,43
 350 270 350 270 349 292 c 0,44,45
 348 324 348 324 343.5 351.5 c 128,-1,46
 339 379 339 379 331 395 c 1,47,48
 323 396 323 396 314 396 c 0,49,50
 292 396 292 396 269 388 c 0,51,52
 237 377 237 377 208 366 c 0,53,54
 199 362 199 362 184.5 358 c 128,-1,55
 170 354 170 354 162 346 c 1,56,57
 158 336 158 336 152 330 c 128,-1,58
 146 324 146 324 139 320 c 1,59,60
 140 252 140 252 141.5 184.5 c 128,-1,61
 143 117 143 117 143 49 c 0,62,63
 142 28 142 28 130.5 17 c 128,-1,64
 119 6 119 6 105 6 c 1,65,-1
 104 5 l 1,66,67
 90 5 90 5 79 15 c 0,68,69
 66 24 66 24 64 45 c 0,70,71
 64 141 64 141 62 235.5 c 128,-1,72
 60 330 60 330 60 425 c 0,0,1
EndSplineSet
Validated: 1
EndChar

StartChar: o
Encoding: 111 111 82
Width: 538
GlyphClass: 1
Flags: W
LayerCount: 2
Fore
SplineSet
440 384 m 0,0,1
 444 376 444 376 446 373 c 0,2,3
 446 372 446 372 448 370 c 0,4,5
 463 341 463 341 470.5 306.5 c 128,-1,6
 478 272 478 272 478 236 c 256,7,8
 478 200 478 200 470 165 c 128,-1,9
 462 130 462 130 446 101 c 0,10,11
 435 82 435 82 417.5 66.5 c 128,-1,12
 400 51 400 51 382 39 c 0,13,14
 371 31 371 31 358 22 c 128,-1,15
 345 13 345 13 331 8 c 0,16,17
 308 2 308 2 286 2 c 0,18,19
 267 2 267 2 249 6 c 0,20,21
 207 15 207 15 169 27 c 0,22,23
 160 30 160 30 147.5 41.5 c 128,-1,24
 135 53 135 53 124 66 c 128,-1,25
 113 79 113 79 105.5 89 c 128,-1,26
 98 99 98 99 97 100 c 0,27,28
 80 121 80 121 71 152 c 128,-1,29
 62 183 62 183 61 219 c 0,30,31
 60 226 60 226 60 234 c 0,32,33
 60 262 60 262 65 291 c 0,34,35
 70 327 70 327 82 360 c 128,-1,36
 94 393 94 393 112.5 419.5 c 128,-1,37
 131 446 131 446 155 460 c 0,38,39
 175 471 175 471 196.5 476.5 c 128,-1,40
 218 482 218 482 239 488 c 0,41,42
 248 491 248 491 257 491 c 0,43,44
 261 491 261 491 266 490 c 0,45,46
 280 488 280 488 294 483 c 128,-1,47
 308 478 308 478 321.5 472.5 c 128,-1,48
 335 467 335 467 349 463 c 0,49,50
 365 459 365 459 377 450 c 128,-1,51
 389 441 389 441 399 430 c 128,-1,52
 409 419 409 419 418.5 406.5 c 128,-1,53
 428 394 428 394 440 384 c 0,0,1
396 238 m 0,54,55
 396 265 396 265 391.5 288.5 c 128,-1,56
 387 312 387 312 376 335 c 1,57,58
 361 351 361 351 351.5 364 c 128,-1,59
 342 377 342 377 330 386 c 128,-1,60
 318 395 318 395 300 400 c 128,-1,61
 282 405 282 405 249 407 c 2,62,-1
 244 407 l 2,63,64
 233 407 233 407 222 404 c 0,65,66
 209 399 209 399 198 391 c 0,67,68
 168 370 168 370 154 330 c 0,69,70
 140 292 140 292 140 250 c 2,71,-1
 140 245 l 2,72,73
 141 200 141 200 156.5 159.5 c 128,-1,74
 172 119 172 119 203 100 c 0,75,76
 223 89 223 89 253 85 c 0,77,78
 268 82 268 82 282 82 c 0,79,80
 294 82 294 82 305 84 c 0,81,82
 331 99 331 99 348.5 113 c 128,-1,83
 366 127 366 127 376.5 144.5 c 128,-1,84
 387 162 387 162 391.5 184.5 c 128,-1,85
 396 207 396 207 396 238 c 0,54,55
EndSplineSet
Validated: 1
EndChar

StartChar: p
Encoding: 112 112 83
Width: 513
GlyphClass: 1
Flags: W
LayerCount: 2
Fore
SplineSet
60 442 m 2,0,1
 63 460 63 460 74 469.5 c 128,-1,2
 85 479 85 479 98 480 c 2,3,-1
 100 480 l 2,4,5
 112 480 112 480 123 472 c 256,6,7
 134 464 134 464 139 446 c 1,8,-1
 139 434 l 1,9,10
 162 444 162 444 183.5 453.5 c 128,-1,11
 205 463 205 463 227.5 469.5 c 128,-1,12
 250 476 250 476 275 478 c 0,13,14
 283 479 283 479 291 479 c 0,15,16
 309 479 309 479 328 476 c 0,17,18
 337 475 337 475 346.5 470.5 c 128,-1,19
 356 466 356 466 365 460 c 128,-1,20
 374 454 374 454 381.5 448.5 c 128,-1,21
 389 443 389 443 394 440 c 0,22,23
 423 422 423 422 436 389.5 c 128,-1,24
 449 357 449 357 452 320 c 0,25,26
 453 304 453 304 453 288 c 0,27,28
 453 267 453 267 451 246 c 0,29,30
 447 208 447 208 442 181 c 0,31,32
 438 158 438 158 427.5 137.5 c 128,-1,33
 417 117 417 117 407 97 c 0,34,35
 389 60 389 60 359.5 39.5 c 128,-1,36
 330 19 330 19 295 13 c 0,37,38
 278 9 278 9 261 9 c 0,39,40
 242 9 242 9 223 13 c 0,41,42
 186 20 186 20 155 38 c 0,43,44
 144 45 144 45 139 53 c 1,45,-1
 139 -202 l 2,46,47
 138 -223 138 -223 126.5 -234 c 128,-1,48
 115 -245 115 -245 101 -245 c 1,49,-1
 100 -246 l 1,50,51
 86 -246 86 -246 75 -236 c 0,52,53
 62 -227 62 -227 60 -206 c 2,54,-1
 60 442 l 2,0,1
310 398 m 0,55,56
 300 402 300 402 287 402 c 0,57,58
 280 402 280 402 272 401 c 0,59,60
 250 397 250 397 226 387.5 c 128,-1,61
 202 378 202 378 179.5 367 c 128,-1,62
 157 356 157 356 139 349 c 1,63,-1
 139 157 l 1,64,65
 157 157 157 157 168 140 c 1,66,67
 177 135 177 135 182 129 c 128,-1,68
 187 123 187 123 193 115 c 0,69,70
 194 114 194 114 196 110.5 c 128,-1,71
 198 107 198 107 200 104 c 0,72,73
 215 99 215 99 227.5 94.5 c 128,-1,74
 240 90 240 90 252 88 c 0,75,76
 257 87 257 87 262 87 c 0,77,78
 268 87 268 87 275 89 c 0,79,80
 287 91 287 91 301 100 c 0,81,82
 322 113 322 113 338 137.5 c 128,-1,83
 354 162 354 162 363.5 191 c 128,-1,84
 373 220 373 220 376 252 c 0,85,86
 377 263 377 263 377 273 c 0,87,88
 377 294 377 294 373 313 c 0,89,90
 367 341 367 341 351.5 363.5 c 128,-1,91
 336 386 336 386 310 398 c 0,55,56
173 133 m 1,92,-1
 176 124 l 1,93,-1
 176 123 l 1,94,95
 177 123 177 123 177 124 c 2,96,-1
 176 126 l 2,97,98
 175 130 175 130 174 132 c 2,99,-1
 173 133 l 1,92,-1
168 140 m 1,100,-1
 167 141 l 1,101,-1
 166 142 l 1,102,-1
 167 142 l 1,103,-1
 168 140 l 1,100,-1
EndSplineSet
Validated: 5
EndChar

StartChar: q
Encoding: 113 113 84
Width: 515
GlyphClass: 1
Flags: W
LayerCount: 2
Fore
SplineSet
370 454 m 0,0,1
 387 445 387 445 402.5 436 c 128,-1,2
 418 427 418 427 431 414 c 1,3,4
 446 406 446 406 452 385 c 1,5,6
 452 239 452 239 453.5 93.5 c 128,-1,7
 455 -52 455 -52 455 -198 c 0,8,9
 454 -219 454 -219 442.5 -230 c 128,-1,10
 431 -241 431 -241 417 -241 c 1,11,-1
 416 -242 l 1,12,13
 402 -242 402 -242 391 -232 c 0,14,15
 378 -223 378 -223 376 -202 c 0,16,17
 376 -139 376 -139 375.5 -78 c 128,-1,18
 375 -17 375 -17 375 44 c 1,19,20
 352 37 352 37 324 28.5 c 128,-1,21
 296 20 296 20 267.5 13.5 c 128,-1,22
 239 7 239 7 212 4 c 0,23,24
 200 3 200 3 190 3 c 0,25,26
 176 3 176 3 163 5 c 0,27,28
 136 10 136 10 118 30.5 c 128,-1,29
 100 51 100 51 89 78 c 128,-1,30
 78 105 78 105 72 133.5 c 128,-1,31
 66 162 66 162 62 183 c 0,32,33
 60 198 60 198 60 214 c 256,34,35
 60 230 60 230 62 248 c 0,36,37
 67 283 67 283 80 319.5 c 128,-1,38
 93 356 93 356 114 390.5 c 128,-1,39
 135 425 135 425 162 450.5 c 128,-1,40
 189 476 189 476 220 490 c 0,41,42
 244 501 244 501 271 501 c 0,43,44
 278 501 278 501 286 500 c 0,45,46
 312 497 312 497 331 481 c 128,-1,47
 350 465 350 465 370 454 c 0,0,1
186 83 m 1,48,49
 231 83 231 83 279.5 98 c 128,-1,50
 328 113 328 113 371 127 c 1,51,-1
 374 127 l 1,52,53
 373 185 373 185 373 243 c 2,54,-1
 373 360 l 1,55,56
 364 369 364 369 352.5 374 c 128,-1,57
 341 379 341 379 330 386 c 0,58,59
 316 394 316 394 304.5 405 c 128,-1,60
 293 416 293 416 275 419 c 0,61,62
 271 420 271 420 267 420 c 0,63,64
 254 420 254 420 242 413 c 0,65,66
 226 404 226 404 212.5 389 c 128,-1,67
 199 374 199 374 188.5 357.5 c 128,-1,68
 178 341 178 341 172 329 c 0,69,70
 149 285 149 285 142 233 c 0,71,72
 140 218 140 218 140 205 c 0,73,74
 140 167 140 167 154 132 c 0,75,76
 159 118 159 118 168.5 107 c 128,-1,77
 178 96 178 96 186 83 c 1,48,49
EndSplineSet
Validated: 1
EndChar

StartChar: r
Encoding: 114 114 85
Width: 446
GlyphClass: 1
Flags: W
LayerCount: 2
Fore
SplineSet
162 280 m 0,0,1
 155 260 155 260 139 253 c 1,2,-1
 139 39 l 2,3,4
 138 18 138 18 126.5 7 c 128,-1,5
 115 -4 115 -4 101 -4 c 1,6,-1
 100 -5 l 1,7,8
 86 -5 86 -5 75 5 c 0,9,10
 62 14 62 14 60 35 c 2,11,-1
 60 438 l 2,12,13
 63 456 63 456 74 465.5 c 128,-1,14
 85 475 85 475 98 476 c 2,15,-1
 100 476 l 2,16,17
 112 476 112 476 123 468 c 256,18,19
 134 460 134 460 139 442 c 1,20,-1
 139 398 l 1,21,22
 159 413 159 413 184 423.5 c 128,-1,23
 209 434 209 434 235.5 440 c 128,-1,24
 262 446 262 446 288.5 449 c 128,-1,25
 315 452 315 452 339 453 c 2,26,-1
 342 453 l 2,27,28
 361 453 361 453 372 443 c 0,29,30
 384 432 384 432 386 418 c 2,31,-1
 386 414 l 2,32,33
 386 402 386 402 378 391 c 0,34,35
 369 378 369 378 348 374 c 0,36,37
 321 373 321 373 291 370 c 128,-1,38
 261 367 261 367 234 357.5 c 128,-1,39
 207 348 207 348 187.5 330 c 128,-1,40
 168 312 168 312 162 280 c 0,0,1
EndSplineSet
Validated: 1
EndChar

StartChar: s
Encoding: 115 115 86
Width: 480
GlyphClass: 1
Flags: W
LayerCount: 2
Fore
SplineSet
60 83 m 1,0,-1
 60 90 l 2,1,2
 60 104 60 104 66 114 c 0,3,4
 73 126 73 126 85 131 c 0,5,6
 91 134 91 134 98 134 c 0,7,8
 104 134 104 134 111 132 c 0,9,10
 124 127 124 127 135 112 c 0,11,12
 135 110 135 110 138.5 107 c 128,-1,13
 142 104 142 104 147 100 c 128,-1,14
 152 96 152 96 156 93 c 128,-1,15
 160 90 160 90 162 89 c 0,16,17
 180 83 180 83 206 80 c 0,18,19
 218 79 218 79 231 79 c 256,20,21
 244 79 244 79 257 80 c 0,22,23
 282 83 282 83 304.5 92.5 c 128,-1,24
 327 102 327 102 338 119 c 1,25,26
 337 126 337 126 330.5 133 c 128,-1,27
 324 140 324 140 316 146.5 c 128,-1,28
 308 153 308 153 300 158 c 128,-1,29
 292 163 292 163 289 165 c 0,30,31
 262 182 262 182 233.5 196.5 c 128,-1,32
 205 211 205 211 178 228 c 0,33,34
 170 234 170 234 153.5 249 c 128,-1,35
 137 264 137 264 119.5 281 c 128,-1,36
 102 298 102 298 87.5 314.5 c 128,-1,37
 73 331 73 331 70 340 c 0,38,39
 69 345 69 345 69 352 c 2,40,-1
 69 360 l 2,41,42
 70 372 70 372 73 380 c 0,43,44
 81 401 81 401 102 418.5 c 128,-1,45
 123 436 123 436 150.5 448.5 c 128,-1,46
 178 461 178 461 210 467.5 c 128,-1,47
 242 474 242 474 273 475 c 2,48,-1
 277 475 l 2,49,50
 305 475 305 475 329 468 c 0,51,52
 355 461 355 461 371 447 c 256,53,54
 387 433 387 433 392 420.5 c 128,-1,55
 397 408 397 408 402 388 c 1,56,57
 402 370 402 370 393 359 c 128,-1,58
 384 348 384 348 372 346 c 0,59,60
 368 345 368 345 364 345 c 0,61,62
 355 345 355 345 346 349 c 0,63,64
 333 355 333 355 324 371 c 1,65,66
 319 391 319 391 297 395 c 0,67,68
 288 397 288 397 278 397 c 0,69,70
 264 397 264 397 248 394 c 0,71,72
 221 388 221 388 195.5 377.5 c 128,-1,73
 170 367 170 367 158 359 c 1,74,75
 174 343 174 343 189.5 324 c 128,-1,76
 205 305 205 305 224 293 c 0,77,78
 252 275 252 275 284.5 259 c 128,-1,79
 317 243 317 243 345.5 223.5 c 128,-1,80
 374 204 374 204 394.5 178 c 128,-1,81
 415 152 415 152 420 114 c 1,82,-1
 420 108 l 2,83,84
 420 91 420 91 411 78 c 0,85,86
 400 61 400 61 383.5 48 c 128,-1,87
 367 35 367 35 348 25.5 c 128,-1,88
 329 16 329 16 316 9 c 0,89,90
 302 2 302 2 282.5 1.5 c 128,-1,91
 263 1 263 1 248 1 c 0,92,93
 220 1 220 1 190.5 4.5 c 128,-1,94
 161 8 161 8 135 17 c 128,-1,95
 109 26 109 26 89 42 c 128,-1,96
 69 58 69 58 60 83 c 1,0,-1
EndSplineSet
Validated: 1
EndChar

StartChar: t
Encoding: 116 116 87
Width: 415
GlyphClass: 1
Flags: W
LayerCount: 2
Fore
SplineSet
160 570 m 0,0,1
 163 588 163 588 174 597.5 c 128,-1,2
 185 607 185 607 198 608 c 2,3,-1
 200 608 l 2,4,5
 212 608 212 608 223 600 c 256,6,7
 234 592 234 592 239 574 c 1,8,9
 238 543 238 543 238 512 c 256,10,11
 238 481 238 481 237 450 c 1,12,13
 258 450 258 450 279 449.5 c 128,-1,14
 300 449 300 449 321 449 c 1,15,16
 339 444 339 444 347 433 c 256,17,18
 355 422 355 422 355 410 c 2,19,-1
 355 408 l 2,20,21
 354 395 354 395 344.5 384 c 128,-1,22
 335 373 335 373 317 370 c 0,23,24
 297 370 297 370 276.5 370.5 c 128,-1,25
 256 371 256 371 235 371 c 1,26,27
 233 299 233 299 231.5 226.5 c 128,-1,28
 230 154 230 154 229 81 c 1,29,30
 247 81 247 81 266 76 c 128,-1,31
 285 71 285 71 304 70 c 1,32,33
 322 65 322 65 330 54 c 256,34,35
 338 43 338 43 338 31 c 2,36,-1
 338 29 l 2,37,38
 337 16 337 16 327.5 5 c 128,-1,39
 318 -6 318 -6 300 -9 c 0,40,41
 285 -9 285 -9 262 -6.5 c 128,-1,42
 239 -4 239 -4 216 2 c 128,-1,43
 193 8 193 8 175 18.5 c 128,-1,44
 157 29 157 29 151 47 c 0,45,46
 147 62 147 62 147 77 c 0,47,48
 147 84 147 84 148 91 c 0,49,50
 150 113 150 113 150 134 c 0,51,52
 151 163 151 163 151.5 196 c 128,-1,53
 152 229 152 229 153 258 c 256,54,55
 154 287 154 287 154.5 315 c 128,-1,56
 155 343 155 343 156 371 c 1,57,58
 142 371 142 371 128 370 c 128,-1,59
 114 369 114 369 100 367 c 0,60,61
 82 369 82 369 72 379.5 c 128,-1,62
 62 390 62 390 61 403 c 0,63,64
 60 405 60 405 60 407 c 0,65,66
 60 417 60 417 67 428 c 0,67,68
 74 440 74 440 91 446 c 0,69,70
 108 448 108 448 124.5 449 c 128,-1,71
 141 450 141 450 158 451 c 1,72,73
 159 480 159 480 159 510 c 256,74,75
 159 540 159 540 160 570 c 0,0,1
EndSplineSet
Validated: 1
EndChar

StartChar: u
Encoding: 117 117 88
Width: 456
GlyphClass: 1
Flags: W
LayerCount: 2
Fore
SplineSet
317 442 m 2,0,1
 320 460 320 460 331 469.5 c 128,-1,2
 342 479 342 479 355 480 c 2,3,-1
 357 480 l 2,4,5
 369 480 369 480 380 472 c 256,6,7
 391 464 391 464 396 446 c 1,8,-1
 396 39 l 2,9,10
 395 18 395 18 383.5 7 c 128,-1,11
 372 -4 372 -4 358 -4 c 1,12,-1
 357 -5 l 1,13,14
 343 -5 343 -5 332 5 c 0,15,16
 319 14 319 14 317 35 c 2,17,-1
 317 66 l 1,18,19
 315 66 315 66 314 65.5 c 128,-1,20
 313 65 313 65 311 65 c 0,21,22
 310 64 310 64 307 64 c 0,23,24
 293 53 293 53 274 38 c 128,-1,25
 255 23 255 23 236 16 c 0,26,27
 208 7 208 7 186 7 c 0,28,29
 171 7 171 7 159 11 c 0,30,31
 128 21 128 21 108 47.5 c 128,-1,32
 88 74 88 74 78 112 c 128,-1,33
 68 150 68 150 64 190 c 128,-1,34
 60 230 60 230 60 268 c 256,35,36
 60 306 60 306 61 333 c 0,37,38
 63 361 63 361 64 388 c 128,-1,39
 65 415 65 415 66 442 c 0,40,41
 69 460 69 460 80 469.5 c 128,-1,42
 91 479 91 479 104 480 c 2,43,-1
 106 480 l 2,44,45
 118 480 118 480 129 472 c 256,46,47
 140 464 140 464 145 446 c 1,48,49
 143 383 143 383 140 321 c 0,50,51
 139 300 139 300 139 279 c 0,52,53
 139 237 139 237 143 195 c 0,54,55
 144 188 144 188 145.5 172 c 128,-1,56
 147 156 147 156 151.5 138.5 c 128,-1,57
 156 121 156 121 163.5 107 c 128,-1,58
 171 93 171 93 183 90 c 0,59,60
 188 89 188 89 192 89 c 0,61,62
 203 89 203 89 213 94 c 0,63,64
 227 101 227 101 241 111.5 c 128,-1,65
 255 122 255 122 270 132 c 128,-1,66
 285 142 285 142 302 144 c 0,67,68
 307 144 307 144 317 142 c 1,69,-1
 317 442 l 2,0,1
EndSplineSet
Validated: 1
EndChar

StartChar: v
Encoding: 118 118 89
Width: 597
GlyphClass: 1
Flags: W
LayerCount: 2
Fore
SplineSet
461 482 m 1,0,1
 472 500 472 500 488 504 c 0,2,3
 494 506 494 506 499 506 c 0,4,5
 508 506 508 506 516 502 c 0,6,7
 528 496 528 496 534 482 c 0,8,9
 537 475 537 475 537 467 c 0,10,11
 537 458 537 458 533 447 c 0,12,13
 514 393 514 393 484.5 343.5 c 128,-1,14
 455 294 455 294 426 245 c 0,15,16
 397 197 397 197 368 149.5 c 128,-1,17
 339 102 339 102 306 56 c 0,18,19
 306 51 306 51 307 49 c 0,20,21
 306 28 306 28 294.5 17 c 128,-1,22
 283 6 283 6 269 6 c 1,23,-1
 268 5 l 1,24,25
 254 5 254 5 243 15 c 0,26,27
 230 24 230 24 228 45 c 0,28,29
 223 97 223 97 204.5 146.5 c 128,-1,30
 186 196 186 196 162.5 243.5 c 128,-1,31
 139 291 139 291 114 337.5 c 128,-1,32
 89 384 89 384 70 432 c 0,33,34
 62 442 62 442 61 453 c 0,35,36
 60 456 60 456 60 458 c 0,37,38
 60 467 60 467 64 474 c 0,39,40
 68 484 68 484 78.5 490.5 c 128,-1,41
 89 497 89 497 104 497 c 0,42,43
 122 494 122 494 135 477 c 128,-1,44
 148 460 148 460 158 438.5 c 128,-1,45
 168 417 168 417 175.5 395.5 c 128,-1,46
 183 374 183 374 189 361 c 0,47,48
 214 311 214 311 238.5 262 c 128,-1,49
 263 213 263 213 281 162 c 1,50,51
 292 179 292 179 303 197 c 128,-1,52
 314 215 314 215 325 233 c 1,53,-1
 326 234 l 1,54,55
 326 233 326 233 324 231 c 1,56,57
 362 292 362 292 400 354 c 128,-1,58
 438 416 438 416 461 482 c 1,0,1
306 201 m 1,59,60
 307 203 307 203 310 208 c 1,61,62
 308 205 308 205 306 201 c 1,59,60
315 217 m 1,63,64
 311 211 311 211 310 208 c 1,65,66
 312 210 312 210 312.5 212.5 c 128,-1,67
 313 215 313 215 315 217 c 1,63,64
EndSplineSet
Validated: 5
EndChar

StartChar: w
Encoding: 119 119 90
Width: 775
GlyphClass: 1
Flags: W
LayerCount: 2
Fore
SplineSet
60 482 m 0,0,1
 63 500 63 500 74 509.5 c 128,-1,2
 85 519 85 519 98 520 c 2,3,-1
 100 520 l 2,4,5
 112 520 112 520 123 512 c 256,6,7
 134 504 134 504 139 486 c 1,8,9
 141 429 141 429 150 373.5 c 128,-1,10
 159 318 159 318 165 261 c 0,11,12
 168 232 168 232 170 204.5 c 128,-1,13
 172 177 172 177 174 148 c 1,14,15
 190 175 190 175 205 204 c 128,-1,16
 220 233 220 233 233 261.5 c 128,-1,17
 246 290 246 290 256 315.5 c 128,-1,18
 266 341 266 341 272 360 c 256,19,20
 278 379 278 379 284.5 403.5 c 128,-1,21
 291 428 291 428 300.5 451 c 128,-1,22
 310 474 310 474 324 492 c 128,-1,23
 338 510 338 510 359 517 c 1,24,-1
 365 517 l 2,25,26
 377 517 377 517 385 514 c 0,27,28
 395 509 395 509 403 496 c 0,29,30
 418 451 418 451 433.5 408 c 128,-1,31
 449 365 449 365 468 321 c 0,32,33
 481 292 481 292 497 263.5 c 128,-1,34
 513 235 513 235 524 205 c 0,35,36
 528 194 528 194 530 183 c 128,-1,37
 532 172 532 172 534 161 c 1,38,39
 545 198 545 198 560.5 234 c 128,-1,40
 576 270 576 270 591 306 c 128,-1,41
 606 342 606 342 618.5 379 c 128,-1,42
 631 416 631 416 636 455 c 0,43,44
 640 476 640 476 653 485 c 0,45,46
 664 493 664 493 676 493 c 2,47,-1
 680 493 l 2,48,49
 694 491 694 491 705 479 c 0,50,51
 715 468 715 468 715 449 c 2,52,-1
 715 446 l 1,53,54
 710 407 710 407 698 371 c 128,-1,55
 686 335 686 335 671.5 299.5 c 128,-1,56
 657 264 657 264 641.5 229 c 128,-1,57
 626 194 626 194 614 158 c 0,58,59
 609 142 609 142 605 119 c 128,-1,60
 601 96 601 96 595.5 72.5 c 128,-1,61
 590 49 590 49 581 27.5 c 128,-1,62
 572 6 572 6 557 -7 c 0,63,64
 543 -15 543 -15 531 -15 c 2,65,-1
 526 -15 l 2,66,67
 512 -13 512 -13 498 1 c 0,68,69
 484 21 484 21 477.5 42.5 c 128,-1,70
 471 64 471 64 467 86 c 128,-1,71
 463 108 463 108 459.5 130.5 c 128,-1,72
 456 153 456 153 449 176 c 0,73,74
 440 206 440 206 423 234.5 c 128,-1,75
 406 263 406 263 393 292 c 0,76,77
 384 313 384 313 375.5 334 c 128,-1,78
 367 355 367 355 359 377 c 1,79,80
 357 371 357 371 355.5 365 c 128,-1,81
 354 359 354 359 352 353 c 0,82,83
 343 318 343 318 323 269.5 c 128,-1,84
 303 221 303 221 278 171.5 c 128,-1,85
 253 122 253 122 225 78.5 c 128,-1,86
 197 35 197 35 172 10 c 0,87,88
 159 2 159 2 147 2 c 0,89,90
 130 2 130 2 114 18 c 0,91,92
 106 28 106 28 105 38 c 128,-1,93
 104 48 104 48 104 59 c 0,94,95
 104 63 104 63 103.5 71.5 c 128,-1,96
 103 80 103 80 103 87 c 2,97,-1
 103 97 l 1,98,-1
 102 97 l 1,99,-1
 102 92 l 2,100,101
 102 76 102 76 101 76.5 c 128,-1,102
 100 77 100 77 99 86.5 c 128,-1,103
 98 96 98 96 96.5 111 c 128,-1,104
 95 126 95 126 94 141.5 c 128,-1,105
 93 157 93 157 92 168 c 128,-1,106
 91 179 91 179 91 181 c 0,107,108
 91 191 91 191 90.5 200.5 c 128,-1,109
 90 210 90 210 89 220 c 0,110,111
 85 286 85 286 73.5 351 c 128,-1,112
 62 416 62 416 60 482 c 0,0,1
EndSplineSet
Validated: 1
EndChar

StartChar: x
Encoding: 120 120 91
Width: 537
GlyphClass: 1
Flags: W
LayerCount: 2
Fore
SplineSet
443 503 m 0,0,1
 458 499 458 499 466 490 c 128,-1,2
 474 481 474 481 476 471 c 0,3,4
 477 467 477 467 477 464 c 0,5,6
 477 457 477 457 474 450 c 0,7,8
 469 439 469 439 459 432 c 0,9,10
 446 415 446 415 434.5 398.5 c 128,-1,11
 423 382 423 382 408 365 c 0,12,13
 384 339 384 339 356.5 315.5 c 128,-1,14
 329 292 329 292 304 266 c 1,15,16
 318 247 318 247 332 228.5 c 128,-1,17
 346 210 346 210 360 191 c 0,18,19
 388 153 388 153 418 114 c 128,-1,20
 448 75 448 75 468 31 c 0,21,22
 471 22 471 22 471 14 c 0,23,24
 471 5 471 5 467 -3 c 0,25,26
 459 -17 459 -17 446 -22 c 0,27,28
 440 -24 440 -24 433 -24 c 256,29,30
 426 -24 426 -24 418 -21 c 0,31,32
 403 -16 403 -16 393 2 c 0,33,34
 382 26 382 26 366 51 c 128,-1,35
 350 76 350 76 332 100.5 c 128,-1,36
 314 125 314 125 295.5 148 c 128,-1,37
 277 171 277 171 261 192 c 0,38,39
 258 195 258 195 254 201 c 1,40,41
 238 177 238 177 224 151.5 c 128,-1,42
 210 126 210 126 195.5 101.5 c 128,-1,43
 181 77 181 77 164 53.5 c 128,-1,44
 147 30 147 30 125 10 c 0,45,46
 111 2 111 2 99 2 c 0,47,48
 97 2 97 2 95 3 c 0,49,50
 80 4 80 4 71 13 c 128,-1,51
 62 22 62 22 61 37 c 0,52,53
 60 39 60 39 60 41 c 0,54,55
 60 53 60 53 68 67 c 1,56,57
 89 86 89 86 105 108.5 c 128,-1,58
 121 131 121 131 134.5 154.5 c 128,-1,59
 148 178 148 178 161.5 202.5 c 128,-1,60
 175 227 175 227 190 250 c 0,61,62
 194 256 194 256 198 261.5 c 128,-1,63
 202 267 202 267 206 273 c 1,64,65
 197 287 197 287 187.5 301.5 c 128,-1,66
 178 316 178 316 168 330 c 0,67,68
 157 344 157 344 143.5 358 c 128,-1,69
 130 372 130 372 116.5 386 c 128,-1,70
 103 400 103 400 92 415.5 c 128,-1,71
 81 431 81 431 75 448 c 0,72,73
 74 453 74 453 74 458 c 0,74,75
 74 467 74 467 77 474 c 0,76,77
 81 483 81 483 93 494 c 0,78,79
 94 494 94 494 95 495 c 0,80,81
 106 499 106 499 115 499 c 0,82,83
 125 499 125 499 134 494 c 0,84,85
 149 485 149 485 153 469 c 1,86,87
 170 446 170 446 190.5 425.5 c 128,-1,88
 211 405 211 405 229 381 c 0,89,90
 238 370 238 370 244.5 357 c 128,-1,91
 251 344 251 344 259 331 c 1,92,93
 274 347 274 347 290 362 c 128,-1,94
 306 377 306 377 323 393 c 0,95,96
 335 404 335 404 351 421 c 128,-1,97
 367 438 367 438 377 451 c 0,98,99
 385 463 385 463 391 472.5 c 128,-1,100
 397 482 397 482 403.5 488.5 c 128,-1,101
 410 495 410 495 419 499 c 128,-1,102
 428 503 428 503 443 503 c 0,0,1
EndSplineSet
Validated: 1
EndChar

StartChar: y
Encoding: 121 121 92
Width: 533
GlyphClass: 1
Flags: W
LayerCount: 2
Fore
SplineSet
67 473 m 1,0,-1
 67 480 l 2,1,2
 67 496 67 496 75 507 c 0,3,4
 84 519 84 519 98 522 c 0,5,6
 102 523 102 523 106 523 c 0,7,8
 116 523 116 523 126 518 c 0,9,10
 139 510 139 510 145 490 c 0,11,12
 157 409 157 409 184.5 331.5 c 128,-1,13
 212 254 212 254 242 178 c 0,14,15
 252 153 252 153 263.5 124 c 128,-1,16
 275 95 275 95 290 72 c 1,17,18
 298 127 298 127 303 182.5 c 128,-1,19
 308 238 308 238 322 292 c 0,20,21
 336 343 336 343 356.5 392 c 128,-1,22
 377 441 377 441 397 489 c 0,23,24
 408 507 408 507 424 511 c 0,25,26
 430 513 430 513 435 513 c 0,27,28
 444 513 444 513 452 509 c 0,29,30
 464 503 464 503 470 489 c 0,31,32
 473 482 473 482 473 474 c 0,33,34
 473 465 473 465 469 454 c 0,35,36
 450 410 450 410 429.5 364 c 128,-1,37
 409 318 409 318 399 270 c 0,38,39
 382 187 382 187 373.5 104 c 128,-1,40
 365 21 365 21 342 -60 c 0,41,42
 335 -84 335 -84 321.5 -112.5 c 128,-1,43
 308 -141 308 -141 289.5 -166.5 c 128,-1,44
 271 -192 271 -192 247.5 -212 c 128,-1,45
 224 -232 224 -232 197 -239 c 0,46,47
 185 -242 185 -242 172 -242 c 2,48,-1
 166 -242 l 2,49,50
 149 -241 149 -241 133 -236 c 0,51,52
 127 -234 127 -234 120.5 -232.5 c 128,-1,53
 114 -231 114 -231 108 -229 c 0,54,55
 105 -227 105 -227 99 -227 c 0,56,57
 95 -227 95 -227 95 -226 c 2,58,-1
 95 -225 l 1,59,60
 76 -221 76 -221 68 -209 c 0,61,62
 60 -199 60 -199 60 -187 c 0,63,64
 60 -186 60 -186 61 -183 c 0,65,66
 62 -170 62 -170 73 -159 c 128,-1,67
 84 -148 84 -148 104 -147 c 0,68,69
 117 -148 117 -148 129 -152 c 128,-1,70
 141 -156 141 -156 154 -159 c 0,71,72
 157 -160 157 -160 164 -160 c 0,73,74
 170 -160 170 -160 174 -161 c 0,75,76
 196 -148 196 -148 214 -130 c 0,77,78
 240 -102 240 -102 254.5 -67 c 128,-1,79
 269 -32 269 -32 277 4 c 1,80,81
 272 3 272 3 267 3 c 0,82,83
 261 3 261 3 255 4 c 0,84,85
 243 7 243 7 232 18 c 0,86,87
 210 47 210 47 196 81 c 128,-1,88
 182 115 182 115 168 149 c 0,89,90
 136 227 136 227 107.5 308 c 128,-1,91
 79 389 79 389 67 473 c 1,0,-1
EndSplineSet
Validated: 1
EndChar

StartChar: z
Encoding: 122 122 93
Width: 546
GlyphClass: 1
Flags: W
LayerCount: 2
Fore
SplineSet
100 424 m 0,0,1
 79 426 79 426 70 439 c 0,2,3
 60 450 60 450 60 464 c 1,4,-1
 61 465 l 1,5,6
 61 479 61 479 72 490.5 c 128,-1,7
 83 502 83 502 104 503 c 0,8,9
 192 503 192 503 279 505 c 0,10,11
 307 506 307 506 336 506 c 0,12,13
 394 506 394 506 453 503 c 1,14,15
 476 497 476 497 483 482 c 0,16,17
 486 474 486 474 486 465 c 0,18,19
 486 455 486 455 482 443 c 0,20,21
 474 428 474 428 462 414.5 c 128,-1,22
 450 401 450 401 439 387 c 0,23,24
 430 376 430 376 425 371 c 128,-1,25
 420 366 420 366 411 358 c 0,26,27
 410 357 410 357 409 356.5 c 128,-1,28
 408 356 408 356 407 354 c 0,29,30
 368 303 368 303 332 250.5 c 128,-1,31
 296 198 296 198 258 145 c 0,32,33
 250 134 250 134 230 111.5 c 128,-1,34
 210 89 210 89 191 66 c 1,35,36
 204 65 204 65 217 65 c 0,37,38
 241 65 241 65 266 68 c 0,39,40
 304 71 304 71 333 72 c 1,41,-1
 304 72 l 1,42,43
 338 74 338 74 372 75 c 128,-1,44
 406 76 406 76 440 76 c 1,45,46
 458 71 458 71 466 60 c 256,47,48
 474 49 474 49 474 37 c 2,49,-1
 474 35 l 2,50,51
 473 22 473 22 463.5 11 c 128,-1,52
 454 0 454 0 436 -3 c 0,53,54
 402 -4 402 -4 358.5 -7.5 c 128,-1,55
 315 -11 315 -11 271 -12 c 0,56,57
 251 -13 251 -13 233 -13 c 0,58,59
 208 -13 208 -13 184 -12 c 0,60,61
 142 -10 142 -10 111 0 c 0,62,63
 94 9 94 9 88 21 c 0,64,65
 83 28 83 28 83 39 c 0,66,67
 83 45 83 45 85 53 c 0,68,69
 93 73 93 73 106 86 c 128,-1,70
 119 99 119 99 133 114 c 0,71,72
 150 133 150 133 164.5 152.5 c 128,-1,73
 179 172 179 172 193 192 c 0,74,75
 225 237 225 237 255.5 282 c 128,-1,76
 286 327 286 327 318 371 c 0,77,78
 326 381 326 381 334 391 c 128,-1,79
 342 401 342 401 350 410 c 0,80,81
 353 413 353 413 358.5 418 c 128,-1,82
 364 423 364 423 368 426 c 1,83,84
 301 426 301 426 234 425 c 128,-1,85
 167 424 167 424 100 424 c 0,0,1
EndSplineSet
Validated: 1
EndChar

StartChar: braceleft
Encoding: 123 123 94
Width: 412
GlyphClass: 1
Flags: W
LayerCount: 2
Fore
SplineSet
302 666 m 1,0,-1
 306 666 l 2,1,2
 321 666 321 666 332 659 c 0,3,4
 344 650 344 650 348 638 c 0,5,6
 349 633 349 633 349 628 c 0,7,8
 349 621 349 621 346 613 c 0,9,10
 340 599 340 599 324 589 c 1,11,12
 312 587 312 587 300 585.5 c 128,-1,13
 288 584 288 584 276 579 c 0,14,15
 258 572 258 572 250 553 c 128,-1,16
 242 534 242 534 240 508 c 0,17,18
 238 491 238 491 238 473 c 0,19,20
 238 462 238 462 239 451 c 0,21,22
 240 420 240 420 241 391 c 2,23,-1
 241 381 l 2,24,25
 241 358 241 358 239 336 c 0,26,27
 236 310 236 310 226 294 c 0,28,29
 214 274 214 274 196 263 c 1,30,31
 214 239 214 239 224 204 c 128,-1,32
 234 169 234 169 239.5 131.5 c 128,-1,33
 245 94 245 94 246 59 c 2,34,-1
 246 45 l 2,35,36
 246 18 246 18 244 -2 c 0,37,38
 243 -15 243 -15 240 -40 c 0,39,40
 238 -59 238 -59 238 -78 c 2,41,-1
 238 -90 l 2,42,43
 239 -116 239 -116 246 -137 c 128,-1,44
 253 -158 253 -158 272 -164 c 0,45,46
 283 -168 283 -168 295 -168.5 c 128,-1,47
 307 -169 307 -169 319 -171 c 0,48,49
 339 -177 339 -177 347 -190 c 0,50,51
 352 -200 352 -200 352 -210 c 0,52,53
 352 -214 352 -214 351 -218 c 0,54,55
 348 -232 348 -232 336 -241 c 0,56,57
 325 -249 325 -249 309 -249 c 2,58,-1
 302 -249 l 2,59,60
 288 -247 288 -247 273.5 -245 c 128,-1,61
 259 -243 259 -243 245 -240 c 0,62,63
 206 -232 206 -232 188 -202.5 c 128,-1,64
 170 -173 170 -173 165 -135 c 0,65,66
 160 -108 160 -108 160 -80 c 0,67,68
 160 -69 160 -69 161 -59 c 0,69,70
 163 -20 163 -20 165 7 c 0,71,72
 166 26 166 26 166.5 37 c 128,-1,73
 167 48 167 48 167 56 c 0,74,75
 167 63 167 63 166 71 c 128,-1,76
 165 79 165 79 163 92 c 0,77,78
 159 98 159 98 156.5 113 c 128,-1,79
 154 128 154 128 151.5 145.5 c 128,-1,80
 149 163 149 163 145.5 180 c 128,-1,81
 142 197 142 197 136 208 c 0,82,83
 132 216 132 216 125 220.5 c 128,-1,84
 118 225 118 225 109.5 228.5 c 128,-1,85
 101 232 101 232 92.5 235 c 128,-1,86
 84 238 84 238 77 242 c 0,87,88
 69 251 69 251 65.5 257.5 c 128,-1,89
 62 264 62 264 60 276 c 0,90,91
 60 299 60 299 76.5 311 c 128,-1,92
 93 323 93 323 113 326 c 0,93,94
 115 327 115 327 122 327 c 0,95,96
 128 327 128 327 135 328 c 0,97,98
 135 329 135 329 137 329 c 2,99,-1
 141 329 l 2,100,101
 142 328 142 328 143 328 c 0,102,103
 149 328 149 328 151 330 c 0,104,105
 158 334 158 334 158.5 339.5 c 128,-1,106
 159 345 159 345 160 353 c 0,107,108
 161 368 161 368 161 383 c 2,109,-1
 161 398 l 2,110,111
 160 421 160 421 159 442 c 0,112,113
 159 471 159 471 160.5 501 c 128,-1,114
 162 531 162 531 169.5 558.5 c 128,-1,115
 177 586 177 586 192.5 610 c 128,-1,116
 208 634 208 634 236 650 c 0,117,118
 251 659 251 659 268 660.5 c 128,-1,119
 285 662 285 662 302 666 c 1,0,-1
153 329 m 2,120,121
 149 329 149 329 147 328 c 1,122,123
 152 329 152 329 155 329 c 1,124,-1
 153 329 l 2,120,121
EndSplineSet
Validated: 1
EndChar

StartChar: bar
Encoding: 124 124 95
Width: 199
GlyphClass: 1
Flags: W
LayerCount: 2
Fore
SplineSet
60 604 m 2,0,1
 63 622 63 622 74 631.5 c 128,-1,2
 85 641 85 641 98 642 c 2,3,-1
 100 642 l 2,4,5
 112 642 112 642 123 634 c 256,6,7
 134 626 134 626 139 608 c 1,8,-1
 139 -188 l 2,9,10
 138 -209 138 -209 126.5 -220 c 128,-1,11
 115 -231 115 -231 101 -231 c 1,12,-1
 100 -232 l 1,13,14
 86 -232 86 -232 75 -222 c 0,15,16
 62 -213 62 -213 60 -192 c 2,17,-1
 60 604 l 2,0,1
EndSplineSet
Validated: 1
EndChar

StartChar: braceright
Encoding: 125 125 96
Width: 392
GlyphClass: 1
Flags: W
LayerCount: 2
Fore
SplineSet
86 568 m 1,0,1
 70 577 70 577 64 590 c 0,2,3
 60 599 60 599 60 608 c 0,4,5
 60 612 60 612 61 616 c 0,6,7
 63 628 63 628 74 637 c 128,-1,8
 85 646 85 646 103 646 c 0,9,10
 123 643 123 643 142.5 641 c 128,-1,11
 162 639 162 639 179 631 c 0,12,13
 227 608 227 608 246.5 563 c 128,-1,14
 266 518 266 518 268 469 c 2,15,-1
 268 458 l 2,16,17
 268 447 268 447 267 434 c 0,18,19
 265 414 265 414 262.5 394 c 128,-1,20
 260 374 260 374 260 355 c 256,21,22
 260 336 260 336 265 321 c 0,23,24
 271 312 271 312 274.5 302.5 c 128,-1,25
 278 293 278 293 281 282 c 1,26,27
 289 280 289 280 296 277.5 c 128,-1,28
 303 275 303 275 311 271 c 0,29,30
 324 262 324 262 329 251 c 0,31,32
 332 243 332 243 332 235 c 2,33,-1
 332 228 l 2,34,35
 329 216 329 216 319.5 207 c 128,-1,36
 310 198 310 198 295 195 c 0,37,38
 293 195 293 195 286 194.5 c 128,-1,39
 279 194 279 194 272 193 c 0,40,41
 270 192 270 192 266 188 c 0,42,43
 248 165 248 165 242 140 c 0,44,45
 237 118 237 118 237 94 c 2,46,-1
 237 87 l 2,47,48
 238 59 238 59 242.5 30.5 c 128,-1,49
 247 2 247 2 249 -28 c 2,50,-1
 249 -46 l 2,51,52
 249 -67 249 -67 247 -88 c 0,53,54
 243 -119 243 -119 228 -149 c 0,55,56
 220 -164 220 -164 205 -174 c 128,-1,57
 190 -184 190 -184 177 -195 c 0,58,59
 168 -203 168 -203 160.5 -209 c 128,-1,60
 153 -215 153 -215 145.5 -219.5 c 128,-1,61
 138 -224 138 -224 128.5 -227 c 128,-1,62
 119 -230 119 -230 106 -230 c 0,63,64
 88 -228 88 -228 78 -217.5 c 128,-1,65
 68 -207 68 -207 67 -194 c 0,66,67
 66 -192 66 -192 66 -190 c 0,68,69
 66 -180 66 -180 73 -169 c 0,70,71
 80 -157 80 -157 97 -151 c 1,72,-1
 108 -151 l 2,73,74
 111 -148 111 -148 115 -144 c 128,-1,75
 119 -140 119 -140 123.5 -136 c 128,-1,76
 128 -132 128 -132 131.5 -129 c 128,-1,77
 135 -126 135 -126 136 -126 c 0,78,79
 147 -116 147 -116 154.5 -107.5 c 128,-1,80
 162 -99 162 -99 166 -90 c 128,-1,81
 170 -81 170 -81 171.5 -69.5 c 128,-1,82
 173 -58 173 -58 173 -43 c 0,83,84
 173 -6 173 -6 165 30 c 128,-1,85
 157 66 157 66 156 102 c 2,86,-1
 156 111 l 2,87,88
 156 143 156 143 168 179 c 0,89,90
 182 220 182 220 211 247 c 1,91,92
 203 259 203 259 199 277 c 1,93,94
 185 291 185 291 182 315 c 0,95,96
 180 328 180 328 180 343 c 0,97,98
 180 355 180 355 182 368 c 0,99,100
 184 396 184 396 188 426 c 0,101,102
 190 448 190 448 190 470 c 2,103,-1
 190 482 l 2,104,105
 189 508 189 508 179 528 c 128,-1,106
 169 548 169 548 145 557 c 0,107,108
 131 562 131 562 116 564 c 128,-1,109
 101 566 101 566 86 568 c 1,0,1
EndSplineSet
Validated: 1
EndChar

StartChar: asciitilde
Encoding: 126 126 97
Width: 629
GlyphClass: 1
Flags: W
LayerCount: 2
Fore
SplineSet
133 240 m 0,0,1
 121 226 121 226 107 223 c 0,2,3
 102 222 102 222 98 222 c 0,4,5
 89 222 89 222 82 226 c 0,6,7
 71 232 71 232 65 245 c 0,8,9
 60 253 60 253 60 264 c 0,10,11
 60 269 60 269 61 275 c 0,12,13
 77 307 77 307 98.5 320.5 c 128,-1,14
 120 334 120 334 150 348 c 0,15,16
 191 366 191 366 227 366 c 0,17,18
 239 366 239 366 251 364 c 0,19,20
 296 356 296 356 338 313 c 1,21,22
 349 312 349 312 359 311 c 128,-1,23
 369 310 369 310 380 306 c 0,24,25
 385 304 385 304 390 300 c 0,26,27
 393 296 393 296 397 296 c 0,28,29
 399 296 399 296 401 297 c 0,30,31
 418 301 418 301 433 310 c 128,-1,32
 448 319 448 319 462 328.5 c 128,-1,33
 476 338 476 338 490.5 347 c 128,-1,34
 505 356 505 356 522 361 c 1,35,-1
 526 361 l 2,36,37
 541 361 541 361 552 354 c 0,38,39
 564 345 564 345 568 333 c 0,40,41
 569 328 569 328 569 323 c 0,42,43
 569 316 569 316 566 308 c 0,44,45
 560 294 560 294 544 284 c 1,46,47
 517 276 517 276 495 260.5 c 128,-1,48
 473 245 473 245 451.5 233 c 128,-1,49
 430 221 430 221 406 218 c 2,50,-1
 399 218 l 2,51,52
 377 218 377 218 349 232 c 0,53,54
 348 233 348 233 345 233 c 0,55,56
 322 233 322 233 307 239.5 c 128,-1,57
 292 246 292 246 276 262 c 0,58,59
 266 270 266 270 256.5 277 c 128,-1,60
 247 284 247 284 235 289 c 1,61,62
 212 288 212 288 190 278 c 128,-1,63
 168 268 168 268 147 258 c 0,64,65
 146 258 146 258 144 256 c 0,66,67
 142 252 142 252 138.5 248.5 c 128,-1,68
 135 245 135 245 133 240 c 0,0,1
EndSplineSet
Validated: 1
EndChar

StartChar: cent
Encoding: 162 162 100
Width: 511
GlyphClass: 1
Flags: W
LayerCount: 2
Fore
SplineSet
372 628 m 0,0,1
 376 649 376 649 389 658 c 0,2,3
 400 666 400 666 412 666 c 2,4,-1
 416 666 l 2,5,6
 430 664 430 664 441 652 c 0,7,8
 451 641 451 641 451 622 c 2,9,-1
 451 619 l 2,10,11
 448 593 448 593 440.5 570.5 c 128,-1,12
 433 548 433 548 422.5 526.5 c 128,-1,13
 412 505 412 505 400 484.5 c 128,-1,14
 388 464 388 464 377 442 c 1,15,16
 408 419 408 419 428 385.5 c 128,-1,17
 448 352 448 352 451 317 c 0,18,19
 450 296 450 296 438.5 285 c 128,-1,20
 427 274 427 274 413 274 c 1,21,-1
 412 273 l 1,22,23
 398 273 398 273 387 283 c 0,24,25
 374 292 374 292 372 313 c 0,26,27
 371 319 371 319 364.5 332 c 128,-1,28
 358 345 358 345 347 359 c 1,29,30
 326 290 326 290 307 220 c 128,-1,31
 288 150 288 150 266 80 c 1,32,-1
 283 80 l 2,33,34
 286 81 286 81 289 81 c 256,35,36
 292 81 292 81 295 82 c 0,37,38
 312 90 312 90 330.5 97 c 128,-1,39
 349 104 349 104 366 114 c 0,40,41
 369 116 369 116 371.5 118.5 c 128,-1,42
 374 121 374 121 377 123 c 0,43,44
 389 139 389 139 404 142 c 0,45,46
 408 143 408 143 412 143 c 0,47,48
 422 143 422 143 430 139 c 0,49,50
 442 132 442 132 448 118 c 0,51,52
 450 111 450 111 450 104 c 0,53,54
 450 95 450 95 446 84 c 0,55,56
 440 69 440 69 421.5 55 c 128,-1,57
 403 41 403 41 380 29.5 c 128,-1,58
 357 18 357 18 333.5 10.5 c 128,-1,59
 310 3 310 3 294 1 c 0,60,61
 285 0 285 0 277 0 c 0,62,63
 272 0 272 0 268 1 c 0,64,65
 255 1 255 1 241 2 c 1,66,67
 230 -30 230 -30 219 -60.5 c 128,-1,68
 208 -91 208 -91 196 -123 c 0,69,70
 186 -149 186 -149 174 -174 c 128,-1,71
 162 -199 162 -199 160 -228 c 1,72,73
 154 -245 154 -245 142 -252 c 0,74,75
 131 -259 131 -259 121 -259 c 0,76,77
 119 -259 119 -259 117 -258 c 0,78,79
 104 -257 104 -257 93.5 -247 c 128,-1,80
 83 -237 83 -237 81 -219 c 0,81,82
 84 -183 84 -183 98 -151.5 c 128,-1,83
 112 -120 112 -120 124 -88 c 0,84,85
 130 -72 130 -72 134.5 -60.5 c 128,-1,86
 139 -49 139 -49 143 -38.5 c 128,-1,87
 147 -28 147 -28 150.5 -17.5 c 128,-1,88
 154 -7 154 -7 158 5 c 1,89,90
 144 6 144 6 131.5 9.5 c 128,-1,91
 119 13 119 13 108 21 c 0,92,93
 89 35 89 35 78.5 59.5 c 128,-1,94
 68 84 68 84 64 113 c 0,95,96
 60 139 60 139 60 165 c 0,97,98
 60 168 60 168 61 172 c 0,99,100
 61 201 61 201 64 226 c 0,101,102
 72 296 72 296 109 357 c 128,-1,103
 146 418 146 418 204 456 c 0,104,105
 218 465 218 465 233.5 467.5 c 128,-1,106
 249 470 249 470 265 473 c 0,107,108
 275 475 275 475 287 475 c 0,109,110
 296 475 296 475 306 474 c 1,111,112
 326 512 326 512 347 548 c 128,-1,113
 368 584 368 584 372 628 c 0,0,1
157 86 m 0,114,115
 162 84 162 84 169 83 c 128,-1,116
 176 82 176 82 183 82 c 1,117,118
 208 160 208 160 229 239 c 128,-1,119
 250 318 250 318 275 396 c 1,120,121
 260 395 260 395 244 387.5 c 128,-1,122
 228 380 228 380 211 362 c 0,123,124
 186 336 186 336 169 302 c 128,-1,125
 152 268 152 268 145 231 c 0,126,127
 140 204 140 204 140 176 c 0,128,129
 140 166 140 166 141 157 c 0,130,131
 143 119 143 119 157 86 c 0,114,115
EndSplineSet
Validated: 1
EndChar

StartChar: sterling
Encoding: 163 163 101
Width: 618
GlyphClass: 1
Flags: W
LayerCount: 2
Fore
SplineSet
196 296 m 2,0,1
 175 298 175 298 166 311 c 0,2,3
 156 322 156 322 156 336 c 1,4,-1
 157 337 l 1,5,6
 157 351 157 351 168 362.5 c 128,-1,7
 179 374 179 374 200 375 c 2,8,-1
 266 375 l 1,9,10
 265 396 265 396 265 415 c 0,11,12
 264 421 264 421 264 427 c 0,13,14
 264 439 264 439 265 450 c 0,15,16
 266 476 266 476 272.5 500 c 128,-1,17
 279 524 279 524 285 548 c 0,18,19
 292 577 292 577 312.5 599.5 c 128,-1,20
 333 622 333 622 360 635.5 c 128,-1,21
 387 649 387 649 417 653 c 0,22,23
 426 654 426 654 435 654 c 0,24,25
 454 654 454 654 473 649 c 0,26,27
 499 640 499 640 518 618.5 c 128,-1,28
 537 597 537 597 542 561 c 0,29,30
 542 543 542 543 533 532 c 128,-1,31
 524 521 524 521 512 519 c 0,32,33
 508 518 508 518 504 518 c 0,34,35
 495 518 495 518 486 522 c 0,36,37
 473 528 473 528 464 544 c 1,38,-1
 463 554 l 1,39,-1
 460 563 l 2,40,41
 455 568 455 568 453 571 c 0,42,43
 422 562 422 562 402.5 557 c 128,-1,44
 383 552 383 552 372 541 c 128,-1,45
 361 530 361 530 355 507.5 c 128,-1,46
 349 485 349 485 345 441 c 0,47,48
 343 425 343 425 343 409 c 2,49,-1
 343 375 l 1,50,-1
 430 375 l 1,51,52
 448 370 448 370 456 359 c 256,53,54
 464 348 464 348 464 336 c 2,55,-1
 464 334 l 2,56,57
 463 321 463 321 453.5 310 c 128,-1,58
 444 299 444 299 426 296 c 2,59,-1
 347 296 l 1,60,61
 349 255 349 255 350 215 c 2,62,-1
 350 210 l 2,63,64
 350 172 350 172 343 137 c 1,65,66
 353 128 353 128 362 120 c 128,-1,67
 371 112 371 112 380 104 c 0,68,69
 387 98 387 98 395.5 90 c 128,-1,70
 404 82 404 82 411.5 75.5 c 128,-1,71
 419 69 419 69 426 65 c 0,72,73
 431 61 431 61 433 61 c 2,74,-1
 434 61 l 1,75,76
 444 67 444 67 452 76 c 128,-1,77
 460 85 460 85 467 94 c 128,-1,78
 474 103 474 103 481.5 111.5 c 128,-1,79
 489 120 489 120 499 126 c 0,80,81
 510 130 510 130 519 130 c 0,82,83
 526 130 526 130 532 128 c 0,84,85
 546 122 546 122 553 111 c 0,86,87
 558 102 558 102 558 92 c 2,88,-1
 558 85 l 2,89,90
 555 70 555 70 540 58 c 2,91,-1
 539 57 l 2,92,93
 533 50 533 50 531 47 c 128,-1,94
 529 44 529 44 527.5 42 c 128,-1,95
 526 40 526 40 523.5 37 c 128,-1,96
 521 34 521 34 515 27 c 0,97,98
 500 8 500 8 479.5 -5 c 128,-1,99
 459 -18 459 -18 433 -20 c 0,100,101
 422 -20 422 -20 408 -14 c 128,-1,102
 394 -8 394 -8 379 2.5 c 128,-1,103
 364 13 364 13 347.5 27 c 128,-1,104
 331 41 331 41 314 55 c 1,105,106
 314 54 314 54 313.5 53.5 c 128,-1,107
 313 53 313 53 313 52 c 0,108,109
 299 29 299 29 273 10 c 128,-1,110
 247 -9 247 -9 217 -19 c 256,111,112
 187 -29 187 -29 157 -29 c 0,113,114
 156 -29 156 -29 154 -28 c 0,115,116
 122 -28 122 -28 97 -13 c 0,117,118
 73 2 73 2 66 25 c 0,119,120
 60 41 60 41 60 57 c 0,121,122
 60 65 60 65 62 73 c 0,123,124
 65 98 65 98 77.5 121.5 c 128,-1,125
 90 145 90 145 106 162 c 0,126,127
 110 166 110 166 117.5 171.5 c 128,-1,128
 125 177 125 177 132.5 182 c 128,-1,129
 140 187 140 187 145.5 190.5 c 128,-1,130
 151 194 151 194 153 195 c 0,131,132
 157 198 157 198 164.5 199.5 c 128,-1,133
 172 201 172 201 179.5 202 c 128,-1,134
 187 203 187 203 193.5 203.5 c 128,-1,135
 200 204 200 204 202 204 c 2,136,-1
 212 204 l 2,137,138
 239 204 239 204 268 191 c 1,139,140
 270 216 270 216 271 243 c 2,141,-1
 271 260 l 2,142,143
 271 278 271 278 270 296 c 1,144,-1
 196 296 l 2,0,1
243 95 m 0,145,146
 247 101 247 101 248 105 c 0,147,148
 230 116 230 116 213 122 c 0,149,150
 203 125 203 125 194 125 c 0,151,152
 188 125 188 125 182 123 c 0,153,154
 168 119 168 119 157 103 c 128,-1,155
 146 87 146 87 139 56 c 1,156,157
 145 55 145 55 151 55 c 0,158,159
 156 55 156 55 161 54 c 0,160,161
 172 55 172 55 182 56 c 128,-1,162
 192 57 192 57 202 59 c 1,163,164
 213 68 213 68 224.5 76 c 128,-1,165
 236 84 236 84 243 95 c 0,145,146
EndSplineSet
Validated: 1
EndChar

StartChar: currency
Encoding: 164 164 102
Width: 581
GlyphClass: 1
Flags: W
LayerCount: 2
Fore
SplineSet
100 516 m 0,0,1
 87 529 87 529 85 544 c 2,2,-1
 85 550 l 2,3,4
 85 560 85 560 90 569 c 0,5,6
 96 579 96 579 110 585 c 0,7,8
 117 587 117 587 125 587 c 0,9,10
 132 587 132 587 140 585 c 0,11,12
 152 577 152 577 160 567.5 c 128,-1,13
 168 558 168 558 173.5 547 c 128,-1,14
 179 536 179 536 184.5 524.5 c 128,-1,15
 190 513 190 513 198 503 c 1,16,17
 216 513 216 513 231 517 c 0,18,19
 244 520 244 520 265.5 525 c 128,-1,20
 287 530 287 530 311 532 c 2,21,-1
 322 532 l 2,22,23
 339 532 339 532 355 529 c 0,24,25
 376 524 376 524 388 508 c 1,26,27
 389 509 389 509 389 510 c 2,28,-1
 390 511 l 2,29,30
 409 533 409 533 426.5 553.5 c 128,-1,31
 444 574 444 574 474 581 c 1,32,-1
 478 581 l 2,33,34
 493 581 493 581 504 574 c 0,35,36
 516 565 516 565 520 553 c 0,37,38
 521 548 521 548 521 543 c 0,39,40
 521 536 521 536 518 528 c 0,41,42
 512 514 512 514 496 504 c 0,43,44
 494 503 494 503 490 501.5 c 128,-1,45
 486 500 486 500 482 498 c 0,46,47
 475 488 475 488 468 479 c 128,-1,48
 461 470 461 470 453 461 c 1,49,50
 474 436 474 436 482 403 c 0,51,52
 489 375 489 375 489 346 c 2,53,-1
 489 336 l 2,54,55
 487 301 487 301 477.5 267 c 128,-1,56
 468 233 468 233 452 206 c 0,57,58
 446 196 446 196 438 189 c 1,59,60
 442 184 442 184 443 178 c 0,61,62
 448 168 448 168 452 158 c 0,63,64
 456 150 456 150 459.5 140.5 c 128,-1,65
 463 131 463 131 467 124 c 0,66,67
 469 122 469 122 472 117 c 0,68,69
 474 114 474 114 474 113 c 1,70,-1
 473 113 l 1,71,72
 479 102 479 102 479 91 c 0,73,74
 479 87 479 87 478 83 c 0,75,76
 474 68 474 68 463 61 c 0,77,78
 453 54 453 54 440 54 c 2,79,-1
 437 54 l 2,80,81
 422 55 422 55 408 69 c 0,82,83
 396 86 396 86 385 106.5 c 128,-1,84
 374 127 374 127 368 147 c 1,85,86
 351 143 351 143 332 143 c 0,87,88
 312 143 312 143 293.5 145.5 c 128,-1,89
 275 148 275 148 257.5 151.5 c 128,-1,90
 240 155 240 155 226 158 c 0,91,92
 214 159 214 159 203 166 c 1,93,94
 194 160 194 160 181 157 c 0,95,96
 173 157 173 157 165 152.5 c 128,-1,97
 157 148 157 148 150 141 c 128,-1,98
 143 134 143 134 136.5 127 c 128,-1,99
 130 120 130 120 125 115 c 0,100,101
 111 107 111 107 99 107 c 0,102,103
 97 107 97 107 95 108 c 0,104,105
 80 109 80 109 71 118 c 128,-1,106
 62 127 62 127 61 142 c 0,107,108
 60 144 60 144 60 146 c 0,109,110
 60 158 60 158 68 172 c 1,111,112
 83 187 83 187 99 201.5 c 128,-1,113
 115 216 115 216 135 225 c 1,114,115
 130 233 130 233 126 241.5 c 128,-1,116
 122 250 122 250 117 258 c 0,117,118
 105 277 105 277 102 301 c 0,119,120
 101 311 101 311 101 322 c 0,121,122
 101 336 101 336 103 350 c 0,123,124
 107 375 107 375 117 400 c 128,-1,125
 127 425 127 425 142 447 c 1,126,127
 131 463 131 463 123.5 484 c 128,-1,128
 116 505 116 505 100 516 c 0,0,1
372 425 m 0,129,130
 360 431 360 431 354 440 c 1,131,132
 343 441 343 441 332 451 c 0,133,134
 325 452 325 452 318 452 c 0,135,136
 288 452 288 452 265 442 c 0,137,138
 235 429 235 429 215.5 408.5 c 128,-1,139
 196 388 196 388 188 362 c 0,140,141
 181 344 181 344 181 326 c 0,142,143
 181 318 181 318 183 311 c 0,144,145
 186 286 186 286 203 265 c 128,-1,146
 220 244 220 244 252 234 c 0,147,148
 267 229 267 229 286 226 c 0,149,150
 300 223 300 223 314 223 c 2,151,-1
 323 223 l 2,152,153
 341 224 341 224 357.5 230 c 128,-1,154
 374 236 374 236 385 251 c 256,155,156
 396 266 396 266 403 292 c 0,157,158
 410 315 410 315 410 340 c 2,159,-1
 410 344 l 2,160,161
 409 371 409 371 400.5 393.5 c 128,-1,162
 392 416 392 416 372 425 c 0,129,130
EndSplineSet
Validated: 1
EndChar

StartChar: yen
Encoding: 165 165 103
Width: 618
GlyphClass: 1
Flags: W
LayerCount: 2
Fore
SplineSet
100 72 m 2,0,1
 79 74 79 74 70 87 c 0,2,3
 60 98 60 98 60 112 c 1,4,-1
 61 113 l 1,5,6
 61 127 61 127 72 138.5 c 128,-1,7
 83 150 83 150 104 151 c 2,8,-1
 272 151 l 1,9,-1
 272 207 l 1,10,-1
 110 207 l 2,11,12
 89 209 89 209 80 222 c 0,13,14
 70 233 70 233 70 247 c 1,15,-1
 71 248 l 1,16,17
 71 262 71 262 82 273.5 c 128,-1,18
 93 285 93 285 114 286 c 2,19,-1
 268 286 l 1,20,21
 268 287 268 287 267.5 287.5 c 128,-1,22
 267 288 267 288 267 290 c 0,23,24
 248 328 248 328 222 361.5 c 128,-1,25
 196 395 196 395 169.5 428.5 c 128,-1,26
 143 462 143 462 119.5 497 c 128,-1,27
 96 532 96 532 84 574 c 1,28,-1
 84 581 l 2,29,30
 84 595 84 595 90 605 c 0,31,32
 97 617 97 617 109 622 c 0,33,34
 115 625 115 625 122 625 c 0,35,36
 128 625 128 625 135 623 c 0,37,38
 148 618 148 618 159 603 c 1,39,40
 168 570 168 570 185 540.5 c 128,-1,41
 202 511 202 511 223 483.5 c 128,-1,42
 244 456 244 456 266 429 c 128,-1,43
 288 402 288 402 308 374 c 1,44,45
 316 388 316 388 324.5 400 c 128,-1,46
 333 412 333 412 342 426 c 0,47,48
 357 448 357 448 372.5 476.5 c 128,-1,49
 388 505 388 505 406 532.5 c 128,-1,50
 424 560 424 560 445 582.5 c 128,-1,51
 466 605 466 605 491 617 c 0,52,53
 502 621 502 621 511 621 c 0,54,55
 519 621 519 621 526 618 c 0,56,57
 540 612 540 612 546 600 c 0,58,59
 550 592 550 592 550 583 c 0,60,61
 550 578 550 578 548 572 c 0,62,63
 544 556 544 556 526 545 c 0,64,65
 514 540 514 540 505 528 c 128,-1,66
 496 516 496 516 488 505 c 0,67,68
 481 496 481 496 465.5 470.5 c 128,-1,69
 450 445 450 445 430.5 413 c 128,-1,70
 411 381 411 381 390 348.5 c 128,-1,71
 369 316 369 316 351 294 c 1,72,-1
 351 286 l 1,73,-1
 517 286 l 1,74,75
 535 281 535 281 543 270 c 256,76,77
 551 259 551 259 551 247 c 2,78,-1
 551 245 l 2,79,80
 550 232 550 232 540.5 221 c 128,-1,81
 531 210 531 210 513 207 c 2,82,-1
 351 207 l 1,83,-1
 351 151 l 1,84,-1
 524 151 l 1,85,86
 542 146 542 146 550 135 c 256,87,88
 558 124 558 124 558 112 c 2,89,-1
 558 110 l 2,90,91
 557 97 557 97 547.5 86 c 128,-1,92
 538 75 538 75 520 72 c 2,93,-1
 351 72 l 1,94,-1
 351 52 l 2,95,96
 350 31 350 31 338.5 20 c 128,-1,97
 327 9 327 9 313 9 c 1,98,-1
 312 8 l 1,99,100
 298 8 298 8 287 18 c 0,101,102
 274 27 274 27 272 48 c 2,103,-1
 272 72 l 1,104,-1
 100 72 l 2,0,1
EndSplineSet
Validated: 1
EndChar

StartChar: brokenbar
Encoding: 166 166 104
Width: 213
GlyphClass: 1
Flags: W
LayerCount: 2
Fore
SplineSet
64 141 m 0,0,1
 67 159 67 159 78 168.5 c 128,-1,2
 89 178 89 178 102 179 c 2,3,-1
 104 179 l 2,4,5
 116 179 116 179 127 171 c 256,6,7
 138 163 138 163 143 145 c 1,8,9
 143 56 143 56 141 -32.5 c 128,-1,10
 139 -121 139 -121 139 -210 c 0,11,12
 138 -231 138 -231 126.5 -242 c 128,-1,13
 115 -253 115 -253 101 -253 c 1,14,-1
 100 -254 l 1,15,16
 86 -254 86 -254 75 -244 c 0,17,18
 62 -235 62 -235 60 -214 c 0,19,20
 60 -124 60 -124 62 -36 c 128,-1,21
 64 52 64 52 64 141 c 0,0,1
76 620 m 0,22,23
 86 636 86 636 101 641 c 0,24,25
 108 644 108 644 115 644 c 0,26,27
 121 644 121 644 127 642 c 0,28,29
 139 637 139 637 147 625 c 0,30,31
 152 616 152 616 152 605 c 0,32,33
 152 601 152 601 151 596 c 1,34,-1
 152 596 l 2,35,36
 153 596 153 596 153 594 c 2,37,-1
 153 591 l 2,38,39
 150 584 150 584 150 580 c 2,40,-1
 150 312 l 2,41,42
 149 291 149 291 137.5 280 c 128,-1,43
 126 269 126 269 112 269 c 1,44,-1
 111 268 l 1,45,46
 97 268 97 268 86 278 c 0,47,48
 73 287 73 287 71 308 c 2,49,-1
 71 495 l 2,50,51
 71 526 71 526 68 559 c 0,52,53
 67 565 67 565 67 572 c 0,54,55
 67 597 67 597 76 620 c 0,22,23
EndSplineSet
Validated: 1
EndChar

StartChar: section
Encoding: 167 167 105
Width: 587
GlyphClass: 1
Flags: W
LayerCount: 2
Fore
SplineSet
103 -210 m 1,0,1
 87 -201 87 -201 81 -188 c 0,2,3
 77 -179 77 -179 77 -170 c 0,4,5
 77 -166 77 -166 78 -162 c 0,6,7
 80 -150 80 -150 91 -141 c 128,-1,8
 102 -132 102 -132 120 -132 c 1,9,10
 145 -138 145 -138 161.5 -153 c 128,-1,11
 178 -168 178 -168 196 -185 c 1,12,13
 211 -191 211 -191 230 -191 c 0,14,15
 236 -191 236 -191 242 -190 c 0,16,17
 268 -188 268 -188 288 -187 c 0,18,19
 290 -187 290 -187 292.5 -186.5 c 128,-1,20
 295 -186 295 -186 298 -186 c 2,21,-1
 299 -186 l 2,22,23
 320 -184 320 -184 333.5 -181 c 128,-1,24
 347 -178 347 -178 358.5 -173 c 128,-1,25
 370 -168 370 -168 381.5 -160.5 c 128,-1,26
 393 -153 393 -153 411 -141 c 0,27,28
 416 -137 416 -137 421 -135 c 128,-1,29
 426 -133 426 -133 430 -129 c 0,30,31
 445 -114 445 -114 447 -93 c 2,32,-1
 447 -88 l 2,33,34
 447 -68 447 -68 432 -37 c 0,35,36
 422 -16 422 -16 400.5 -2.5 c 128,-1,37
 379 11 379 11 350.5 21 c 128,-1,38
 322 31 322 31 289.5 39 c 128,-1,39
 257 47 257 47 226.5 57 c 128,-1,40
 196 67 196 67 170 80.5 c 128,-1,41
 144 94 144 94 128 114 c 0,42,43
 114 131 114 131 98.5 147 c 128,-1,44
 83 163 83 163 78 183 c 0,45,46
 72 209 72 209 66 234 c 128,-1,47
 60 259 60 259 60 285 c 0,48,49
 60 321 60 321 81.5 352.5 c 128,-1,50
 103 384 103 384 135 398 c 1,51,52
 122 415 122 415 112 434 c 128,-1,53
 102 453 102 453 97 470 c 0,54,55
 92 485 92 485 92 500 c 0,56,57
 92 518 92 518 100 535 c 0,58,59
 114 565 114 565 143.5 587.5 c 128,-1,60
 173 610 173 610 212 625.5 c 128,-1,61
 251 641 251 641 292 647 c 0,62,63
 315 650 315 650 337 650 c 0,64,65
 353 650 353 650 368 648 c 0,66,67
 404 644 404 644 426 628 c 0,68,69
 428 628 428 628 436 624 c 0,70,71
 444 618 444 618 448 616 c 0,72,73
 450 616 450 616 453 615 c 2,74,-1
 454 614 l 1,75,-1
 451 614 l 1,76,77
 468 607 468 607 474 594 c 0,78,79
 477 585 477 585 477 577 c 0,80,81
 477 572 477 572 476 567 c 0,82,83
 472 554 472 554 459 546 c 0,84,85
 448 539 448 539 434 539 c 2,86,-1
 427 539 l 2,87,88
 418 541 418 541 408 547 c 128,-1,89
 398 553 398 553 390 558 c 0,90,91
 389 558 389 558 387.5 559 c 128,-1,92
 386 560 386 560 384 561 c 0,93,94
 376 563 376 563 361 567 c 0,95,96
 348 569 348 569 340 569 c 2,97,-1
 335 569 l 2,98,99
 302 567 302 567 267 558.5 c 128,-1,100
 232 550 232 550 202 533 c 0,101,102
 180 521 180 521 176 509 c 0,103,104
 174 503 174 503 174 498 c 0,105,106
 174 491 174 491 177 484 c 0,107,108
 183 471 183 471 194.5 458.5 c 128,-1,109
 206 446 206 446 216 433 c 0,110,111
 221 431 221 431 225 429.5 c 128,-1,112
 229 428 229 428 232 428 c 0,113,114
 244 427 244 427 256 427 c 256,115,116
 268 427 268 427 280 425 c 0,117,118
 315 423 315 423 347 407.5 c 128,-1,119
 379 392 379 392 408 375 c 0,120,121
 480 335 480 335 508 278 c 0,122,123
 525 241 525 241 525 195 c 0,124,125
 525 170 525 170 520 142 c 0,126,127
 515 119 515 119 504.5 97 c 128,-1,128
 494 75 494 75 478 58 c 0,129,130
 476 55 476 55 473 52.5 c 128,-1,131
 470 50 470 50 468 48 c 1,132,133
 490 29 490 29 505 -1 c 0,134,135
 515 -21 515 -21 518 -42.5 c 128,-1,136
 521 -64 521 -64 525 -86 c 0,137,138
 527 -94 527 -94 527 -102 c 0,139,140
 527 -123 527 -123 516 -143 c 0,141,142
 501 -171 501 -171 476 -194.5 c 128,-1,143
 451 -218 451 -218 421.5 -234.5 c 128,-1,144
 392 -251 392 -251 369 -257 c 0,145,146
 339 -265 339 -265 306 -266.5 c 128,-1,147
 273 -268 273 -268 241 -269 c 2,148,-1
 229 -269 l 2,149,150
 211 -269 211 -269 194 -267 c 0,151,152
 170 -264 170 -264 150 -251 c 0,153,154
 148 -249 148 -249 144.5 -246 c 128,-1,155
 141 -243 141 -243 133 -235 c 2,156,-1
 120 -222 l 2,157,158
 112 -215 112 -215 105 -210 c 1,159,-1
 103 -210 l 1,0,1
187 167 m 0,160,161
 206 150 206 150 230.5 139.5 c 128,-1,162
 255 129 255 129 282 121 c 128,-1,163
 309 113 309 113 336.5 106 c 128,-1,164
 364 99 364 99 390 90 c 1,165,166
 399 100 399 100 404 104 c 128,-1,167
 409 108 409 108 411.5 109 c 128,-1,168
 414 110 414 110 416 110.5 c 128,-1,169
 418 111 418 111 421 114 c 0,170,171
 426 126 426 126 432 138 c 128,-1,172
 438 150 438 150 442 162 c 0,173,174
 448 181 448 181 448 197 c 0,175,176
 448 214 448 214 442 229 c 0,177,178
 430 258 430 258 405 280 c 128,-1,179
 380 302 380 302 348 317.5 c 128,-1,180
 316 333 316 333 288 343 c 0,181,182
 286 345 286 345 280 345 c 0,183,184
 276 345 276 345 276 346 c 1,185,-1
 281 346 l 1,186,187
 276 346 276 346 270 346.5 c 128,-1,188
 264 347 264 347 261 347 c 0,189,190
 247 348 247 348 234 348 c 256,191,192
 221 348 221 348 207 350 c 1,193,194
 199 331 199 331 174 327 c 0,195,196
 154 325 154 325 147.5 309.5 c 128,-1,197
 141 294 141 294 141 275 c 256,198,199
 141 256 141 256 145.5 238 c 128,-1,200
 150 220 150 220 153 212 c 0,201,202
 158 199 158 199 167 188 c 128,-1,203
 176 177 176 177 187 167 c 0,160,161
293 344 m 2,204,-1
 296 344 l 1,205,-1
 294 345 l 2,206,207
 290 345 290 345 283 346 c 1,208,209
 289 344 289 344 293 344 c 2,204,-1
EndSplineSet
Validated: 1
EndChar

StartChar: dieresis
Encoding: 168 168 106
Width: 398
GlyphClass: 1
Flags: W
LayerCount: 2
Fore
SplineSet
338 596 m 1,0,1
 332 566 332 566 314.5 549 c 128,-1,2
 297 532 297 532 279 530 c 2,3,-1
 274 530 l 2,4,5
 258 530 258 530 245 543 c 0,6,7
 230 557 230 557 230 589 c 0,8,9
 230 613 230 613 244.5 629.5 c 128,-1,10
 259 646 259 646 278 651 c 0,11,12
 283 652 283 652 289 652 c 0,13,14
 302 652 302 652 314 646 c 0,15,16
 331 636 331 636 338 609 c 1,17,-1
 338 596 l 1,0,1
159 621 m 1,18,19
 169 607 169 607 169 594 c 0,20,21
 169 591 169 591 168 588 c 0,22,23
 165 571 165 571 154 562 c 1,24,25
 150 553 150 553 141 546 c 0,26,27
 127 538 127 538 117 537 c 2,28,-1
 114 537 l 2,29,30
 104 537 104 537 92 544 c 0,31,32
 73 560 73 560 65 581 c 0,33,34
 60 592 60 592 60 603 c 256,35,36
 60 614 60 614 64 625 c 0,37,38
 73 639 73 639 82 644.5 c 128,-1,39
 91 650 91 650 107 650 c 0,40,41
 124 647 124 647 134.5 640 c 128,-1,42
 145 633 145 633 159 621 c 1,18,19
EndSplineSet
Validated: 1
EndChar

StartChar: copyright
Encoding: 169 169 107
Width: 740
GlyphClass: 1
Flags: W
LayerCount: 2
Fore
SplineSet
277 652 m 0,0,1
 298 664 298 664 337 668 c 0,2,3
 355 670 355 670 375 670 c 0,4,5
 396 670 396 670 419 668 c 0,6,7
 462 663 462 663 501 648.5 c 128,-1,8
 540 634 540 634 563 610 c 1,9,-1
 566 610 l 2,10,11
 577 610 577 610 588 603 c 0,12,13
 600 595 600 595 605 577 c 0,14,15
 606 570 606 570 616.5 558 c 128,-1,16
 627 546 627 546 639 528.5 c 128,-1,17
 651 511 651 511 662 488 c 128,-1,18
 673 465 673 465 677 435 c 0,19,20
 680 413 680 413 680 392 c 0,21,22
 680 343 680 343 665 297 c 0,23,24
 642 229 642 229 605 170 c 0,25,26
 597 157 597 157 584.5 143 c 128,-1,27
 572 129 572 129 557.5 116 c 128,-1,28
 543 103 543 103 526.5 92.5 c 128,-1,29
 510 82 510 82 495 78 c 0,30,31
 464 70 464 70 424 65 c 0,32,33
 388 60 388 60 348 60 c 0,34,35
 344 60 344 60 341 61 c 0,36,37
 297 61 297 61 253.5 68.5 c 128,-1,38
 210 76 210 76 174 93.5 c 128,-1,39
 138 111 138 111 112 139.5 c 128,-1,40
 86 168 86 168 77 210 c 0,41,42
 72 236 72 236 65 261 c 0,43,44
 60 280 60 280 60 300 c 2,45,-1
 60 312 l 1,46,47
 64 350 64 350 72.5 392 c 128,-1,48
 81 434 81 434 96 474 c 128,-1,49
 111 514 111 514 135 548 c 128,-1,50
 159 582 159 582 195 604 c 0,51,52
 215 617 215 617 235.5 629 c 128,-1,53
 256 641 256 641 277 652 c 0,0,1
586 468 m 0,54,55
 584 477 584 477 578.5 484 c 128,-1,56
 573 491 573 491 566 498 c 128,-1,57
 559 505 559 505 551.5 512.5 c 128,-1,58
 544 520 544 520 538 530 c 1,59,60
 519 533 519 533 507 552 c 0,61,62
 504 554 504 554 499 556.5 c 128,-1,63
 494 559 494 559 492 561 c 0,64,65
 475 569 475 569 447.5 577.5 c 128,-1,66
 420 586 420 586 393 589 c 0,67,68
 383 591 383 591 373 591 c 0,69,70
 362 591 362 591 352 589 c 0,71,72
 330 586 330 586 310 579 c 0,73,74
 262 563 262 563 225 525 c 128,-1,75
 188 487 188 487 166.5 438 c 128,-1,76
 145 389 145 389 141 336 c 0,77,78
 140 324 140 324 140 313 c 0,79,80
 140 272 140 272 153 236 c 0,81,82
 165 203 165 203 182.5 185 c 128,-1,83
 200 167 200 167 221.5 158 c 128,-1,84
 243 149 243 149 269.5 146.5 c 128,-1,85
 296 144 296 144 326 144 c 0,86,87
 339 144 339 144 357 143 c 0,88,89
 369 142 369 142 382 142 c 0,90,91
 388 142 388 142 395 143 c 0,92,93
 414 143 414 143 432 145 c 128,-1,94
 450 147 450 147 464 153 c 0,95,96
 487 162 487 162 506.5 180 c 128,-1,97
 526 198 526 198 540 216 c 0,98,99
 582 272 582 272 593 338 c 0,100,101
 597 362 597 362 597 387 c 0,102,103
 597 428 597 428 586 468 c 0,54,55
483 446 m 0,104,105
 483 429 483 429 475 418.5 c 128,-1,106
 467 408 467 408 456 405 c 0,107,108
 451 403 451 403 445 403 c 256,109,110
 439 403 439 403 433 405 c 0,111,112
 421 408 421 408 411 419 c 1,113,114
 401 424 401 424 392 428 c 128,-1,115
 383 432 383 432 373 434 c 0,116,117
 370 435 370 435 367 435 c 0,118,119
 354 435 354 435 344 425 c 0,120,121
 330 413 330 413 320 395 c 128,-1,122
 310 377 310 377 305 358 c 0,123,124
 300 341 300 341 300 330 c 2,125,-1
 300 326 l 2,126,127
 301 311 301 311 307.5 303 c 128,-1,128
 314 295 314 295 323.5 291.5 c 128,-1,129
 333 288 333 288 344 288 c 2,130,-1
 366 288 l 2,131,132
 371 288 371 288 379 288.5 c 128,-1,133
 387 289 387 289 394 290 c 0,134,135
 402 291 402 291 410 291 c 2,136,-1
 413 291 l 2,137,138
 432 291 432 291 443 281 c 0,139,140
 455 270 455 270 457 256 c 2,141,-1
 457 252 l 2,142,143
 457 240 457 240 449 229 c 0,144,145
 440 216 440 216 419 212 c 0,146,147
 390 211 390 211 360 208 c 0,148,149
 352 207 352 207 344 207 c 0,150,151
 322 207 322 207 301 213 c 0,152,153
 284 218 284 218 273 228.5 c 128,-1,154
 262 239 262 239 248 252 c 0,155,156
 220 279 220 279 218 316 c 2,157,-1
 218 325 l 2,158,159
 218 357 218 357 230 388 c 0,160,161
 243 423 243 423 268 453.5 c 128,-1,162
 293 484 293 484 319 501 c 0,163,164
 337 513 337 513 363 514 c 2,165,-1
 369 514 l 2,166,167
 392 514 392 514 414 508 c 0,168,169
 439 500 439 500 458.5 484 c 128,-1,170
 478 468 478 468 483 446 c 0,104,105
505 556 m 1,171,172
 503 556 503 556 502 557 c 1,173,174
 502 556 502 556 504 556 c 2,175,-1
 505 555 l 1,176,-1
 505 556 l 1,171,172
EndSplineSet
Validated: 1
EndChar

